<?xml version="1.0" encoding="UTF-8"?>
<svg width="150px" height="174px" viewBox="0 0 150 174" version="1.1" xmlns="http://www.w3.org/2000/svg" xmlns:xlink="http://www.w3.org/1999/xlink">
    <title>regionale-produkte</title>
    <defs>
        <polygon id="path-1" points="5.60954791e-14 174 149.952446 174 149.952446 0.293820359 5.60954791e-14 0.293820359"></polygon>
    </defs>
    <g id="XXL-&gt;-1820" stroke="none" stroke-width="1" fill="none" fill-rule="evenodd">
        <g id="Über-uns" transform="translate(-704.000000, -1590.000000)">
            <g id="regionale-produkte" transform="translate(704.000000, 1590.000000)">
                <path d="M25.9511629,65.0505772 L27.4020509,62.3884814 C28.1591714,60.9985653 27.6762345,59.7659784 26.5981946,59.1731281 C25.4318758,58.5344335 24.2271299,58.9376551 23.4938965,60.2827689 L22.0585871,62.915691 L25.9511629,65.0505772 Z M29.3369145,61.1319305 L34.3656903,61.7049844 L33.4808252,63.3293317 L28.8996748,62.7343976 L28.755313,62.9980024 L27.2493805,65.7632479 L31.025636,67.8335353 L30.2363197,69.2828407 L19.8993915,63.611691 L22.1946403,59.399224 C23.3671905,57.2497509 25.4869203,56.626685 27.3968581,57.6738108 C28.7376572,58.4094036 29.4563505,59.6961701 29.3369145,61.1319305 L29.3369145,61.1319305 Z" id="Fill-4" fill="#E95A4F"></path>
                <polygon id="Fill-6" fill="#E95A4F" points="29.1368851 49.3332719 33.8135843 44.4289725 34.9549773 45.5240263 31.4155167 49.2353317 33.9257503 51.6452838 37.1204043 48.2944814 38.20156 49.331188 35.006906 52.6819904 37.66254 55.2294754 41.200962 51.5181701 42.3298921 52.6017629 37.6531928 57.5060623"></polygon>
                <path d="M52.6325472,39.4239198 C54.2610314,42.2152132 53.5267595,45.3128299 50.6301763,47.015321 C47.5611898,48.8188778 44.2917585,47.8030096 42.4597138,44.6658 C40.6037819,41.4858719 41.3785582,38.0944347 44.3893845,36.3242192 C46.5548115,35.0530814 49.0567366,35.244794 50.5772091,36.7284826 L49.5417507,38.0902671 C48.4138592,37.0139677 46.7189062,36.8493449 45.1558522,37.768315 C43.0475468,39.0071533 42.6508115,41.4619078 43.9947264,43.7645425 C45.3469498,46.0807222 47.6588158,46.9069617 49.8242428,45.6337401 C51.7019848,44.529309 52.3510937,42.5069497 51.3623711,40.6148299 L47.8488749,42.6788659 L47.1260273,41.4421114 L52.0312128,38.5601713 C52.208809,38.7643868 52.4227553,39.0644587 52.6325472,39.4239198" id="Fill-8" fill="#E95A4F"></path>
                <polygon id="Fill-10" fill="#E95A4F" points="60.3052212 42.4570419 56.9682826 31.1178683 58.5136809 30.6604671 61.851658 41.9996407"></polygon>
                <path d="M76.7976742,34.1461976 C76.6896625,31.5976707 74.8804664,29.7034671 72.3899657,29.8087006 C69.8984264,29.9139341 68.253325,31.9529641 68.3602981,34.5025329 C68.4683099,37.0844012 70.2785445,38.9775629 72.7690452,38.8723293 C75.2605845,38.7681377 76.9056859,36.7291078 76.7976742,34.1461976 M66.5666807,34.5942216 C66.4223189,31.1288084 68.7674192,28.3083413 72.3369984,28.1583054 C75.9086548,28.0082695 78.4635471,30.6380659 78.6068703,34.0701377 C78.7543478,37.5688922 76.3915917,40.3726886 72.8375911,40.5216826 C69.2669733,40.6727605 66.7131196,38.0763054 66.5666807,34.5942216" id="Fill-12" fill="#E95A4F"></path>
                <polygon id="Fill-14" fill="#E95A4F" points="86.9735195 29.4605964 88.5407278 29.9044527 91.6211387 40.0610515 94.0420549 31.4631593 95.6404205 31.9153509 92.4384965 43.2889078 90.854671 42.8408838 87.779453 32.6676144 85.3543825 41.2821772 83.7715955 40.8341533"></polygon>
                <path d="M105.055199,45.7567904 L105.868402,42.0361078 C106.136354,40.8201916 106.326413,40.1877485 106.466621,39.7845269 C106.257867,39.9856168 105.715732,40.4284311 104.639769,41.2390419 L101.593631,43.5135449 L105.055199,45.7567904 Z M104.709353,47.3394611 L100.297491,44.4794012 L98.1964552,46.0558204 L96.6178226,45.0337006 L106.79481,37.5548263 L108.358903,38.5675689 L105.748966,50.9497006 L104.143331,49.9088263 L104.709353,47.3394611 Z" id="Fill-16" fill="#E95A4F"></path>
                <polygon id="Fill-18" fill="#E95A4F" points="114.615377 58.0766156 113.454251 59.1237413 109.043427 54.2006874 117.806915 46.2987952 118.919228 47.5397174 111.315827 54.3934419"></polygon>
                <polygon id="Fill-20" fill="#E95A4F" points="126.630953 57.6380731 129.829761 63.616588 128.438072 64.3657257 126.017155 59.8417257 122.957516 61.4889952 125.141637 65.5733066 123.824725 66.2838934 121.639565 62.199582 118.403369 63.9427078 120.824285 68.4667078 119.448174 69.2075102 116.249366 63.2289952"></polygon>
                <path d="M32.6055149,113.34808 C33.3792526,114.727577 34.6712388,114.994308 35.8012075,114.356655 C36.9602562,113.702332 37.2884456,112.485374 36.5219779,111.11838 L35.1448286,108.663625 L31.2200571,110.877697 L32.6055149,113.34808 Z M35.7004658,106.456847 L37.9739045,110.509901 C39.1547633,112.617697 38.5669303,114.766128 36.6258353,115.861182 C34.7138204,116.939565 32.5577405,116.358176 31.3685732,114.237877 L29.9021065,111.621625 L26.2380171,113.688787 L25.431045,112.249901 L35.7004658,106.456847 Z" id="Fill-22" fill="#E95A4F"></path>
                <path d="M39.5094363,122.621551 L41.6987506,124.713719 C42.8411821,125.805647 44.1539398,125.655611 45.0014162,124.762689 C45.9184772,123.797874 45.8405841,122.525695 44.7334641,121.469192 L42.5690757,119.399946 L39.5094363,122.621551 Z M42.4101738,126.912162 L40.5625505,131.63621 L39.2279828,130.360904 L40.9800573,126.074461 L40.7629953,125.86712 L38.4905951,123.695766 L35.5223503,126.820473 L34.3321444,125.682701 L42.4558711,117.127527 L45.9195158,120.437695 C47.6871689,122.126641 47.7411747,124.341754 46.2393966,125.923383 C45.1862824,127.033024 43.7613587,127.397695 42.4101738,126.912162 L42.4101738,126.912162 Z" id="Fill-24" fill="#E95A4F"></path>
                <path d="M58.4177166,134.982115 C59.4822551,132.665935 58.7344817,130.153875 56.4703901,129.10675 C54.2083757,128.059624 51.8186167,129.120295 50.7540782,131.436474 C49.6749997,133.781828 50.4238117,136.293887 52.6858261,137.341013 C54.9488791,138.388139 57.3396767,137.327468 58.4177166,134.982115 M49.1172854,130.697756 C50.5640192,127.549085 53.9310764,126.115408 57.1745434,127.615768 C60.4190489,129.116127 61.4950117,132.624259 60.062818,135.741672 C58.6015442,138.920558 55.2272169,140.332354 51.9972515,138.839289 C48.7537845,137.338929 47.6643203,133.861013 49.1172854,130.697756" id="Fill-26" fill="#E95A4F"></path>
                <path d="M68.9242439,141.71081 C71.4562876,141.951492 73.1481248,140.287552 73.389074,137.74736 C73.6300232,135.19154 72.1905595,133.297337 69.7416017,133.062905 L67.8887855,132.886822 L67.0714277,141.534726 L68.9242439,141.71081 Z M66.3818145,131.169744 L69.9721652,131.511492 C73.5625159,131.852199 75.4651836,134.49554 75.1421871,137.914067 C74.8015348,141.515971 72.3504999,143.610223 68.8598523,143.278893 L65.2695016,142.937145 L66.3818145,131.169744 Z" id="Fill-28" fill="#E95A4F"></path>
                <path d="M79.6324623,131.756655 L81.2734094,131.398236 L82.8177691,138.520775 C83.251893,140.525422 84.6010008,141.408966 86.2409093,141.050547 C87.9296308,140.680667 88.7324486,139.278248 88.3076718,137.322571 L86.7633121,130.201074 L88.3886806,129.845781 L89.9600432,137.098559 C90.5582619,139.852344 89.304703,142.002859 86.5774073,142.597793 C83.8646518,143.190643 81.8020436,141.763218 81.205902,139.009434 L79.6324623,131.756655 Z" id="Fill-30" fill="#E95A4F"></path>
                <polygon id="Fill-32" fill="#E95A4F" points="92.5578286 128.14454 93.9889838 127.32872 97.2729551 133.128025 98.238829 124.907307 100.029331 123.886229 99.2960975 130.018947 106.009441 134.075127 104.275022 135.063905 99.0219139 131.862097 98.5690956 135.419199 99.8081145 137.609307 98.377998 138.423043"></polygon>
                <polygon id="Fill-34" fill="#E95A4F" points="109.637491 116.725139 107.157376 119.284085 114.510481 126.454552 113.364934 127.638169 106.011829 120.467702 103.532753 123.026648 102.43498 121.9566 108.540757 115.656133"></polygon>
                <polygon id="Fill-36" fill="#E95A4F" points="110.775457 112.343777 114.045927 106.403813 115.427231 107.169622 112.953347 111.66549 115.993253 113.350268 118.227226 109.292005 119.536868 110.017178 117.302895 114.0744 120.518321 115.856077 122.993243 111.36125 124.360007 112.118723 121.090575 118.058687"></polygon>
                <path d="M85.5221122,86.9155006 C80.6813183,88.0126383 77.4399285,92.5314287 77.8428952,97.4148898 C78.2437848,97.412806 78.6446744,97.3784228 79.0403712,97.3117401 C81.7614353,96.8512132 83.998524,94.9340874 84.8792348,92.3074168 L85.0682553,91.7312371 C85.77864,89.6349018 87.151635,87.8949018 88.9400596,86.7435844 C87.9908028,86.6237641 87.0249289,86.6435605 86.0684022,86.8071413 C85.8824974,86.8373569 85.7017855,86.8748659 85.5221122,86.9155006 M77.7982365,99.4997641 C77.4710857,99.4997641 77.1428963,99.4830934 76.8147068,99.4487102 L76.0274677,99.3663988 L75.8966073,98.5839198 C74.8518018,92.3022072 78.8793922,86.2840994 85.0661782,84.8827222 L85.0682553,84.8827222 C85.2853173,84.8337521 85.5044564,84.7879078 85.7267113,84.7514407 C88.00742,84.3617641 90.3296717,84.6462072 92.4504401,85.5651772 L95.2680916,86.786303 L92.2904997,87.532315 C89.8228476,88.1512132 87.8589039,89.968315 87.0384304,92.3928539 L86.8504485,92.9648659 C85.722557,96.3281713 82.8633625,98.7787581 79.3851778,99.3663988 C78.8606978,99.4549617 78.3299865,99.4997641 77.7982365,99.4997641" id="Fill-38" fill="#E95A4F"></path>
                <path d="M67.6087859,91.4260599 C68.7636803,92.0845509 69.7305928,93.0639521 70.3848945,94.2819521 L70.5957251,94.6841317 C71.5730233,96.5168623 73.5857799,97.5931617 75.6629281,97.3639401 C75.2558071,94.096491 72.5690159,91.5146228 69.2164986,91.3281198 C68.6878644,91.2979042 68.1374201,91.3302036 67.6087859,91.4260599 M75.1093681,99.4790299 C72.4485413,99.4790299 70.0162007,98.0151377 68.7605646,95.6604072 L68.5518112,95.2623952 C67.7261448,93.7266108 66.1932094,92.7222036 64.4535978,92.5857126 L61.3929199,92.3460719 L63.9706608,90.6717126 C65.5617563,89.6391737 67.4665013,89.1421796 69.3317804,89.2484551 C74.0687169,89.511018 77.7847351,93.4473772 77.7930437,98.209976 L77.7940822,99.0039162 L77.0307303,99.2164671 C76.4034315,99.3904671 75.7563998,99.4790299 75.1093681,99.4790299" id="Fill-40" fill="#E95A4F"></path>
                <mask id="mask-2" fill="white">
                    <use xlink:href="#path-1"></use>
                </mask>
                <g id="Clip-43"></g>
                <polygon id="Fill-42" fill="#E95A4F" mask="url(#mask-2)" points="75.5095308 107.558048 77.586679 107.558048 77.586679 98.2068503 75.5095308 98.2068503"></polygon>
                <polygon id="Fill-44" fill="#E95A4F" mask="url(#mask-2)" points="41.4101308 84.8713653 39.941587 83.3980958 67.4336823 55.8175329 85.6378093 74.0812814 84.1692655 75.5545509 67.4336823 58.7640719"></polygon>
                <polygon id="Fill-45" fill="#E95A4F" mask="url(#mask-2)" points="109.572581 81.7018563 88.4043631 60.465521 79.5006672 69.3978683 78.0321234 67.9245988 88.4043631 57.518982 111.041124 80.2285868"></polygon>
                <path d="M75.1840416,109.638234 C66.1370225,106.827144 55.7803615,106.824018 47.4831929,109.629898 L46.8195441,107.656509 C55.5165637,104.713096 66.3499302,104.711012 75.7988775,107.648174 L75.1840416,109.638234 Z" id="Fill-46" fill="#E95A4F" mask="url(#mask-2)"></path>
                <path d="M102.131197,112.674481 C91.0444185,106.959571 79.8527438,106.856422 68.8656683,112.370242 L67.9361445,110.506254 C79.547403,104.679859 91.3726079,104.786134 103.080454,110.820913 L102.131197,112.674481 Z" id="Fill-47" fill="#E95A4F" mask="url(#mask-2)"></path>
                <polygon id="Fill-2" fill="#E95A4F" mask="url(#mask-2)" points="21.05437 88.5014692 23.0479378 90.4890256 22.0428795 91.4684012 20.0647573 89.4808448 18.0281629 91.5260116 17.0672346 90.5466359 19.1027257 88.5014692 17.1235002 86.5283154 18.0987707 85.5489398 20.0790995 87.5220936 22.1013516 85.4913295 23.0909644 86.4563025"></polygon>
                <polygon id="Fill-3" fill="#E95A4F" mask="url(#mask-2)" points="130.485462 88.5014692 132.47903 90.4890256 131.473972 91.4684012 129.495849 89.4808448 127.459255 91.5260116 126.498327 90.5466359 128.533818 88.5014692 126.554592 86.5283154 127.529863 85.5489398 129.510192 87.5220936 131.532444 85.4913295 132.522057 86.4563025"></polygon>
                <path d="M74.7951636,0 L7.74117612e-13,43.5005218 L7.74117612e-13,130.499478 L74.2771342,173.699421 L74.7951636,174 L149.589291,130.499478 L149.589291,43.5005218 L75.313193,0.300579422 L74.7951636,0 Z M2.07211779,129.295073 L2.07211779,44.7049269 L74.7951636,2.40985377 L147.517173,44.7049269 L147.517173,129.295073 L74.7951636,171.590146 L2.07211779,129.295073 Z" id="Fill-1" fill="#E95A4F" mask="url(#mask-2)"></path>
            </g>
        </g>
    </g>
</svg>