<svg width="20" height="20" viewBox="0 0 20 20" fill="none" xmlns="http://www.w3.org/2000/svg">
<path d="M18.2671 19.1646L17.0501 5.61135C17.0169 5.24122 16.7067 4.95772 16.3351 4.95772H13.8254V3.8258C13.8254 1.71625 12.1093 0 9.99981 0C7.89046 0 6.17449 1.71625 6.17449 3.8258V4.95772H3.66304C3.29148 4.95772 2.98127 5.24122 2.94805 5.61135L1.72626 19.2179C1.70826 19.4187 1.77546 19.6177 1.91147 19.7665C2.04748 19.9152 2.23977 19.9999 2.44125 19.9999H17.557C17.5576 19.9999 17.5584 19.9999 17.559 19.9999C17.9555 19.9999 18.2768 19.6785 18.2768 19.282C18.2767 19.2421 18.2735 19.2028 18.2671 19.1646ZM7.61021 3.8258C7.61021 2.50791 8.68221 1.43572 9.99991 1.43572C11.3177 1.43572 12.3898 2.50791 12.3898 3.8258V4.95772H7.61021V3.8258ZM3.22649 18.5643L4.31935 6.39343H6.17449V7.67716C6.17449 8.0736 6.4958 8.39501 6.89235 8.39501C7.28889 8.39501 7.61021 8.0736 7.61021 7.67716V6.39343H12.3898V7.67716C12.3898 8.0736 12.7111 8.39501 13.1077 8.39501C13.5042 8.39501 13.8255 8.0736 13.8255 7.67716V6.39343H15.6789L16.7718 18.5643H3.22649Z" fill="black"/>
</svg>
