<?xml version="1.0" encoding="UTF-8"?>
<svg width="100px" height="103px" viewBox="0 0 100 103" version="1.1" xmlns="http://www.w3.org/2000/svg" xmlns:xlink="http://www.w3.org/1999/xlink">
    <title>Group 66</title>
    <defs>
        <polygon id="path-1" points="0 0.190350538 8.94039775 0.190350538 8.94039775 7.94551364 0 7.94551364"></polygon>
        <polygon id="path-3" points="0.473530572 0.311196198 9.97790927 0.311196198 9.97790927 7.66743917 0.473530572 7.66743917"></polygon>
        <polygon id="path-5" points="0.0742735043 0.214873846 5.43410256 0.214873846 5.43410256 8.71538462 0.0742735043 8.71538462"></polygon>
    </defs>
    <g id="XS-&gt;-300" stroke="none" stroke-width="1" fill="none" fill-rule="evenodd">
        <g id="Shop-Detail" transform="translate(-209.000000, -1946.000000)">
            <g id="Group-66" transform="translate(209.000000, 1946.000000)">
                <g id="Group-3" transform="translate(0.000000, 33.475000)">
                    <mask id="mask-2" fill="white">
                        <use xlink:href="#path-1"></use>
                    </mask>
                    <g id="Clip-2"></g>
                    <path d="M7.645,5.24878636 L7.25874644,6.50273333 L1.40148148,4.71427879 L1.78695157,3.46111212 C2.29777778,1.80374848 3.81145299,1.07728636 5.54293447,1.60633182 C7.26423077,2.13147576 8.1722792,3.53602121 7.645,5.24878636 L7.645,5.24878636 Z M8.7191453,5.51565 C9.44621083,3.15289242 8.34856125,1.1646803 5.90881766,0.419490909 C3.59286325,-0.287463636 1.49549858,0.652801515 0.748062678,3.08266515 L-0.000156695157,5.51252879 L7.97092593,7.94551364 L8.7191453,5.51565 Z" id="Fill-1" fill="#E95A4F" mask="url(#mask-2)"></path>
                </g>
                <polygon id="Fill-4" fill="#E95A4F" points="13.6752137 29.0372797 12.6355939 28.4877219 10.8083072 31.8453054 8.36411247 30.5539271 10.0131069 27.5222826 9.01785085 26.9958293 7.36885647 30.0274739 5.05691612 28.8062344 6.88336573 25.4470006 5.83370129 24.8916667 3.41880342 29.329387 11.2611529 33.475"></polygon>
                <path d="M9.4080126,20.8951803 L10.8483262,19.1809889 C11.5849558,18.3058835 12.5446016,18.1765414 13.3302272,18.7970558 C14.0567197,19.3709088 14.2476352,20.3295135 13.4873523,21.2340893 L12.0301436,22.9654718 L9.4080126,20.8951803 Z M15.4497268,25.6652824 L12.9053136,23.6563875 L14.4182764,21.8578781 L14.5627302,21.6859678 L17.9147327,22.7338022 L18.8034188,21.676963 L15.1118233,20.5841045 C15.4007308,19.5600102 15.0408636,18.5310041 14.1369718,17.817167 C12.8495595,16.8020775 11.1735583,16.9674388 9.99680941,18.3664614 L7.69230769,21.1088403 L14.6573431,26.6083333 L15.4497268,25.6652824 Z" id="Fill-6" fill="#E95A4F"></path>
                <polygon id="Fill-8" fill="#E95A4F" points="25.900207 16.4670917 23.6754854 13.2764909 26.4957265 11.4328457 25.853261 10.5118649 23.0330198 12.3555101 21.4142501 10.0328538 24.7526366 7.84994415 24.0675719 6.86666667 19.6581197 9.74915134 24.8308801 17.1666667"></polygon>
                <polygon id="Fill-10" fill="#E95A4F" points="31.6239316 12.3847888 27.6063692 5.15 26.4957265 5.63869352 30.5124372 12.875"></polygon>
                <polygon id="Fill-12" fill="#E95A4F" points="33.7630496 3.97284231 36.2243471 11.1583333 37.4399408 10.7838 34.9786432 3.59830899 37.6068376 2.78886008 37.2394926 1.71666667 30.7692308 3.71091378 31.1357155 4.78229122"></polygon>
                <path d="M42.9494025,9.32981417 L42.5871814,5.1550842 C42.5308533,4.5037079 42.4698312,3.94033319 42.3908154,3.43946429 L45.1149054,9.03620136 L46.2242563,8.93010598 L47.9367873,2.87033246 C47.9493047,3.41561339 47.9852921,3.98063298 48.0424026,4.63118685 L48.4046236,8.80673926 L49.5726496,8.6957092 L48.8184787,0 L47.6496704,0.0995158246 L45.560054,7.65613894 L42.193667,0.623413182 L41.025641,0.735265679 L41.7813765,9.44166667 L42.9494025,9.32981417 Z" id="Fill-14" fill="#E95A4F"></path>
                <polygon id="Fill-16" fill="#E95A4F" points="58.0486069 8.27366846 54.3285603 7.79695154 54.6612144 5.0501938 58.0185869 5.4801574 58.1540826 4.36225204 54.7958987 3.93228844 55.1115145 1.33413948 58.8307498 1.81169128 58.974359 0.631169865 54.0575689 0 52.991453 8.81216656 57.9066204 9.44166667"></polygon>
                <path d="M64.3380495,5.51089097 C64.8928665,4.75549416 65.1666057,4.35161078 65.2671479,4.17466384 C65.2429297,4.47936171 65.2275181,4.94989775 65.2583413,5.83859988 L65.3574158,8.55548926 L62.7638661,7.63108034 L64.3380495,5.51089097 Z M62.0952968,8.53406519 L65.3985133,9.71080203 L65.464563,11.5881853 L66.6666667,12.0166667 L66.2762398,2.99237261 L65.1049593,2.575 L59.8290598,9.58146413 L61.0106147,10.0012172 L62.0952968,8.53406519 Z" id="Fill-18" fill="#E95A4F"></path>
                <polygon id="Fill-20" fill="#E95A4F" points="71.0534691 14.5916667 74.3397666 7.96832283 76.4331387 9.21900961 76.9230769 8.23068188 71.7690758 5.15 71.2791376 6.13832772 73.3717675 7.3890145 70.0854701 14.0123583"></polygon>
                <polygon id="Fill-22" fill="#E95A4F" points="80.3092342 21.4583333 85.4862119 16.2938929 87.2624793 18.1045018 88.034188 17.334874 83.6611719 12.875 82.8886765 13.6446278 84.6649439 15.4560301 79.4871795 20.6204705"></polygon>
                <polygon id="Fill-24" fill="#E95A4F" points="84.4580611 26.6083333 91.4529915 21.5482166 90.7556141 20.6 83.7606838 25.6576937"></polygon>
                <path d="M93.3875999,26.5964113 L94.2971386,28.5599506 C94.803496,29.6515777 94.532063,30.5920966 93.6820492,31.0627902 C92.8542579,31.5221941 91.9367826,31.2712154 91.4248695,30.1674302 L90.5097752,28.1926012 L93.3875999,26.5964113 Z M86.856541,30.2212733 L89.5430928,28.7292961 L90.5129499,30.8204959 C91.2994706,32.5174246 92.8248923,33.0428298 94.2272962,32.264709 C95.6503353,31.4752984 96.1360575,29.8174495 95.3550923,28.1335473 L93.8518932,24.8916667 L86.3247863,29.0714609 L86.856541,30.2212733 Z" id="Fill-26" fill="#E95A4F"></path>
                <path d="M97.3014143,35.9677216 L97.8627316,38.1667495 C98.1755703,39.3907367 97.7323822,40.2873051 96.7922367,40.5831546 C95.8749024,40.8699843 94.9974876,40.4144843 94.6813902,39.1778694 L94.1159994,36.9644098 L97.3014143,35.9677216 Z M90.0727221,38.2316921 L93.0463191,37.2999464 L93.645112,39.6423892 C94.129849,41.5419596 95.5710252,42.4123706 97.1229984,41.9253013 C98.6977828,41.43282 99.4863971,39.8516486 99.0049187,37.9638039 L98.0761789,34.3333333 L89.7435897,36.9418603 L90.0727221,38.2316921 Z" id="Fill-28" fill="#E95A4F"></path>
                <g id="Group-32" transform="translate(89.743590, 59.225000)">
                    <mask id="mask-4" fill="white">
                        <use xlink:href="#path-3"></use>
                    </mask>
                    <g id="Clip-31"></g>
                    <polygon id="Fill-30" fill="#E95A4F" mask="url(#mask-4)" points="8.90114398 2.13378545 7.86445759 6.04020942 2.90982249 0.57474 1.85577909 0.311196198 0.473530572 5.51925074 1.5512426 5.78892347 2.57609467 1.92693421 7.53783037 7.40619372 8.5808284 7.66743917 9.97806706 2.40345818"></polygon>
                </g>
                <path d="M88.4099565,69.6882743 C87.5525782,71.5080873 88.1979588,73.1779201 89.9831206,74.0617606 L94.6838381,76.3916667 L95.1938844,75.308922 L90.5784353,73.0207217 C89.3103602,72.3927298 88.8824533,71.3115892 89.4136211,70.1855348 C89.9291433,69.0915616 91.0047776,68.7162102 92.3049262,69.3602427 L96.9203752,71.6484431 L97.4358974,70.555272 L92.7351799,68.2253659 C90.9500181,67.3407234 89.2634235,67.8796897 88.4099565,69.6882743" id="Fill-33" fill="#E95A4F"></path>
                <path d="M90.5985502,81.1696223 L89.1956364,82.920375 C88.4777292,83.8142539 87.5227692,83.9630967 86.7247196,83.3553906 C85.9865659,82.7937353 85.7756649,81.8340695 86.5163494,80.9105865 L87.9352917,79.1400978 L90.5985502,81.1696223 Z M84.4647039,76.4954661 L87.04782,78.4641378 L85.5748871,80.3020581 L85.4331616,80.4772156 L82.0629627,79.4912351 L81.1965812,80.5701396 L84.9075961,81.5955922 C84.6410172,82.6292682 85.0231699,83.6555431 85.9410113,84.3553508 C87.246067,85.3511994 88.917247,85.1513718 90.0628615,83.7221523 L92.3076923,80.9204546 L85.2357582,75.5333333 L84.4647039,76.4954661 Z" id="Fill-35" fill="#E95A4F"></path>
                <polygon id="Fill-37" fill="#E95A4F" points="77.1083962 93.5074068 77.0175122 85.8836584 76.3884993 84.975 71.7948718 88.1966071 72.4382348 89.1237114 75.8439926 86.7369793 75.9308905 94.3767675 76.5543228 95.275 81.1965812 92.0205112 80.5532182 91.0918029"></polygon>
                <path d="M66.9607793,90.4463129 C65.086455,91.2419585 64.4971265,92.9121046 65.3202382,94.7431146 L67.4908502,99.5666667 L68.6061909,99.0927489 L66.4753545,94.3567257 C65.8900847,93.056409 66.2643002,91.9682118 67.4242869,91.4753689 C68.5509921,90.9967199 69.6468508,91.4225362 70.2459202,92.7559719 L72.3767566,97.4919952 L73.5042735,97.0125576 L71.3344732,92.1905826 C70.5097381,90.3595726 68.8245509,89.6546101 66.9607793,90.4463129" id="Fill-39" fill="#E95A4F"></path>
                <path d="M60.155832,100.027548 C59.3249203,100.214501 58.7088073,99.8030369 58.5658629,99.0427048 C58.4160389,98.2464843 58.7829549,97.5879749 59.6260971,97.3993524 L61.4224564,96.9962345 L61.9193218,99.6319413 L60.155832,100.027548 Z M57.6638613,95.3103169 C57.5209169,94.5499848 57.9329329,93.8822946 58.7974786,93.6869953 L60.7176721,93.2571698 L61.2229459,95.9412841 L59.2805846,96.3777865 C58.461139,96.5622359 57.8251514,96.1682988 57.6638613,95.3103169 L57.6638613,95.3103169 Z M58.5108256,92.5377336 C56.9606057,92.8857671 56.1931399,94.0291865 56.4637404,95.4638857 C56.6433763,96.3569212 57.1455925,97.0362959 57.99485,97.2541298 C57.4712304,97.7682512 57.2250909,98.5135604 57.3917319,99.3957459 C57.6462799,100.745315 58.7332683,101.548212 60.2720221,101.203517 L63.2478632,100.534992 L61.6097364,91.8416667 L58.5108256,92.5377336 Z" id="Fill-41" fill="#E95A4F"></path>
                <g id="Group-45" transform="translate(47.863248, 93.558333)">
                    <mask id="mask-6" fill="white">
                        <use xlink:href="#path-5"></use>
                    </mask>
                    <g id="Clip-44"></g>
                    <polygon id="Fill-43" fill="#E95A4F" mask="url(#mask-6)" points="0.0742735043 0.290935385 0.0922222222 1.40729692 4.04094017 1.35025077 4.08538462 3.97595846 0.521282051 4.02825077 0.54008547 5.09707385 4.10418803 5.04636615 4.14606838 7.53025077 0.197350427 7.58729692 0.216153846 8.71554308 5.43410256 8.64027385 5.29136752 0.214873846"></polygon>
                </g>
                <path d="M42.1444187,100.827509 L40.1561976,100.4493 C39.1392811,100.257004 38.6233456,99.5269163 38.7803694,98.5837869 C38.9254296,97.7124694 39.6081095,97.0996746 40.6579262,97.2991521 L42.6678316,97.680553 L42.1444187,100.827509 Z M42.8435488,96.6313016 L40.7558792,96.2355383 L40.5562345,96.1972387 L39.9490756,92.9329897 L38.7235418,92.7 L39.4406174,96.2658589 C38.4984742,96.512413 37.8322444,97.2975563 37.6520408,98.3827136 C37.3948208,99.9266691 38.2487315,101.231252 39.8720591,101.539245 L43.0529139,102.141667 L44.4444444,93.7867531 L43.3512593,93.5784987 L42.8435488,96.6313016 Z" id="Fill-46" fill="#E95A4F"></path>
                <polygon id="Fill-48" fill="#E95A4F" points="31.7318257 92.00911 35.2219291 93.2975667 34.2614022 95.7100127 31.1111651 94.5462705 30.7203188 95.5291766 33.8713651 96.6921393 32.9626273 98.9736351 29.4725239 97.684399 29.0598291 98.7218677 33.6714913 100.425 36.7521368 92.6849067 32.1396653 90.9833333"></polygon>
                <polygon id="Fill-50" fill="#E95A4F" points="28.8936928 88.4083333 24.7863248 95.5922827 25.8079625 96.1333333 29.9145299 88.9486132"></polygon>
                <polygon id="Fill-52" fill="#E95A4F" points="23.8890024 84.975 19.6619026 91.1343132 17.7242612 89.5169096 17.0940171 90.4353013 21.8651091 94.4166667 22.4953532 93.498275 20.5584684 91.8817055 24.7863248 85.7232264"></polygon>
                <path d="M17.9322373,79.3048698 C16.6251213,77.7717947 14.8610267,77.7289398 13.3585129,79.0784664 L9.4017094,82.6321926 L10.1801486,83.5442753 L14.0652538,80.0552357 C15.1320622,79.0962552 16.27766,79.1148526 17.087615,80.062513 C17.8739332,80.9842986 17.7888406,82.1559367 16.6960317,83.1383662 L12.8109266,86.6282143 L13.595669,87.55 L17.5532603,83.9962737 C19.0549862,82.6467472 19.2314745,80.8290505 17.9322373,79.3048698" id="Fill-54" fill="#E95A4F"></path>
                <polygon id="Fill-56" fill="#E95A4F" points="13.9359666 73.5928269 7.98640595 76.8294399 11.8701703 69.7677389 11.2745421 68.6666667 3.41880342 72.9402772 4.01947214 74.0523096 9.95895161 70.8215983 6.08610856 77.8765545 6.67417583 78.9666667 14.5299145 74.6938992"></polygon>
                <path d="M5.36140316,67.6010426 C7.77238175,66.8934654 9.02911964,64.765854 8.3751264,62.2486685 C7.75861347,59.8738118 5.82875973,58.7693407 3.68396786,59.3996537 C3.40630757,59.4809844 3.16995212,59.5761414 3.00167316,59.6631652 L4.04653254,63.6849689 L4.99730868,63.4051912 L4.2492322,60.5244575 C5.6834279,60.1796152 6.91339414,61.0197615 7.31343913,62.5601651 C7.77467646,64.3356146 6.81548638,65.8207133 5.03478899,66.3428565 C3.26556517,66.8625598 1.70363043,66.1191971 1.25463156,64.3909194 C0.921133255,63.1091474 1.331122,61.9379852 2.24747744,61.3402045 L1.52540771,60.3495964 C0.269434727,61.1490773 -0.302713746,62.8863013 0.158523593,64.662564 C0.800278364,67.1309511 2.91753368,68.3191928 5.36140316,67.6010426" id="Fill-58" fill="#E95A4F"></path>
                <path d="M1.70940171,50.6371812 C1.70791552,51.5900525 2.46549818,52.355339 3.40391834,52.3583333 C4.35350132,52.3605704 5.12522353,51.5990207 5.12820513,50.6461494 C5.13043284,49.6925307 4.36168738,48.9279916 3.41136022,48.925 C2.47368424,48.9235075 1.71238065,49.6843099 1.70940171,50.6371812" id="Fill-60" fill="#E95A4F"></path>
                <path d="M94.017094,50.6461527 C94.0193362,51.5994362 94.7921375,52.3613153 95.7413878,52.3583333 C96.6802149,52.3560815 97.438126,51.5912118 97.4358974,50.6379283 C97.433659,49.6831495 96.6712808,48.9220181 95.7339427,48.925 C94.7832034,48.9265041 94.0141246,49.6921216 94.017094,50.6461527" id="Fill-62" fill="#E95A4F"></path>
                <path d="M32.5243254,47.1445595 C29.2286031,42.8426005 29.7012706,36.6727493 30.1901253,33.6765405 L43.1981922,51.9151045 C38.3347356,51.6295977 34.7395494,50.0367276 32.5243254,47.1445595 L32.5243254,47.1445595 Z M37.7171924,73.4015105 C37.4581965,73.7644429 37.5439889,74.2677092 37.9082018,74.5257944 C38.0506496,74.626609 38.2141407,74.675 38.3760131,74.675 C38.6293434,74.675 38.8786269,74.5564421 39.0364526,74.3354566 L49.1122008,60.2069006 L59.1887584,74.3354566 C59.346584,74.5564421 59.5958675,74.675 59.8491978,74.675 C60.0110703,74.675 60.1745614,74.626609 60.3170091,74.5257944 C60.681222,74.2677092 60.7670144,73.7644429 60.5080186,73.4015105 L50.105288,58.8156597 L57.459961,48.5043463 C57.9989962,48.6954907 58.5720245,48.8003378 59.1717618,48.8003378 C61.608751,48.8003378 64.3970032,47.2647304 66.3475658,44.5903217 L70.7852979,38.5027352 C71.0483406,38.1422223 70.9682138,37.6381495 70.6064289,37.3768382 C70.2438347,37.1147203 69.7387928,37.1937589 69.4757501,37.5542718 L65.0372086,43.6418583 C63.1667729,46.2065808 60.464313,47.5558829 58.4433359,47.1243965 L67.0662793,35.0331013 C67.3260845,34.6701688 67.2402921,34.1669025 66.8752699,33.9088173 C66.5110569,33.650732 66.006015,33.7362227 65.7470191,34.0991552 L56.9913404,46.3767558 C55.2860146,44.7798531 55.5676726,41.2868302 57.7157195,38.3414319 L62.154261,32.2538454 C62.4173036,31.8933325 62.3363674,31.3892597 61.975392,31.1279484 C61.6127978,30.8658305 61.1069465,30.9456757 60.8447132,31.305382 L56.4061716,37.3929685 C53.7182803,41.0795554 53.596876,45.5976608 56.0516711,47.6946037 L49.1122008,57.4236122 L30.4288871,31.2271499 C30.4070343,31.1965023 30.3746598,31.1795655 30.3495696,31.1529504 C30.3115296,31.1118181 30.2759176,31.0722988 30.229784,31.0400381 C30.1804129,31.0061644 30.1286138,30.985195 30.0751959,30.9626125 C30.0428214,30.9489017 30.0177312,30.9263193 29.9829286,30.9166411 C29.9707882,30.913415 29.9578384,30.9166411 29.9448886,30.9142215 C29.8890426,30.9005107 29.8323872,30.9021238 29.7741132,30.9013173 C29.7239327,30.9013173 29.6745616,30.8964782 29.6268093,30.9053498 C29.5831037,30.913415 29.5426356,30.9319649 29.5005488,30.9480952 C29.4414654,30.9682581 29.3856194,30.988421 29.3330109,31.0222947 C29.3224891,31.0287469 29.3103487,31.0295534 29.3006364,31.0360055 C29.2731181,31.0561684 29.2577402,31.085203 29.2334593,31.1077855 C29.1889444,31.1481113 29.1460482,31.1876306 29.1112456,31.2376346 C29.0796805,31.2836061 29.0594465,31.3328036 29.0384031,31.3828076 C29.0238345,31.4166813 28.9995537,31.4432963 28.989032,31.4803961 C28.8757213,31.8917195 26.2703848,41.6320192 31.2325836,48.1172184 C33.9439465,51.6602453 38.373585,53.4853921 44.3790515,53.5708829 L48.1199229,58.8156597 L37.7171924,73.4015105 Z" id="Fill-64" fill="#E95A4F"></path>
            </g>
        </g>
    </g>
</svg>