<?xml version="1.0" encoding="UTF-8"?>
<svg width="120px" height="127px" viewBox="0 0 120 127" version="1.1" xmlns="http://www.w3.org/2000/svg" xmlns:xlink="http://www.w3.org/1999/xlink">
    <title>Bestseller Icon</title>
    <defs>
        <polygon id="path-1" points="0.9795 0.3191 15.1175 0.3191 15.1175 12 0.9795 12"></polygon>
        <polygon id="path-3" points="0 0.232128448 4.59298859 0.232128448 4.59298859 4.82446165 0 4.82446165"></polygon>
    </defs>
    <g id="XXL-&gt;-1820" stroke="none" stroke-width="1" fill="none" fill-rule="evenodd">
        <g id="Shop-Mega-Menu" transform="translate(-1135.000000, -237.000000)">
            <g id="Mega-Menue" transform="translate(0.000000, 130.000000)">
                <g id="Bestseller-Icon" transform="translate(1135.000000, 107.000000)">
                    <g id="Group-43">
                        <path d="M20.7786,23.7471 C20.0086,23.0341 19.0566,23.1351 18.3136,23.9381 L16.5506,25.8431 L18.9616,28.0741 L20.7036,26.1911 C21.4876,25.3441 21.4616,24.3791 20.7786,23.7471 L20.7786,23.7471 Z M15.6036,24.9671 L17.2346,23.2051 C17.9986,22.3801 17.9306,21.4591 17.2156,20.7971 C16.5326,20.1651 15.5906,20.2331 14.8376,21.0481 L13.2376,22.7761 L15.6036,24.9671 Z M21.9476,22.6841 C23.2356,23.8751 23.2166,25.5741 21.8106,27.0941 L18.9996,30.1321 L11.1946,22.9081 L13.8936,19.9911 C15.2896,18.4831 17.0076,18.4381 18.2186,19.5591 C19.0106,20.2921 19.2686,21.2051 19.0706,22.1051 C20.1256,21.6711 21.1336,21.9511 21.9476,22.6841 L21.9476,22.6841 Z" id="Fill-1" fill="#E95A4F"></path>
                        <polygon id="Fill-3" fill="#E95A4F" points="20.115 14.1319 25.018 10.4949 25.866 11.6399 22.157 14.3919 24.025 16.9089 27.373 14.4249 28.177 15.5089 24.829 17.9929 26.803 20.6549 30.513 17.9029 31.353 19.0349 26.451 22.6719"></polygon>
                        <path d="M35.4383,8.0938 C34.8433,7.1818 33.7783,6.9848 32.6733,7.5238 C31.5273,8.0828 31.1623,9.0118 31.5703,9.8478 C31.9523,10.6298 32.7433,10.7448 33.7923,10.5328 L35.4523,10.2078 C37.3003,9.8228 38.4883,10.5118 39.0743,11.7118 C39.8963,13.3978 39.1143,15.1818 37.0513,16.1878 C34.9743,17.1998 33.0813,16.6728 32.1633,15.1668 L33.4063,14.2938 C33.9203,15.2448 35.1113,15.5658 36.4463,14.9138 C37.6593,14.3218 38.0913,13.3598 37.6573,12.4698 C37.2823,11.7008 36.5593,11.5538 35.6313,11.7388 L34.0313,12.0518 C32.0013,12.4758 30.7853,11.8998 30.1673,10.6318 C29.3573,8.9748 30.0933,7.2298 32.1023,6.2498 C33.9363,5.3548 35.6433,5.7068 36.6033,7.0918 L35.4383,8.0938 Z" id="Fill-5" fill="#E95A4F"></path>
                        <polygon id="Fill-7" fill="#E95A4F" points="47.5579 2.5801 44.4579 3.4191 46.8769 12.3571 45.4419 12.7451 43.0239 3.8071 39.9239 4.6451 39.5629 3.3131 47.1979 1.2471"></polygon>
                        <path d="M57.5896,2.9649 C57.3746,1.8979 56.4606,1.3189 55.2336,1.4089 C53.9616,1.5039 53.2786,2.2319 53.3476,3.1589 C53.4116,4.0269 54.1036,4.4269 55.1546,4.6199 L56.8186,4.9329 C58.6766,5.2609 59.5246,6.3409 59.6236,7.6729 C59.7616,9.5429 58.3746,10.9089 56.0856,11.0789 C53.7816,11.2489 52.2186,10.0559 51.9246,8.3189 L53.4026,7.9679 C53.5276,9.0419 54.5146,9.7809 55.9956,9.6709 C57.3426,9.5709 58.0996,8.8379 58.0266,7.8519 C57.9636,6.9989 57.3466,6.5929 56.4166,6.4209 L54.8146,6.1179 C52.7726,5.7589 51.8576,4.7739 51.7536,3.3669 C51.6166,1.5279 52.9456,0.1809 55.1746,0.0159 C57.2096,-0.1361 58.6646,0.8239 59.0416,2.4659 L57.5896,2.9649 Z" id="Fill-9" fill="#E95A4F"></path>
                        <polygon id="Fill-11" fill="#E95A4F" points="64.0447 0.167 70.1137 0.821 69.9607 2.238 65.3677 1.742 65.0307 4.858 69.1767 5.307 69.0317 6.648 64.8867 6.2 64.5307 9.496 69.1237 9.991 68.9727 11.394 62.9027 10.738"></polygon>
                        <polygon id="Fill-13" fill="#E95A4F" points="78.0574 12.336 77.6664 13.691 71.9434 12.041 74.8904 1.82 76.3324 2.236 73.7754 11.102"></polygon>
                        <polygon id="Fill-15" fill="#E95A4F" points="86.406 16.1426 85.791 17.4116 80.43 14.8116 85.073 5.2386 86.423 5.8926 82.396 14.1976"></polygon>
                        <polygon id="Fill-17" fill="#E95A4F" points="94.5032 10.3184 99.4642 13.8804 98.6332 15.0384 94.8782 12.3424 93.0492 14.8904 96.4382 17.3234 95.6502 18.4204 92.2622 15.9874 90.3282 18.6814 94.0822 21.3774 93.2592 22.5224 88.2982 18.9614"></polygon>
                        <path d="M100.3557,21.9629 L102.2317,23.9449 C103.2117,24.9809 104.4017,24.9069 105.2087,24.1439 C106.0797,23.3189 106.0687,22.1729 105.1207,21.1709 L103.2647,19.2099 L100.3557,21.9629 Z M102.7717,25.9549 L100.8847,30.1149 L99.7397,28.9049 L101.5207,25.1359 L101.3347,24.9399 L99.3867,22.8809 L96.5647,25.5509 L95.5447,24.4719 L103.2677,17.1629 L106.2367,20.2999 C107.7527,21.9009 107.6977,23.8949 106.2707,25.2449 C105.2687,26.1929 103.9667,26.4549 102.7717,25.9549 L102.7717,25.9549 Z" id="Fill-19" fill="#E95A4F"></path>
                        <path d="M100.6087,98.709 C99.0757,100.418 99.3707,102.539 101.0797,104.072 C102.7987,105.616 104.9437,105.586 106.4277,103.932 L107.5497,102.682 L101.7317,97.459 L100.6087,98.709 Z M109.6027,102.507 L107.4277,104.93 C105.2527,107.354 102.3177,107.32 100.0157,105.256 C97.5927,103.08 97.3937,100.18 99.5087,97.822 L101.6837,95.398 L109.6027,102.507 Z" id="Fill-21" fill="#E95A4F"></path>
                        <polygon id="Fill-23" fill="#E95A4F" points="100.0432 112.1475 95.1652 115.8145 94.3102 114.6755 98.0012 111.9005 96.1172 109.3945 92.7862 111.9005 91.9752 110.8215 95.3072 108.3165 93.3152 105.6685 89.6242 108.4435 88.7772 107.3165 93.6552 103.6495"></polygon>
                        <path d="M87.1946,114.253 L84.7396,115.448 C83.4586,116.072 83.1716,117.23 83.6576,118.228 C84.1816,119.307 85.2786,119.641 86.5196,119.036 L88.9476,117.854 L87.1946,114.253 Z M82.6616,115.359 L79.2576,112.311 L80.7556,111.582 L83.8186,114.412 L84.0606,114.294 L86.6096,113.053 L84.9096,109.56 L86.2446,108.909 L90.8996,118.472 L87.0156,120.363 C85.0336,121.328 83.1476,120.678 82.2886,118.91 C81.6836,117.67 81.8246,116.35 82.6616,115.359 L82.6616,115.359 Z" id="Fill-25" fill="#E95A4F"></path>
                        <g id="Group-29" transform="translate(58.000000, 114.835000)">
                            <mask id="mask-2" fill="white">
                                <use xlink:href="#path-1"></use>
                            </mask>
                            <g id="Clip-28"></g>
                            <polygon id="Fill-27" fill="#E95A4F" mask="url(#mask-2)" points="13.4905 10.7881 10.7125 2.9501 8.7955 11.1671 7.2885 11.3131 3.8305 3.6311 2.6075 11.8431 0.9795 12.0001 2.7765 1.1421 4.2685 0.9971 7.8135 8.8061 9.7935 0.4621 11.2565 0.3191 15.1175 10.6301"></polygon>
                        </g>
                        <path d="M46.0354,119.6231 C45.6354,121.8831 46.8634,123.8981 49.0794,124.2901 C51.2954,124.6821 53.1394,123.2101 53.5394,120.9501 C53.9444,118.6601 52.7164,116.6451 50.5004,116.2541 C48.2844,115.8611 46.4394,117.3341 46.0354,119.6231 M55.1384,121.2171 C54.5954,124.2891 51.9824,126.3111 48.8064,125.7501 C45.6304,125.1881 43.8874,122.3821 44.4254,119.3391 C44.9734,116.2361 47.5974,114.2321 50.7594,114.7911 C53.9344,115.3521 55.6834,118.1291 55.1384,121.2171" id="Fill-30" fill="#E95A4F"></path>
                        <path d="M40.7337,118.1192 C39.3857,121.1132 36.4957,122.3112 33.6937,121.0512 C31.5747,120.0982 30.3927,118.1192 30.7127,116.0922 L32.2877,116.2092 C32.0157,117.7642 32.8607,119.0642 34.2827,119.7052 C36.2517,120.5912 38.2727,119.6412 39.2517,117.4692 C40.2357,115.2812 39.6037,113.1392 37.6487,112.2602 C36.2267,111.6192 34.6477,111.9122 33.6967,113.0782 L32.5577,111.9902 C33.8417,110.4162 36.1257,109.9452 38.2857,110.9182 C41.0877,112.1802 42.0747,115.1392 40.7337,118.1192" id="Fill-32" fill="#E95A4F"></path>
                        <polygon id="Fill-34" fill="#E95A4F" points="18.3636 111.0205 24.8146 102.5725 26.0076 103.4825 23.2666 107.0685 27.3896 110.2165 30.1296 106.6305 31.3086 107.5315 24.8566 115.9805 23.6776 115.0795 26.5346 111.3375 22.4216 108.1765 19.5546 111.9295"></polygon>
                        <polygon id="Fill-36" fill="#E95A4F" points="14.3089 107.0723 10.2719 102.4933 11.3409 101.5513 14.3959 105.0153 16.7469 102.9433 13.9899 99.8153 15.0019 98.9223 17.7599 102.0503 20.2459 99.8583 17.1919 96.3923 18.2489 95.4613 22.2869 100.0393"></polygon>
                        <g id="Group-40" transform="translate(0.000000, 63.835000)">
                            <mask id="mask-4" fill="white">
                                <use xlink:href="#path-3"></use>
                            </mask>
                            <g id="Clip-39"></g>
                            <path d="M2.4329,4.8193 C1.1749,4.9033 0.0889,3.9523 0.0049,2.6783 C-0.0791,1.4063 0.8719,0.3203 2.1299,0.2373 C3.4039,0.1533 4.5039,1.1023 4.5879,2.3763 C4.6719,3.6493 3.7059,4.7353 2.4329,4.8193" id="Fill-38" fill="#E95A4F" mask="url(#mask-4)"></path>
                        </g>
                        <path d="M117.7093,64.1075 C118.9673,64.1915 119.9173,65.2785 119.8323,66.5505 C119.7463,67.8245 118.6603,68.7745 117.4023,68.6895 C116.1293,68.6055 115.1643,67.5175 115.2493,66.2445 C115.3343,64.9715 116.4363,64.0225 117.7093,64.1075" id="Fill-41" fill="#E95A4F"></path>
                    </g>
                    <polygon id="Stroke-1" stroke="#E95B4F" stroke-width="2" points="60.388 84.465 55.08 72.426 42 73.849 49.772 63.233 42 52.616 55.08 54.039 60.388 42 65.696 54.039 78.776 52.616 71.004 63.233 78.776 73.849 65.696 72.426"></polygon>
                </g>
            </g>
        </g>
    </g>
</svg>