<?xml version="1.0" encoding="UTF-8"?>
<svg width="50px" height="30px" viewBox="0 0 50 30" version="1.1" xmlns="http://www.w3.org/2000/svg" xmlns:xlink="http://www.w3.org/1999/xlink">
    <!-- Generator: Sketch 63.1 (92452) - https://sketch.com -->
    <title>001-mastercard</title>
    <desc>Created with Sketch.</desc>
    <g id="Symbols" stroke="none" stroke-width="1" fill="none" fill-rule="evenodd">
        <g id="footer" transform="translate(-1296.000000, -1163.000000)" fill-rule="nonzero">
            <g id="001-mastercard" transform="translate(1296.000000, 1163.000000)">
                <path d="M50,15 C50,23.2105263 43.3333333,29.9210526 35,29.9210526 C26.7460317,29.9210526 20,23.2105263 20,15 L20,15 C20,6.78947368 26.6666667,0.0789473684 34.9206349,0.0789473684 C43.3333333,0.0789473684 50,6.78947368 50,15 L50,15 Z" id="Path" fill="#FFB600"></path>
                <path d="M35,0.0789473684 C43.2539683,0.0789473684 50,6.78947368 50,15 L50,15 C50,23.2105263 43.3333333,29.9210526 35,29.9210526 C26.7460317,29.9210526 20,23.2105263 20,15" id="Path" fill="#F7981D"></path>
                <path d="M35,0.0789473684 C43.2539683,0.0789473684 50,6.78947368 50,15 L50,15 C50,23.2105263 43.3333333,29.9210526 35,29.9210526" id="Path" fill="#FF8500"></path>
                <path d="M14.8412698,0.0789473684 C6.66666667,0.157894737 0,6.78947368 0,15 C0,23.2105263 6.66666667,29.9210526 15,29.9210526 C18.8888889,29.9210526 22.3809524,28.4210526 25.0793651,26.0526316 L25.0793651,26.0526316 L25.0793651,26.0526316 C25.6349206,25.5789474 26.1111111,25.0263158 26.5873016,24.4736842 L23.4920635,24.4736842 C23.0952381,24 22.6984127,23.4473684 22.3809524,22.9736842 L27.6984127,22.9736842 C28.015873,22.5 28.3333333,21.9473684 28.5714286,21.3947368 L21.5079365,21.3947368 C21.2698413,20.9210526 21.031746,20.3684211 20.8730159,19.8157895 L29.1269841,19.8157895 C29.6031746,18.3157895 29.9206349,16.7368421 29.9206349,15.0789474 C29.9206349,13.9736842 29.7619048,12.9473684 29.6031746,11.9210526 L20.3968254,11.9210526 C20.4761905,11.3684211 20.6349206,10.8947368 20.7936508,10.3421053 L29.047619,10.3421053 C28.8888889,9.78947368 28.6507937,9.23684211 28.4126984,8.76315789 L21.4285714,8.76315789 C21.6666667,8.21052632 21.984127,7.73684211 22.3015873,7.18421053 L27.6190476,7.18421053 C27.3015873,6.63157895 26.9047619,6.07894737 26.4285714,5.60526316 L23.4920635,5.60526316 C23.968254,5.05263158 24.4444444,4.57894737 25,4.10526316 C22.3809524,1.65789474 18.8095238,0.236842105 14.9206349,0.236842105 C14.9206349,0.0789473684 14.9206349,0.0789473684 14.8412698,0.0789473684 Z" id="Path" fill="#FF5050"></path>
                <path d="M0,15 C0,23.2105263 6.66666667,29.9210526 15,29.9210526 C18.8888889,29.9210526 22.3809524,28.4210526 25.0793651,26.0526316 L25.0793651,26.0526316 L25.0793651,26.0526316 C25.6349206,25.5789474 26.1111111,25.0263158 26.5873016,24.4736842 L23.4920635,24.4736842 C23.0952381,24 22.6984127,23.4473684 22.3809524,22.9736842 L27.6984127,22.9736842 C28.015873,22.5 28.3333333,21.9473684 28.5714286,21.3947368 L21.5079365,21.3947368 C21.2698413,20.9210526 21.031746,20.3684211 20.8730159,19.8157895 L29.1269841,19.8157895 C29.6031746,18.3157895 29.9206349,16.7368421 29.9206349,15.0789474 C29.9206349,13.9736842 29.7619048,12.9473684 29.6031746,11.9210526 L20.3968254,11.9210526 C20.4761905,11.3684211 20.6349206,10.8947368 20.7936508,10.3421053 L29.047619,10.3421053 C28.8888889,9.78947368 28.6507937,9.23684211 28.4126984,8.76315789 L21.4285714,8.76315789 C21.6666667,8.21052632 21.984127,7.73684211 22.3015873,7.18421053 L27.6190476,7.18421053 C27.3015873,6.63157895 26.9047619,6.07894737 26.4285714,5.60526316 L23.4920635,5.60526316 C23.968254,5.05263158 24.4444444,4.57894737 25,4.10526316 C22.3809524,1.65789474 18.8095238,0.236842105 14.9206349,0.236842105 L14.8412698,0.236842105" id="Path" fill="#E52836"></path>
                <path d="M15,29.9210526 C18.8888889,29.9210526 22.3809524,28.4210526 25.0793651,26.0526316 L25.0793651,26.0526316 L25.0793651,26.0526316 C25.6349206,25.5789474 26.1111111,25.0263158 26.5873016,24.4736842 L23.4920635,24.4736842 C23.0952381,24 22.6984127,23.4473684 22.3809524,22.9736842 L27.6984127,22.9736842 C28.015873,22.5 28.3333333,21.9473684 28.5714286,21.3947368 L21.5079365,21.3947368 C21.2698413,20.9210526 21.031746,20.3684211 20.8730159,19.8157895 L29.1269841,19.8157895 C29.6031746,18.3157895 29.9206349,16.7368421 29.9206349,15.0789474 C29.9206349,13.9736842 29.7619048,12.9473684 29.6031746,11.9210526 L20.3968254,11.9210526 C20.4761905,11.3684211 20.6349206,10.8947368 20.7936508,10.3421053 L29.047619,10.3421053 C28.8888889,9.78947368 28.6507937,9.23684211 28.4126984,8.76315789 L21.4285714,8.76315789 C21.6666667,8.21052632 21.984127,7.73684211 22.3015873,7.18421053 L27.6190476,7.18421053 C27.3015873,6.63157895 26.9047619,6.07894737 26.4285714,5.60526316 L23.4920635,5.60526316 C23.968254,5.05263158 24.4444444,4.57894737 25,4.10526316 C22.3809524,1.65789474 18.8095238,0.236842105 14.9206349,0.236842105 L14.8412698,0.236842105" id="Path" fill="#CB2026"></path>
                <g id="Group" transform="translate(1.388889, 11.052632)" fill="#FFFFFF">
                    <path d="M18.9285714,7.73684211 L19.1666667,6.39473684 C19.0873016,6.39473684 18.9285714,6.47368421 18.7698413,6.47368421 C18.2142857,6.47368421 18.1349206,6.15789474 18.2142857,6 L18.6904762,3.23684211 L19.5634921,3.23684211 L19.8015873,1.73684211 L19.0079365,1.73684211 L19.1666667,0.789473684 L17.5793651,0.789473684 C17.5793651,0.789473684 16.6269841,6 16.6269841,6.63157895 C16.6269841,7.57894737 17.1825397,7.97368421 17.8968254,7.97368421 C18.3730159,7.97368421 18.7698413,7.81578947 18.9285714,7.73684211 Z" id="Path"></path>
                    <path d="M19.484127,5.21052632 C19.484127,7.42105263 20.9920635,7.97368421 22.2619048,7.97368421 C23.452381,7.97368421 23.9285714,7.73684211 23.9285714,7.73684211 L24.2460317,6.23684211 C24.2460317,6.23684211 23.3730159,6.63157895 22.5793651,6.63157895 C20.8333333,6.63157895 21.1507937,5.36842105 21.1507937,5.36842105 L24.4047619,5.36842105 C24.4047619,5.36842105 24.6428571,4.34210526 24.6428571,3.94736842 C24.6428571,2.92105263 24.0873016,1.65789474 22.3412698,1.65789474 C20.6746032,1.5 19.484127,3.23684211 19.484127,5.21052632 Z M22.2619048,2.92105263 C23.1349206,2.92105263 22.9761905,3.94736842 22.9761905,4.02631579 L21.2301587,4.02631579 C21.2301587,3.94736842 21.3888889,2.92105263 22.2619048,2.92105263 Z" id="Shape"></path>
                    <path d="M32.3412698,7.73684211 L32.6587302,6 C32.6587302,6 31.8650794,6.39473684 31.3095238,6.39473684 C30.1984127,6.39473684 29.7222222,5.52631579 29.7222222,4.57894737 C29.7222222,2.68421053 30.6746032,1.65789474 31.7857143,1.65789474 C32.5793651,1.65789474 33.2142857,2.13157895 33.2142857,2.13157895 L33.452381,0.473684211 C33.452381,0.473684211 32.5,0.0789473684 31.6269841,0.0789473684 C29.8015873,0.0789473684 27.9761905,1.65789474 27.9761905,4.65789474 C27.9761905,6.63157895 28.9285714,7.97368421 30.8333333,7.97368421 C31.468254,7.97368421 32.3412698,7.73684211 32.3412698,7.73684211 Z" id="Path"></path>
                    <path d="M10.1984127,1.5 C9.08730159,1.5 8.29365079,1.81578947 8.29365079,1.81578947 L8.05555556,3.15789474 C8.05555556,3.15789474 8.76984127,2.84210526 9.8015873,2.84210526 C10.3571429,2.84210526 10.8333333,2.92105263 10.8333333,3.39473684 C10.8333333,3.71052632 10.7539683,3.78947368 10.7539683,3.78947368 C10.7539683,3.78947368 10.2777778,3.78947368 10.0396825,3.78947368 C8.69047619,3.78947368 7.18253968,4.34210526 7.18253968,6.15789474 C7.18253968,7.57894737 8.13492063,7.89473684 8.69047619,7.89473684 C9.8015873,7.89473684 10.2777778,7.18421053 10.3571429,7.18421053 L10.2777778,7.81578947 L11.7063492,7.81578947 L12.3412698,3.47368421 C12.3412698,1.57894737 10.7539683,1.5 10.1984127,1.5 Z M10.515873,5.05263158 C10.515873,5.28947368 10.3571429,6.55263158 9.4047619,6.55263158 C8.92857143,6.55263158 8.76984127,6.15789474 8.76984127,5.92105263 C8.76984127,5.52631579 9.00793651,4.97368421 10.1984127,4.97368421 C10.4365079,5.05263158 10.515873,5.05263158 10.515873,5.05263158 Z" id="Shape"></path>
                    <path d="M13.8492063,7.89473684 C14.2460317,7.89473684 16.2301587,7.97368421 16.2301587,5.84210526 C16.2301587,3.86842105 14.3253968,4.26315789 14.3253968,3.47368421 C14.3253968,3.07894737 14.6428571,2.92105263 15.1984127,2.92105263 C15.4365079,2.92105263 16.3095238,3 16.3095238,3 L16.547619,1.57894737 C16.547619,1.57894737 15.9920635,1.42105263 15.0396825,1.42105263 C13.8492063,1.42105263 12.6587302,1.89473684 12.6587302,3.47368421 C12.6587302,5.28947368 14.6428571,5.13157895 14.6428571,5.84210526 C14.6428571,6.31578947 14.0873016,6.39473684 13.6904762,6.39473684 C12.9761905,6.39473684 12.2619048,6.15789474 12.2619048,6.15789474 L12.0238095,7.57894737 C12.1031746,7.73684211 12.5,7.89473684 13.8492063,7.89473684 Z" id="Path"></path>
                    <path d="M45.515873,0.236842105 L45.1984127,2.36842105 C45.1984127,2.36842105 44.5634921,1.57894737 43.6904762,1.57894737 C42.2619048,1.57894737 40.9920635,3.31578947 40.9920635,5.36842105 C40.9920635,6.63157895 41.6269841,7.97368421 42.9761905,7.97368421 C43.9285714,7.97368421 44.484127,7.34210526 44.484127,7.34210526 L44.4047619,7.89473684 L45.9920635,7.89473684 L47.1825397,0.315789474 L45.515873,0.236842105 Z M44.8015873,4.42105263 C44.8015873,5.28947368 44.4047619,6.39473684 43.531746,6.39473684 C42.9761905,6.39473684 42.6587302,5.92105263 42.6587302,5.13157895 C42.6587302,3.86842105 43.2142857,3.07894737 43.9285714,3.07894737 C44.484127,3.07894737 44.8015873,3.47368421 44.8015873,4.42105263 Z" id="Shape"></path>
                    <polygon id="Path" points="1.54761905 7.81578947 2.5 2.13157895 2.65873016 7.81578947 3.76984127 7.81578947 5.83333333 2.13157895 4.96031746 7.81578947 6.62698413 7.81578947 7.8968254 0.236842105 5.27777778 0.236842105 3.69047619 4.89473684 3.61111111 0.236842105 1.30952381 0.236842105 0.0396825397 7.81578947"></polygon>
                    <path d="M26.1507937,7.81578947 C26.6269841,5.21052632 26.7063492,3.07894737 27.8174603,3.47368421 C27.9761905,2.44736842 28.2142857,2.05263158 28.3730159,1.65789474 C28.3730159,1.65789474 28.2936508,1.65789474 28.0555556,1.65789474 C27.3412698,1.65789474 26.7857143,2.60526316 26.7857143,2.60526316 L26.9444444,1.73684211 L25.4365079,1.73684211 L24.4047619,7.89473684 L26.1507937,7.89473684 L26.1507937,7.81578947 Z" id="Path"></path>
                    <path d="M35.9920635,1.5 C34.8809524,1.5 34.0873016,1.81578947 34.0873016,1.81578947 L33.8492063,3.15789474 C33.8492063,3.15789474 34.5634921,2.84210526 35.5952381,2.84210526 C36.1507937,2.84210526 36.6269841,2.92105263 36.6269841,3.39473684 C36.6269841,3.71052632 36.547619,3.78947368 36.547619,3.78947368 C36.547619,3.78947368 36.0714286,3.78947368 35.8333333,3.78947368 C34.484127,3.78947368 32.9761905,4.34210526 32.9761905,6.15789474 C32.9761905,7.57894737 33.9285714,7.89473684 34.484127,7.89473684 C35.5952381,7.89473684 36.0714286,7.18421053 36.1507937,7.18421053 L36.0714286,7.81578947 L37.5,7.81578947 L38.1349206,3.47368421 C38.2142857,1.57894737 36.547619,1.5 35.9920635,1.5 Z M36.3888889,5.05263158 C36.3888889,5.28947368 36.2301587,6.55263158 35.2777778,6.55263158 C34.8015873,6.55263158 34.6428571,6.15789474 34.6428571,5.92105263 C34.6428571,5.52631579 34.8809524,4.97368421 36.0714286,4.97368421 C36.3095238,5.05263158 36.3095238,5.05263158 36.3888889,5.05263158 Z" id="Shape"></path>
                    <path d="M39.484127,7.81578947 C39.9603175,5.21052632 40.0396825,3.07894737 41.1507937,3.47368421 C41.3095238,2.44736842 41.547619,2.05263158 41.7063492,1.65789474 C41.7063492,1.65789474 41.6269841,1.65789474 41.3888889,1.65789474 C40.6746032,1.65789474 40.1190476,2.60526316 40.1190476,2.60526316 L40.2777778,1.73684211 L38.7698413,1.73684211 L37.7380952,7.89473684 L39.484127,7.89473684 L39.484127,7.81578947 Z" id="Path"></path>
                </g>
                <g id="Group" transform="translate(1.388889, 11.052632)" fill="#DCE5E5">
                    <path d="M16.468254,6.63157895 C16.468254,7.57894737 17.0238095,7.97368421 17.7380952,7.97368421 C18.2936508,7.97368421 18.7698413,7.81578947 18.9285714,7.73684211 L19.1666667,6.39473684 C19.0873016,6.39473684 18.9285714,6.47368421 18.7698413,6.47368421 C18.2142857,6.47368421 18.1349206,6.15789474 18.2142857,6 L18.6904762,3.23684211 L19.5634921,3.23684211 L19.8015873,1.73684211 L19.0079365,1.73684211 L19.1666667,0.789473684" id="Path"></path>
                    <path d="M20.2777778,5.21052632 C20.2777778,7.42105263 20.9920635,7.97368421 22.2619048,7.97368421 C23.452381,7.97368421 23.9285714,7.73684211 23.9285714,7.73684211 L24.2460317,6.23684211 C24.2460317,6.23684211 23.3730159,6.63157895 22.5793651,6.63157895 C20.8333333,6.63157895 21.1507937,5.36842105 21.1507937,5.36842105 L24.4047619,5.36842105 C24.4047619,5.36842105 24.6428571,4.34210526 24.6428571,3.94736842 C24.6428571,2.92105263 24.0873016,1.65789474 22.3412698,1.65789474 C20.6746032,1.5 20.2777778,3.23684211 20.2777778,5.21052632 Z M22.2619048,2.92105263 C23.1349206,2.92105263 23.2936508,3.94736842 23.2936508,4.02631579 L21.2301587,4.02631579 C21.2301587,3.94736842 21.3888889,2.92105263 22.2619048,2.92105263 Z" id="Shape"></path>
                    <path d="M32.3412698,7.73684211 L32.6587302,6 C32.6587302,6 31.8650794,6.39473684 31.3095238,6.39473684 C30.1984127,6.39473684 29.7222222,5.52631579 29.7222222,4.57894737 C29.7222222,2.68421053 30.6746032,1.65789474 31.7857143,1.65789474 C32.5793651,1.65789474 33.2142857,2.13157895 33.2142857,2.13157895 L33.452381,0.473684211 C33.452381,0.473684211 32.5,0.0789473684 31.6269841,0.0789473684 C29.8015873,0.0789473684 28.7698413,1.65789474 28.7698413,4.65789474 C28.7698413,6.63157895 28.9285714,7.97368421 30.8333333,7.97368421 C31.468254,7.97368421 32.3412698,7.73684211 32.3412698,7.73684211 Z" id="Path"></path>
                    <path d="M8.05555556,3.23684211 C8.05555556,3.23684211 8.76984127,2.92105263 9.8015873,2.92105263 C10.3571429,2.92105263 10.8333333,3 10.8333333,3.47368421 C10.8333333,3.78947368 10.7539683,3.86842105 10.7539683,3.86842105 C10.7539683,3.86842105 10.2777778,3.86842105 10.0396825,3.86842105 C8.69047619,3.86842105 7.18253968,4.42105263 7.18253968,6.23684211 C7.18253968,7.65789474 8.13492063,7.97368421 8.69047619,7.97368421 C9.8015873,7.97368421 10.2777778,7.26315789 10.3571429,7.26315789 L10.2777778,7.89473684 L11.7063492,7.89473684 L12.3412698,3.55263158 C12.3412698,1.73684211 10.7539683,1.65789474 10.1190476,1.65789474 M11.3095238,5.05263158 C11.3095238,5.28947368 10.3571429,6.55263158 9.4047619,6.55263158 C8.92857143,6.55263158 8.76984127,6.15789474 8.76984127,5.92105263 C8.76984127,5.52631579 9.00793651,4.97368421 10.1984127,4.97368421 C10.4365079,5.05263158 11.3095238,5.05263158 11.3095238,5.05263158 Z" id="Shape"></path>
                    <path d="M12.1031746,7.73684211 C12.1031746,7.73684211 12.5793651,7.89473684 13.9285714,7.89473684 C14.3253968,7.89473684 16.3095238,7.97368421 16.3095238,5.84210526 C16.3095238,3.86842105 14.4047619,4.26315789 14.4047619,3.47368421 C14.4047619,3.07894737 14.7222222,2.92105263 15.2777778,2.92105263 C15.515873,2.92105263 16.3888889,3 16.3888889,3 L16.6269841,1.57894737 C16.6269841,1.57894737 16.0714286,1.42105263 15.1190476,1.42105263 C13.9285714,1.42105263 13.531746,1.89473684 13.531746,3.47368421 C13.531746,5.28947368 14.7222222,5.13157895 14.7222222,5.84210526 C14.7222222,6.31578947 14.1666667,6.39473684 13.7698413,6.39473684" id="Path"></path>
                    <path d="M45.1984127,2.36842105 C45.1984127,2.36842105 44.5634921,1.57894737 43.6904762,1.57894737 C42.2619048,1.57894737 41.7857143,3.31578947 41.7857143,5.36842105 C41.7857143,6.63157895 41.6269841,7.97368421 42.9761905,7.97368421 C43.9285714,7.97368421 44.484127,7.34210526 44.484127,7.34210526 L44.4047619,7.89473684 L45.9920635,7.89473684 L47.1825397,0.315789474 M45.1190476,4.42105263 C45.1190476,5.28947368 44.4047619,6.39473684 43.531746,6.39473684 C42.9761905,6.39473684 42.6587302,5.92105263 42.6587302,5.13157895 C42.6587302,3.86842105 43.2142857,3.07894737 43.9285714,3.07894737 C44.484127,3.07894737 45.1190476,3.47368421 45.1190476,4.42105263 Z" id="Shape"></path>
                    <polygon id="Path" points="1.54761905 7.81578947 2.5 2.13157895 2.65873016 7.81578947 3.76984127 7.81578947 5.83333333 2.13157895 4.96031746 7.81578947 6.62698413 7.81578947 7.8968254 0.236842105 5.91269841 0.236842105 3.69047619 4.89473684 3.61111111 0.236842105 2.73809524 0.236842105 0.0396825397 7.81578947"></polygon>
                    <path d="M24.484127,7.81578947 L26.1507937,7.81578947 C26.6269841,5.21052632 26.7063492,3.07894737 27.8174603,3.47368421 C27.9761905,2.44736842 28.2142857,2.05263158 28.3730159,1.65789474 C28.3730159,1.65789474 28.2936508,1.65789474 28.0555556,1.65789474 C27.3412698,1.65789474 26.7857143,2.60526316 26.7857143,2.60526316 L26.9444444,1.73684211" id="Path"></path>
                    <path d="M33.8492063,3.23684211 C33.8492063,3.23684211 34.5634921,2.92105263 35.5952381,2.92105263 C36.1507937,2.92105263 36.6269841,3 36.6269841,3.47368421 C36.6269841,3.78947368 36.547619,3.86842105 36.547619,3.86842105 C36.547619,3.86842105 36.0714286,3.86842105 35.8333333,3.86842105 C34.484127,3.86842105 32.9761905,4.42105263 32.9761905,6.23684211 C32.9761905,7.65789474 33.9285714,7.97368421 34.484127,7.97368421 C35.5952381,7.97368421 36.0714286,7.26315789 36.1507937,7.26315789 L36.0714286,7.89473684 L37.5,7.89473684 L38.1349206,3.55263158 C38.1349206,1.73684211 36.547619,1.65789474 35.9126984,1.65789474 M37.1031746,5.05263158 C37.1031746,5.28947368 36.1507937,6.55263158 35.1984127,6.55263158 C34.7222222,6.55263158 34.5634921,6.15789474 34.5634921,5.92105263 C34.5634921,5.52631579 34.8015873,4.97368421 35.9920635,4.97368421 C36.3095238,5.05263158 37.1031746,5.05263158 37.1031746,5.05263158 Z" id="Shape"></path>
                    <path d="M37.8174603,7.81578947 L39.484127,7.81578947 C39.9603175,5.21052632 40.0396825,3.07894737 41.1507937,3.47368421 C41.3095238,2.44736842 41.547619,2.05263158 41.7063492,1.65789474 C41.7063492,1.65789474 41.6269841,1.65789474 41.3888889,1.65789474 C40.6746032,1.65789474 40.1190476,2.60526316 40.1190476,2.60526316 L40.2777778,1.73684211" id="Path"></path>
                </g>
            </g>
        </g>
    </g>
</svg>