<?xml version="1.0" encoding="UTF-8"?>
<svg width="98px" height="30px" viewBox="0 0 98 30" version="1.1" xmlns="http://www.w3.org/2000/svg" xmlns:xlink="http://www.w3.org/1999/xlink">
    <!-- Generator: Sketch 63.1 (92452) - https://sketch.com -->
    <title>002-visa</title>
    <desc>Created with Sketch.</desc>
    <g id="Symbols" stroke="none" stroke-width="1" fill="none" fill-rule="evenodd">
        <g id="footer" transform="translate(-1361.000000, -1163.000000)" fill-rule="nonzero">
            <g id="002-visa" transform="translate(1361.000000, 1163.000000)">
                <polygon id="Path" fill="#3C58BF" points="35.9333333 29.1038961 40.9111111 1.05194805 48.6888889 1.05194805 43.8666667 29.1038961"></polygon>
                <polygon id="Path" fill="#293688" points="35.9333333 29.1038961 42.3111111 1.05194805 48.6888889 1.05194805 43.8666667 29.1038961"></polygon>
                <path d="M72.0222222,1.36363636 C70.4666667,0.74025974 67.9777778,0.116883117 64.8666667,0.116883117 C57.0888889,0.116883117 51.4888889,4.01298701 51.4888889,9.62337662 C51.4888889,13.8311688 55.3777778,16.012987 58.4888889,17.4155844 C61.6,18.8181818 62.5333333,19.7532468 62.5333333,21 C62.5333333,22.8701299 60.0444444,23.8051948 57.8666667,23.8051948 C54.7555556,23.8051948 53.0444444,23.3376623 50.4,22.2467532 L49.3111111,21.7792208 L48.2222222,28.1688312 C50.0888889,28.9480519 53.5111111,29.7272727 57.0888889,29.7272727 C65.3333333,29.7272727 70.7777778,25.8311688 70.7777778,19.9090909 C70.7777778,16.6363636 68.7555556,14.1428571 64.0888889,12.1168831 C61.2888889,10.7142857 59.5777778,9.93506494 59.5777778,8.53246753 C59.5777778,7.28571429 60.9777778,6.03896104 64.0888889,6.03896104 C66.7333333,6.03896104 68.6,6.50649351 70,7.12987013 L70.7777778,7.44155844 L72.0222222,1.36363636 L72.0222222,1.36363636 Z" id="Path" fill="#3C58BF"></path>
                <path d="M72.0222222,1.36363636 C70.4666667,0.74025974 67.9777778,0.116883117 64.8666667,0.116883117 C57.0888889,0.116883117 52.8888889,4.01298701 52.8888889,9.62337662 C52.8888889,13.8311688 55.3777778,16.012987 58.4888889,17.4155844 C61.6,18.8181818 62.5333333,19.7532468 62.5333333,21 C62.5333333,22.8701299 60.0444444,23.8051948 57.8666667,23.8051948 C54.7555556,23.8051948 53.0444444,23.3376623 50.4,22.2467532 L49.3111111,21.7792208 L48.2222222,28.1688312 C50.0888889,28.9480519 53.5111111,29.7272727 57.0888889,29.7272727 C65.3333333,29.7272727 70.7777778,25.8311688 70.7777778,19.9090909 C70.7777778,16.6363636 68.7555556,14.1428571 64.0888889,12.1168831 C61.2888889,10.7142857 59.5777778,9.93506494 59.5777778,8.53246753 C59.5777778,7.28571429 60.9777778,6.03896104 64.0888889,6.03896104 C66.7333333,6.03896104 68.6,6.50649351 70,7.12987013 L70.7777778,7.44155844 L72.0222222,1.36363636 L72.0222222,1.36363636 Z" id="Path" fill="#293688"></path>
                <path d="M85.4,1.05194805 C83.5333333,1.05194805 82.1333333,1.20779221 81.3555556,3.07792208 L69.6888889,29.1038961 L78.0888889,29.1038961 L79.6444444,24.4285714 L89.6,24.4285714 L90.5333333,29.1038961 L98,29.1038961 L91.4666667,1.05194805 L85.4,1.05194805 Z M81.8222222,19.7532468 C82.2888889,18.3506494 84.9333333,11.4935065 84.9333333,11.4935065 C84.9333333,11.4935065 85.5555556,9.77922078 86.0222222,8.68831169 L86.4888889,11.3376623 C86.4888889,11.3376623 88.0444444,18.3506494 88.3555556,19.9090909 L81.8222222,19.9090909 L81.8222222,19.7532468 Z" id="Shape" fill="#3C58BF"></path>
                <path d="M87.2666667,1.05194805 C85.4,1.05194805 84,1.20779221 83.2222222,3.07792208 L69.6888889,29.1038961 L78.0888889,29.1038961 L79.6444444,24.4285714 L89.6,24.4285714 L90.5333333,29.1038961 L98,29.1038961 L91.4666667,1.05194805 L87.2666667,1.05194805 Z M81.8222222,19.7532468 C82.4444444,18.1948052 84.9333333,11.4935065 84.9333333,11.4935065 C84.9333333,11.4935065 85.5555556,9.77922078 86.0222222,8.68831169 L86.4888889,11.3376623 C86.4888889,11.3376623 88.0444444,18.3506494 88.3555556,19.9090909 L81.8222222,19.9090909 L81.8222222,19.7532468 Z" id="Shape" fill="#293688"></path>
                <path d="M21.6222222,20.6883117 L20.8444444,16.6363636 C19.4444444,11.961039 14.9333333,6.81818182 9.95555556,4.32467532 L16.9555556,29.2597403 L25.3555556,29.2597403 L37.9555556,1.20779221 L29.5555556,1.20779221 L21.6222222,20.6883117 Z" id="Path" fill="#3C58BF"></path>
                <path d="M21.6222222,20.6883117 L20.8444444,16.6363636 C19.4444444,11.961039 14.9333333,6.81818182 9.95555556,4.32467532 L16.9555556,29.2597403 L25.3555556,29.2597403 L37.9555556,1.20779221 L31.1111111,1.20779221 L21.6222222,20.6883117 Z" id="Path" fill="#293688"></path>
                <path d="M0,1.05194805 L1.4,1.36363636 C11.3555556,3.7012987 18.2,9.62337662 20.8444444,16.6363636 L18.0444444,3.38961039 C17.5777778,1.51948052 16.1777778,1.05194805 14.4666667,1.05194805 L0,1.05194805 L0,1.05194805 Z" id="Path" fill="#FFBC00"></path>
                <path d="M0,1.05194805 L0,1.05194805 C9.95555556,3.38961039 18.2,9.46753247 20.8444444,16.4805195 L18.2,5.41558442 C17.7333333,3.54545455 16.1777778,2.45454545 14.4666667,2.45454545 L0,1.05194805 Z" id="Path" fill="#F7981D"></path>
                <path d="M0,1.05194805 L0,1.05194805 C9.95555556,3.38961039 18.2,9.46753247 20.8444444,16.4805195 L18.9777778,10.4025974 C18.5111111,8.53246753 17.8888889,6.66233766 15.7111111,5.88311688 L0,1.05194805 Z" id="Path" fill="#ED7C00"></path>
                <g id="Group" transform="translate(10.111111, 4.090909)" fill="#051244">
                    <path d="M19.2888889,15.6623377 L14,10.3636364 L11.5111111,16.2857143 L10.8888889,12.3896104 C9.48888889,7.71428571 4.97777778,2.57142857 0,0.0779220779 L7,25.012987 L15.4,25.012987 L19.2888889,15.6623377 Z" id="Path"></path>
                    <polygon id="Path" points="33.7555556 25.012987 27.0666667 18.1558442 25.8222222 25.012987"></polygon>
                    <path d="M51.6444444,15.3506494 L51.6444444,15.3506494 C52.2666667,15.974026 52.5777778,16.4415584 52.4222222,17.0649351 C52.4222222,18.9350649 49.9333333,19.8701299 47.7555556,19.8701299 C44.6444444,19.8701299 42.9333333,19.4025974 40.2888889,18.3116883 L39.2,17.8441558 L38.1111111,24.2337662 C39.9777778,25.012987 43.4,25.7922078 46.9777778,25.7922078 C51.9555556,25.7922078 56,24.3896104 58.3333333,21.8961039 L51.6444444,15.3506494 Z" id="Path"></path>
                    <path d="M60.6666667,25.012987 L67.9777778,25.012987 L69.5333333,20.3376623 L79.4888889,20.3376623 L80.4222222,25.012987 L87.8888889,25.012987 L85.2444444,13.6363636 L75.9111111,4.5974026 L76.3777778,7.09090909 C76.3777778,7.09090909 77.9333333,14.1038961 78.2444444,15.6623377 L71.7111111,15.6623377 C72.3333333,14.1038961 74.8222222,7.4025974 74.8222222,7.4025974 C74.8222222,7.4025974 75.4444444,5.68831169 75.9111111,4.5974026" id="Path"></path>
                </g>
            </g>
        </g>
    </g>
</svg>