<?xml version="1.0" encoding="UTF-8"?>
<svg width="99px" height="28px" viewBox="0 0 99 28" version="1.1" xmlns="http://www.w3.org/2000/svg" xmlns:xlink="http://www.w3.org/1999/xlink">
    <!-- Generator: Sketch 63.1 (92452) - https://sketch.com -->
    <title>Shape 2</title>
    <desc>Created with Sketch.</desc>
    <g id="Symbols" stroke="none" stroke-width="1" fill="none" fill-rule="evenodd">
        <g id="footer" transform="translate(-1296.000000, -1249.000000)" fill="#FFB3C7" fill-rule="nonzero">
            <g id="Shape-2" transform="translate(1296.000000, 1249.000000)">
                <path d="M19.1031057,0.0727667987 C18.8356683,0.112059091 18.5551994,0.10171087 18.2972297,0.143959684 C15.2296552,0.643633595 12.6291378,2.03691423 10.5591037,4.41957234 C8.66400587,6.60927589 7.60872168,9.17542213 7.3615207,12.0896514 C7.30007818,12.8467858 7.34053478,12.8467858 8.11830287,12.951436 C9.18441917,12.6842482 10.2988711,12.5112838 11.3158859,12.1216296 C16.4056938,10.1255822 19.1926607,6.2820249 19.8403366,0.746016995 C19.9190528,0.0415565217 19.8020012,-0.0393624509 19.1031018,0.0727581026 L19.1031057,0.0727667987 Z M16.3543177,18.8014031 C14.1028374,16.3763241 11.3339016,15.0461462 8.31776477,14.739585 C7.34051649,14.7292367 7.33044064,14.7292367 7.36150337,15.4760237 C7.37165542,15.7535593 7.42006707,16.0282154 7.46052367,16.3058301 C7.99896036,19.9876284 9.75033682,22.9129249 12.6594995,25.1019367 C14.5719473,26.5449348 16.7315998,27.2909486 19.0827803,27.5158894 C19.7809989,27.5871601 19.9010047,27.5373639 19.8301677,26.8300257 C19.5316676,23.7614091 18.4453226,21.0401244 16.3543056,18.8014091 L16.3543177,18.8014031 Z M4.77031708,0.0103557313 C3.73533854,7.47130427e-06 2.7082498,7.47130427e-06 1.67251115,0.0103557313 C0.596318981,0.0207817983 1.0658141e-13,0.654671939 1.0658141e-13,1.76963833 C1.0658141e-13,10.0550138 1.0658141e-13,18.3404684 1.0658141e-13,26.6257648 L1.0658141e-13,26.6599219 L1.0658141e-13,26.6926005 C0.00727310925,27.3666382 0.121445616,27.4659978 0.805951037,27.4659978 C1.8612333,27.4741676 2.90916074,27.4741676 3.95505992,27.4659978 C5.05875286,27.4556496 5.60734238,26.8930314 5.60734238,25.7670156 L5.60734238,0.910691508 C5.61749443,0.175031423 5.4693049,0.0102369574 4.77032862,0.0102369574 L4.77031708,0.0103557313 Z M59.8207414,6.83420948 C58.3064958,6.89443163 56.9318036,7.38648024 55.7080952,8.29580434 C55.5375561,8.41827174 55.3691377,8.54151779 55.1190503,8.72483004 C55.098822,8.43982412 55.0807149,8.26390513 55.0807149,8.09094071 C55.0604866,7.23211264 54.9101758,7.07774506 54.0941489,7.07774506 C53.0381854,7.06731899 51.993056,7.07774506 50.9449631,7.07774506 C49.9808215,7.07774506 49.8203602,7.23211305 49.8203602,8.2141087 L49.8203602,16.4787924 C49.8203602,19.8250177 49.8203602,23.1481997 49.8203602,26.4840889 C49.8203602,27.3614347 50.0090064,27.5685554 50.8379889,27.5685554 C51.9416818,27.5685554 53.0482497,27.5685554 54.1526296,27.5685554 C55.0503275,27.5685554 55.1906371,27.4245356 55.1906371,26.4840889 C55.1978345,22.0541087 55.1978345,17.6152352 55.1906371,13.1845434 C55.1906371,12.7443913 55.3076887,12.5008577 55.698011,12.3049407 C57.0011851,11.6813992 58.3267778,11.2100474 59.7904132,11.2731482 C60.3180159,11.2938447 60.5781811,11.0898362 60.5680283,10.505587 C60.5478,9.5235909 60.5478,8.55186561 60.5680283,7.56979644 C60.5680283,7.03837747 60.3381676,6.81343873 59.8207178,6.83421343 L59.8207414,6.83420948 Z M26.9235358,-7.99360578e-14 L23.5445065,-7.99360578e-14 C22.6981751,0.0103482613 22.6193079,0.0913448622 22.6193079,0.970869565 L22.6193079,26.7171146 C22.6193079,27.4348794 22.7393141,27.5582036 23.4274565,27.5685514 C24.5318326,27.5685514 25.6384102,27.5685514 26.7521809,27.5685514 C27.7879156,27.5685514 27.8898903,27.47425 27.8898903,26.4113359 L27.8898903,4.56133597 C27.8898903,3.35440118 27.8898903,2.16817391 27.8898903,0.960525695 C27.8898903,0.154450593 27.7395039,0.0103537552 26.9235532,-7.99360578e-14 L26.9235358,-7.99360578e-14 Z M93.2182759,19.159921 C93.2262309,18.7702668 93.0881935,18.5661027 92.6805974,18.5868755 C91.9433628,18.6076498 91.1959752,18.5445489 90.4673731,18.5973015 C88.0092185,18.7910397 87.5704877,19.7307858 87.5401024,21.7972423 C87.5191165,23.0249497 88.0677821,23.6797699 89.0138905,23.845266 C90.3293382,24.0701277 91.5530407,23.782165 92.749231,23.2403213 C93.5563174,22.8812443 93.1884198,20.0179695 93.2182702,19.1599063 L93.2182759,19.159921 Z M98.3565003,26.6466206 C98.3565003,27.4660791 98.2567982,27.5685494 97.4407713,27.5685494 C96.4339016,27.5685494 95.4184609,27.5685494 94.4116067,27.5685494 C93.5471672,27.5685494 93.4857248,27.5054484 93.4451924,26.6362728 C93.4372375,26.5345797 93.4271613,26.4424567 93.4069328,26.3400632 C93.4069328,26.1077332 93.0767639,26.2704264 92.9783492,26.3512673 C91.6245668,27.3934077 90.059026,27.7934887 88.4067474,27.9249037 C85.1304394,28.1920914 82.6288717,25.9815322 82.4706138,22.6167812 C82.4402335,21.7890756 82.4098531,20.9384175 82.5400114,20.1212081 C82.8377533,18.1570618 84.0137245,16.8580856 85.8264605,16.3266626 C87.2011529,15.9368524 88.6365966,15.7743148 90.0590317,15.5991725 C90.8880903,15.4967014 91.7344217,15.5702285 92.5706831,15.577698 C92.9277466,15.5880463 93.1084386,15.465501 93.0882099,15.0669767 C93.0578295,14.4754134 93.1185902,13.8599647 93.016691,13.2788285 C92.8005431,11.9693462 92.0712635,11.2938284 90.7862052,11.2938284 C88.784062,11.3043323 86.7928106,11.3955215 84.7914947,11.5187672 C83.7940197,11.5684855 83.6465111,11.4876446 83.6465111,10.4246526 C83.6465111,9.76998852 83.6566632,9.10482054 83.6465111,8.45015848 C83.6465111,7.93655768 83.8655378,7.65147469 84.3729119,7.52822963 C86.6931104,6.99681066 89.0442138,6.70060117 91.4156961,6.8527909 C92.4102172,6.92631796 93.4170888,7.15117824 94.3631915,7.46816243 C96.6247553,8.24599444 97.8693621,9.95330077 98.2264239,12.3360478 C98.8144084,15.9895261 98.3565062,22.6876487 98.3565062,26.6466011 L98.3565003,26.6466206 Z M41.3147667,22.3205731 C41.2090037,21.290415 41.3547688,20.102925 41.2837045,19.0263241 C41.2765072,18.8719561 41.0646779,18.6076483 40.954823,18.6076483 C39.7412752,18.6574445 38.5248408,18.688567 37.3112929,18.8429347 C36.5739812,18.9349798 36.0363027,19.487251 35.8859923,20.2548103 C35.7479549,20.9591917 35.7074225,21.7156265 35.7559099,22.4333873 C35.8274288,23.2291146 36.3854122,23.7004664 37.1508309,23.8340593 C38.3774104,24.0493498 39.5323196,23.8029367 40.6671427,23.3523597 C41.1666383,23.1586215 41.3755122,22.8735395 41.3147512,22.3205672 L41.3147667,22.3205731 Z M46.4342672,13.0538933 C46.5440456,17.6256521 46.5238173,22.1869763 46.5541976,26.7595059 C46.5541976,27.3718438 46.3351709,27.5685375 45.7280179,27.5685375 C44.6800096,27.5767072 43.6247312,27.5767072 42.578909,27.5685375 C41.6941658,27.5685375 41.585069,27.4557182 41.5337026,26.5553419 C41.5337026,26.4632968 41.5135501,26.3616037 41.493246,26.1752569 C40.8962458,26.5130158 40.38887,26.8403458 39.8511163,27.1076127 C37.979126,28.0369327 36.0363006,28.1208874 34.0732407,27.5269901 C32.3110283,26.9843676 31.2247526,25.7358854 30.7961823,23.90533 C30.4882876,22.5855771 30.4572249,21.2553893 30.7173904,19.9378201 C31.1257453,17.8898754 32.459299,16.7563972 34.3225683,16.1825632 C36.1359952,15.6199446 37.9870737,15.5598004 39.8511069,15.5776956 C41.1846606,15.5991701 41.1846606,15.5776956 41.1846606,14.1977194 C41.1846606,13.8391878 41.204889,13.4724842 41.1463252,13.1243795 C40.9476023,11.9983636 40.2183228,11.30433 39.0148469,11.30433 C37.0026202,11.30433 34.9810795,11.3955192 32.9687757,11.508417 C31.9822849,11.5684836 31.8521262,11.5187653 31.8521262,10.4952213 C31.8521262,9.78033596 31.8622782,9.05222333 31.8419741,8.33733596 C31.8318979,7.93655533 31.9923607,7.67224704 32.3595009,7.59132806 C35.4884427,6.90476284 38.634665,6.43341107 41.8040758,7.24252174 C44.6627052,7.95733003 46.3553758,10.0052688 46.4342353,13.0538854 L46.4342672,13.0538933 Z M79.7911981,14.4233657 C79.8317305,18.4532668 79.8013502,22.4831877 79.8013502,26.5130098 C79.8013502,27.4557134 79.7015723,27.5685317 78.7554626,27.5685317 C77.6698758,27.5685317 76.573451,27.5685317 75.4870444,27.5685317 C74.6407131,27.5685317 74.541011,27.4742302 74.541011,26.6154032 C74.541011,22.6976957 74.5510872,18.7910355 74.5307831,14.8732292 C74.5307831,14.2184881 74.4412332,13.5638241 74.3320601,12.9202095 C74.1636424,11.9879328 73.5464129,11.4564368 72.6697019,11.3146719 C71.0658301,11.0370593 69.6324935,11.5581285 68.2968268,12.4095652 C68.1183328,12.5194281 68.048935,12.9306344 68.048935,13.1948657 C68.0287067,16.4891147 68.0388588,19.7834427 68.0388588,23.0776917 C68.0388588,24.3135692 68.0287067,25.5524743 68.048935,26.7906167 C68.05689,27.3614051 67.8097566,27.5766957 67.271243,27.5685257 C66.0656503,27.5477514 64.8621783,27.5685257 63.6559044,27.5581775 C62.9570046,27.5581775 62.7683594,27.3540134 62.7683594,26.6258217 C62.7683594,20.3957822 62.7683594,14.1665134 62.7683594,7.93655292 C62.7683594,7.28181182 62.9570056,7.07772486 63.5944622,7.07772486 C64.690958,7.0672988 65.7773012,7.0672988 66.863573,7.0672988 C67.5596692,7.07772486 67.6796749,7.21131856 67.6897527,7.91873556 C67.6998291,8.18296678 67.7201331,8.45015453 67.7381644,8.8792573 C68.0973506,8.64397073 68.3070577,8.5102988 68.5159315,8.3767059 C70.6371722,6.8944154 72.9884297,6.53580473 75.4690221,6.9863818 C77.7283729,7.39463279 78.9651092,8.94975136 79.4211205,11.1602356 C79.6509812,12.2232276 79.7810629,13.3285557 79.7912157,14.4233581 L79.7911981,14.4233657 Z" id="Shape"></path>
            </g>
        </g>
    </g>
</svg>