<?xml version="1.0" encoding="UTF-8"?>
<svg width="180px" height="179px" viewBox="0 0 180 179" version="1.1" xmlns="http://www.w3.org/2000/svg" xmlns:xlink="http://www.w3.org/1999/xlink">
    <!-- Generator: Sketch 63.1 (92452) - https://sketch.com -->
    <title>Smoke.Eat.Sleep.Repeat</title>
    <desc>Created with Sketch.</desc>
    <defs>
        <polygon id="path-1" points="0.057515625 1.31049612 12.5028281 1.31049612 12.5028281 17.8206426 0.057515625 17.8206426"></polygon>
        <polygon id="path-3" points="0 1.30656744 16.6085156 1.30656744 16.6085156 13.2918543 0 13.2918543"></polygon>
    </defs>
    <g id="Symbols" stroke="none" stroke-width="1" fill="none" fill-rule="evenodd">
        <g id="footer" transform="translate(-870.000000, -1.000000)">
            <g id="Smoke.Eat.Sleep.Repeat" transform="translate(870.000000, 0.000000)">
                <path d="M31.1887969,29.082631 C29.8908281,28.0962512 28.2862969,28.3502124 26.9939531,29.6635147 C25.6537969,31.0259256 25.6045781,32.5188248 26.6002031,33.4939798 C27.5325469,34.4059953 28.7067656,34.1716775 30.0848906,33.3480574 L32.2687969,32.0572047 C34.6875469,30.5895612 36.7139531,30.9669953 38.1427031,32.3672899 C40.1508281,34.331631 39.9398906,37.2388558 37.5295781,39.691476 C35.1023906,42.1595302 32.1605156,42.3629798 30.1073906,40.6989023 L31.4264531,38.8454062 C32.6302031,39.9286 34.4752031,39.7840806 36.0347344,38.1971736 C37.4536406,36.754786 37.5816094,35.1833132 36.5198906,34.1436155 C35.6058281,33.2484372 34.5075469,33.4013752 33.2897344,34.1281814 L31.1859844,35.3699256 C28.5281719,36.9834915 26.5228594,36.7800419 25.0111406,35.3039798 C23.0353594,33.370507 23.1984844,30.5418558 25.5469219,28.1537783 C27.6900469,25.9733597 30.2803594,25.615569 32.3306719,27.0874217 L31.1887969,29.082631 Z" id="Fill-1" fill="#E95A4F"></path>
                <path d="M38.5455938,17.3069674 L40.49325,16.1830837 L51.7334063,25.0927736 L49.58325,10.938293 L51.54075,9.83545581 L59.5099688,23.5872465 L57.5637188,24.7097271 L53.7373125,18.1053318 C53.1396563,17.0768589 52.6418438,16.1718589 52.2045,15.2836961 L53.8652813,26.6628434 L52.0146563,27.7306031 L42.9921563,20.6758124 C43.5110625,21.4390992 44.0496563,22.3216496 44.6459063,23.3515256 L48.4723125,29.9559209 L46.5260625,31.0769984 L38.5455938,17.3069674 Z" id="Fill-3" fill="#E95A4F"></path>
                <path d="M77.6088281,10.1792155 C76.8578906,6.82720775 73.9961719,4.7506186 70.7027344,5.48444031 C67.4107031,6.21966512 65.7049219,9.31350233 66.4544531,12.664107 C67.2152344,16.0582078 70.0783594,18.1347969 73.3703906,17.4009752 C76.6624219,16.6671535 78.3682031,13.5733163 77.6088281,10.1792155 M64.0905469,13.2141225 C63.0696094,8.65825426 65.5192969,4.36336279 70.2400781,3.31103721 C74.9594531,2.25871163 78.9897656,5.13226202 80.0008594,9.64603721 C81.0316406,14.2439984 78.5538281,18.5220527 73.8555469,19.5687659 C69.1361719,20.6210915 65.1142969,17.7924403 64.0905469,13.2141225" id="Fill-5" fill="#E95A4F"></path>
                <g id="Group-9" transform="translate(88.593750, 0.092605)">
                    <mask id="mask-2" fill="white">
                        <use xlink:href="#path-1"></use>
                    </mask>
                    <g id="Clip-8"></g>
                    <polygon id="Fill-7" fill="#E95A4F" mask="url(#mask-2)" points="0.887203125 1.31035581 3.11189063 1.42681318 2.64360938 10.3926271 9.71564063 1.76916977 12.5028281 1.91368915 7.21110938 8.3370845 11.9206406 17.8206426 9.22485938 17.6789295 5.55735938 10.2284643 2.45798438 13.9340535 2.28220313 17.3183326 0.057515625 17.2032783"></polygon>
                </g>
                <polygon id="Fill-10" fill="#E95A4F" points="111.222844 3.97484419 120.014719 6.5411155 119.41425 8.58964264 112.761281 6.64634806 111.440812 11.1517047 117.446906 12.9041775 116.877375 14.846069 110.872688 13.0935961 109.476281 17.8571233 116.12925 19.7976116 115.534406 21.8250922 106.742531 19.260224"></polygon>
                <path d="M135.068625,23.079745 C135.752063,22.105993 137.088,21.8871093 138.082219,22.5830473 C139.039875,23.2523264 139.290188,24.5768535 138.60675,25.5520085 C137.896594,26.5622411 136.562063,26.7825279 135.604406,26.1118457 C134.608781,25.4173109 134.358469,24.0913806 135.068625,23.079745" id="Fill-12" fill="#E95A4F"></path>
                <polygon id="Fill-14" fill="#E95A4F" points="159.859266 34.7100473 165.297234 42.0679078 163.577391 43.3335047 159.461297 37.7674039 155.674266 40.5525589 159.389578 45.5770628 157.758328 46.7781171 154.044422 41.7522101 150.040828 44.6973186 154.155516 50.2648225 152.452547 51.5177915 147.015984 44.159931"></polygon>
                <path d="M164.231859,63.3763783 L167.987953,59.8742388 C169.217016,58.7321147 169.911703,58.1764868 170.378578,57.8369364 C169.991859,57.9014791 169.048266,57.9758434 167.227172,58.0502078 L162.091547,58.2368202 L164.231859,63.3763783 Z M162.634359,64.8664713 L159.906234,58.3167969 L156.355453,58.4514946 L155.379516,56.1083163 L172.451391,55.617231 L173.417484,57.9379597 L161.029828,69.665076 L160.037016,67.2812078 L162.634359,64.8664713 Z" id="Fill-16" fill="#E95A4F"></path>
                <polygon id="Fill-18" fill="#E95A4F" points="177.482813 82.3265171 176.682656 77.5896488 162.99 79.8949434 162.621563 77.7018969 176.311406 75.3980054 175.509844 70.6597341 177.551719 70.3145713 179.524688 81.9841605"></polygon>
                <path d="M171.000844,102.467327 C172.177875,102.660955 172.952719,103.769405 172.753031,104.964847 C172.561781,106.116792 171.471938,106.915157 170.294906,106.721529 C169.072875,106.519482 168.299437,105.412436 168.489281,104.259087 C168.687562,103.063645 169.780219,102.265281 171.000844,102.467327" id="Fill-20" fill="#E95A4F"></path>
                <path d="M163.438172,135.045503 C164.956922,135.647433 166.433484,134.968333 167.320828,133.354767 C168.240516,131.680867 167.883328,130.230061 166.658484,129.559379 C165.515203,128.933596 164.446453,129.476596 163.343953,130.639767 L161.593172,132.473619 C159.659578,134.54179 157.607859,134.724193 155.850047,133.764472 C153.384891,132.413286 152.798484,129.557976 154.453641,126.542712 C156.121453,123.512015 158.898797,122.521426 161.325984,123.568139 L160.560984,125.710674 C159.106922,124.992286 157.370203,125.629294 156.298641,127.579604 C155.322703,129.35172 155.627859,130.900743 156.930047,131.613519 C158.055047,132.22948 159.070359,131.7861 160.046297,130.756224 L161.733797,128.992526 C163.855828,126.7181 165.844266,126.372937 167.699109,127.388782 C170.127703,128.716116 170.736609,131.484433 169.123641,134.418317 C167.651297,137.096836 165.253641,138.140743 162.881297,137.276433 L163.438172,135.045503 Z" id="Fill-22" fill="#E95A4F"></path>
                <polygon id="Fill-24" fill="#E95A4F" points="143.448469 145.291927 141.867844 143.888826 147.80925 137.228307 159.731438 147.813299 158.233781 149.491408 147.892219 140.308113"></polygon>
                <polygon id="Fill-26" fill="#E95A4F" points="146.147062 161.256408 138.747375 166.638702 137.490187 164.914291 143.088469 160.842493 140.318156 157.051315 135.2655 160.728842 134.071594 159.094229 139.125656 155.420912 136.197844 151.41085 130.59675 155.484051 129.352219 153.779284 136.7505 148.396989"></polygon>
                <polygon id="Fill-28" fill="#E95A4F" points="129.666094 171.723399 121.272187 175.378477 120.417187 173.423957 126.769219 170.657043 124.889062 166.356539 119.152969 168.852655 118.342969 167.001965 124.077656 164.503043 122.087812 159.955593 115.735781 162.722508 114.889219 160.789035 123.284531 157.133957"></polygon>
                <path d="M103.7205,171.476874 C101.61675,171.850099 100.702687,173.379479 101.00925,175.102487 C101.32425,176.870394 102.729094,177.830115 104.810344,177.461099 L108.553781,176.797433 L107.486438,170.807595 L103.7205,171.476874 Z M111.115969,178.48396 L104.936906,179.579781 C101.725031,180.150843 99.2514375,178.446076 98.7240937,175.48413 C98.2037812,172.568487 99.9081562,170.079386 103.141125,169.505518 L107.127844,168.796952 L106.132219,163.206998 L108.323156,162.816936 L111.115969,178.48396 Z" id="Fill-30" fill="#E95A4F"></path>
                <path d="M78.7211719,172.052286 C78.5271094,173.226681 77.4189844,174.001193 76.2208594,173.804759 C75.0649219,173.612534 74.2633594,172.526534 74.4574219,171.352139 C74.6585156,170.132844 75.7666406,169.358333 76.9225781,169.550557 C78.1207031,169.745588 78.9236719,170.832991 78.7211719,172.052286" id="Fill-32" fill="#E95A4F"></path>
                <path d="M53.0845313,164.037915 L49.5126563,162.044109 C47.6465625,161.004411 45.9759375,161.640016 45.1645313,163.089419 C44.2870313,164.656682 44.8157813,166.288488 46.62,167.294512 L50.1539063,169.267271 L53.0845313,164.037915 Z M47.840625,159.416101 L48.67875,152.634915 L50.8570313,153.851403 L49.9978125,160.029256 L50.3521875,160.22569 L54.0604688,162.295264 L56.9039063,157.223054 L58.8473438,158.306248 L51.0651563,172.192736 L45.4134375,169.037163 C42.5278125,167.429209 41.715,164.558465 43.1521875,161.992194 C44.1604688,160.192016 45.9070313,159.236504 47.840625,159.416101 L47.840625,159.416101 Z" id="Fill-34" fill="#E95A4F"></path>
                <polygon id="Fill-36" fill="#E95A4F" points="32.0677031 159.860182 25.3373906 153.662686 26.7872344 152.096826 31.8806719 156.784585 35.0714531 153.33857 30.4744219 149.104012 31.8483281 147.618128 36.4453594 151.852686 39.8189531 148.206027 34.7255156 143.515461 36.1598906 141.965035 42.8902031 148.162531"></polygon>
                <path d="M21.8655,136.106107 C20.6715937,134.336797 18.901125,134.123526 17.44425,135.100084 C15.9522187,136.103301 15.6414375,137.772991 16.8240937,139.522657 L18.9475312,142.668409 L24.003,139.270099 L21.8655,136.106107 Z M18.4370625,145.689285 L14.9312812,140.496409 C13.1087812,137.798247 13.669875,134.850332 16.1687812,133.17082 C18.631125,131.516564 21.6025312,132.062371 23.4376875,134.778774 L25.7003437,138.127975 L30.4183125,134.958371 L31.6628438,136.799239 L18.4370625,145.689285 Z" id="Fill-38" fill="#E95A4F"></path>
                <polygon id="Fill-40" fill="#E95A4F" points="7.26609375 126.504969 4.055625 117.946054 6.058125 117.198202 8.48671875 123.674915 12.8910938 122.031884 10.69875 116.185163 12.5957813 115.478 14.7895313 121.321915 19.445625 119.583473 17.0170312 113.10676 18.9984375 112.367326 22.2075 120.924837"></polygon>
                <path d="M10.9245938,97.7331248 L6.352875,100.073497 C4.856625,100.835381 4.03678125,101.17914 3.49396875,101.378381 C3.8835,101.42328 4.81021875,101.608489 6.58209375,102.035032 L11.5714688,103.259939 L10.9245938,97.7331248 Z M12.8680312,96.7397295 L13.6935,103.783295 L17.141625,104.62235 L17.4369375,107.140916 L0.891,102.947047 L0.59990625,100.450931 L15.7311563,92.5641016 L16.0320937,95.1289698 L12.8680312,96.7397295 Z" id="Fill-42" fill="#E95A4F"></path>
                <g id="Group-46" transform="translate(0.000000, 74.456946)">
                    <mask id="mask-4" fill="white">
                        <use xlink:href="#path-3"></use>
                    </mask>
                    <g id="Clip-45"></g>
                    <polygon id="Fill-44" fill="#E95A4F" mask="url(#mask-4)" points="3.30820312 1.52264496 2.80054687 6.3016062 16.6085156 7.76083101 16.3736719 9.97211783 2.56570312 8.51148992 2.05804688 13.2918543 -0.000703125 13.0729705 1.24804687 1.30656744"></polygon>
                </g>
                <path d="M15.0745781,58.2777907 C13.9959844,57.7698682 13.5558281,56.4944496 14.0747344,55.3972248 C14.5767656,54.342093 15.8437969,53.8734574 16.9209844,54.3827829 C18.0389531,54.9103488 18.4805156,56.1857674 17.9798906,57.2423023 C17.4595781,58.3367209 16.1925469,58.8067597 15.0745781,58.2777907" id="Fill-47" fill="#E95A4F"></path>
                <path d="M90.118125,94.0062085 L90.5104688,94.0090147 C97.4432813,94.1352938 102.737813,92.3154721 106.375781,88.7277434 C109.877344,85.2761155 111.739219,80.1674256 111.919219,73.5279527 C111.140156,73.5938984 110.303438,73.6275729 109.414688,73.6275729 L70.8215625,73.6275729 C69.9328125,73.6275729 69.0946875,73.5938984 68.315625,73.5279527 C68.495625,80.1744411 70.3575,85.2873403 73.8576563,88.7375651 C77.4871875,92.3168752 82.8267188,94.1310845 89.71875,94.0090147 L90.118125,94.0062085 Z M90.9675,96.8180232 C90.804375,96.8180232 90.64125,96.8180232 90.4767188,96.8152163 L90.118125,96.8124101 L89.7510938,96.8152163 C89.589375,96.8180232 89.4276563,96.8180232 89.2659375,96.8180232 C81.8226563,96.8194256 75.9754688,94.7723016 71.8790625,90.7341775 C67.640625,86.5529372 65.4890625,80.4031465 65.4890625,72.4545806 C65.4890625,72.2974333 65.48625,72.1473016 65.480625,71.9985729 L65.4103125,70.2727589 L67.1189062,70.5575884 C68.1665625,70.7315729 69.4125,70.8213713 70.8215625,70.8213713 L109.414688,70.8213713 C110.82375,70.8213713 112.068281,70.7315729 113.115938,70.5575884 L114.811875,70.2755651 L114.754219,71.9887512 C114.75,72.1388829 114.745781,72.293224 114.745781,72.4545806 C114.745781,80.3947279 112.594219,86.5417124 108.352969,90.7243558 C104.249531,94.7694953 98.4023438,96.8180232 90.9675,96.8180232 L90.9675,96.8180232 Z" id="Fill-49" fill="#E95A4F"></path>
                <path d="M115.861781,69.0860163 C115.850531,69.0860163 115.837875,69.0874194 115.828031,69.0888225 C115.600219,69.1126752 115.300687,69.3975047 115.072875,70.0401248 C115.903969,69.6991713 116.159906,69.3540085 116.172562,69.2501791 C116.1585,69.2038767 116.0235,69.0860163 115.861781,69.0860163 L115.861781,69.0860163 Z M111.876469,73.6096132 L111.943969,71.8880085 C112.100063,67.8316442 114.022406,66.3331326 115.770375,66.2812178 C115.799906,66.2812178 115.830844,66.2798147 115.861781,66.2798147 C117.438187,66.2798147 118.823344,67.4752566 118.971,68.9821868 C119.04975,69.7763419 118.890844,72.4408302 113.580844,73.3247837 L111.876469,73.6096132 Z" id="Fill-51" fill="#E95A4F"></path>
                <path d="M64.3730625,69.0860163 C64.2113438,69.0860163 64.0763438,69.2038767 64.0622813,69.2585977 C64.0749375,69.3568147 64.330875,69.6991713 65.163375,70.0401248 C64.9341563,69.3975047 64.6360313,69.1126752 64.4082188,69.0888225 C64.3969688,69.0874194 64.3857188,69.0860163 64.3730625,69.0860163 L64.3730625,69.0860163 Z M68.3569688,73.6096132 L66.654,73.3247837 C61.344,72.4408302 61.1850938,69.7763419 61.2638438,68.9821868 C61.4143125,67.4443884 62.8711875,66.2349155 64.465875,66.2812178 C66.2138438,66.3331326 68.1361875,67.8330473 68.290875,71.8880085 L68.3569688,73.6096132 Z" id="Fill-53" fill="#E95A4F"></path>
                <polygon id="Fill-55" fill="#E95A4F" points="73.5382969 127.360019 70.9395469 126.28805 83.8700156 95.0704605 86.4673594 96.1424295"></polygon>
                <path d="M102.139875,118.665985 C101.552063,118.665985 101.003625,118.295567 100.80675,117.707667 L93.533625,96.0522101 C93.286125,95.3169853 93.6826875,94.5228302 94.4209688,94.2758845 C95.1578438,94.0331481 95.9537813,94.4260163 96.199875,95.1612411 L103.473,116.818102 C103.7205,117.551923 103.323938,118.346078 102.585656,118.593024 C102.438,118.642133 102.287531,118.665985 102.139875,118.665985" id="Fill-57" fill="#E95A4F"></path>
                <path d="M103.871672,118.550931 C101.909953,118.550931 100.315266,120.14345 100.315266,122.100776 C100.315266,124.059505 101.909953,125.652024 103.871672,125.652024 C105.834797,125.652024 107.429484,124.059505 107.429484,122.100776 C107.429484,120.14345 105.834797,118.550931 103.871672,118.550931 M103.871672,128.458226 C100.360266,128.458226 97.5027656,125.605722 97.5027656,122.100776 C97.5027656,118.59583 100.360266,115.744729 103.871672,115.744729 C107.384484,115.744729 110.241984,118.59583 110.241984,122.100776 C110.241984,125.605722 107.384484,128.458226 103.871672,128.458226" id="Fill-59" fill="#E95A4F"></path>
                <path d="M82.2382031,67.1678372 L80.2497656,65.1838527 L81.7221094,63.7148062 C81.9583594,63.4790853 82.0877344,63.1661938 82.0877344,62.835062 C82.0877344,62.5039302 81.9583594,62.1910388 81.7221094,61.9567209 C80.1400781,60.3754264 80.1400781,57.8063488 81.7221094,56.2278605 L83.4827344,54.4711783 L85.4711719,56.4551628 L83.7105469,58.211845 C83.2239844,58.6973178 83.2253906,59.4858605 83.7119531,59.9713333 C84.4769531,60.7360233 84.9002344,61.7532713 84.9002344,62.835062 C84.9002344,63.9182558 84.4769531,64.9341008 83.7105469,65.7001938 L82.2382031,67.1678372 Z" id="Fill-61" fill="#E95A4F"></path>
                <path d="M89.1651094,67.1678372 L87.1766719,65.1838527 L88.6490156,63.7148062 C88.8852656,63.4790853 89.0146406,63.1661938 89.0146406,62.835062 C89.0146406,62.5039302 88.8852656,62.1910388 88.6490156,61.9567209 C87.0669844,60.3754264 87.0669844,57.8063488 88.6490156,56.2278605 L90.4096406,54.4711783 L92.3980781,56.4551628 L90.6374531,58.211845 C90.1508906,58.6973178 90.1522969,59.4858605 90.6388594,59.9713333 C91.4038594,60.7360233 91.8271406,61.7532713 91.8271406,62.835062 C91.8271406,63.9182558 91.4038594,64.9341008 90.6374531,65.7001938 L89.1651094,67.1678372 Z" id="Fill-63" fill="#E95A4F"></path>
                <path d="M96.091875,67.1678372 L94.1034375,65.1838527 L95.5757813,63.7148062 C95.8120313,63.4790853 95.9414063,63.1661938 95.9414063,62.835062 C95.9414063,62.5039302 95.8120313,62.1910388 95.5757813,61.9567209 C93.99375,60.3754264 93.99375,57.8063488 95.5757813,56.2278605 L97.3364063,54.4711783 L99.3248438,56.4551628 L97.5642188,58.211845 C97.0776563,58.6973178 97.0790625,59.4858605 97.565625,59.9713333 C98.330625,60.7360233 98.7539063,61.7532713 98.7539063,62.835062 C98.7539063,63.9182558 98.330625,64.9341008 97.5642188,65.7001938 L96.091875,67.1678372 Z" id="Fill-65" fill="#E95A4F"></path>
            </g>
        </g>
    </g>
</svg>