<?xml version="1.0" encoding="UTF-8"?>
<svg width="153px" height="29px" viewBox="0 0 153 29" version="1.1" xmlns="http://www.w3.org/2000/svg" xmlns:xlink="http://www.w3.org/1999/xlink">
    <!-- Generator: Sketch 63.1 (92452) - https://sketch.com -->
    <title>Group 12</title>
    <desc>Created with Sketch.</desc>
    <defs>
        <polygon id="path-1" points="0.647712 0.615625 18.793632 0.615625 18.793632 27.5246875 0.647712 27.5246875"></polygon>
        <polygon id="path-3" points="0.348816 0.9103125 19.056336 0.9103125 19.056336 20.625 0.348816 20.625"></polygon>
    </defs>
    <g id="Symbols" stroke="none" stroke-width="1" fill="none" fill-rule="evenodd">
        <g id="footer" transform="translate(-1296.000000, -1208.000000)">
            <g id="Group-12" transform="translate(1296.000000, 1208.000000)">
                <polygon id="Fill-1" fill="#136697" fill-rule="nonzero" points="19.30656 1.0265625 12.90744 19.7296875 6.43344 1.0265625 1.04805054e-13 1.0265625 10.25232 27.5265625 15.60312 27.5265625 25.818 1.0265625"></polygon>
                <path d="M34.736208,23.551875 C37.357008,23.551875 39.079248,21.414375 39.079248,18.2675 C39.079248,15.083125 37.357008,12.908125 34.736208,12.908125 C32.155968,12.908125 30.433728,15.083125 30.433728,18.2675 C30.433728,21.414375 32.155968,23.551875 34.736208,23.551875 M34.776768,8.41125 C40.614288,8.41125 44.504928,12.383125 44.504928,18.2675 C44.504928,24.151875 40.614288,28.12375 34.776768,28.12375 C28.939248,28.12375 25.008048,24.151875 25.008048,18.2675 C25.008048,12.383125 28.939248,8.41125 34.776768,8.41125" id="Fill-2" fill="#136697" fill-rule="nonzero"></path>
                <path d="M58.809504,9.0103125 L58.809504,14.1071875 C55.140384,13.6196875 52.709904,14.9321875 52.709904,18.6040625 L52.709904,27.5259375 L47.359104,27.5259375 L47.359104,9.0103125 L52.372944,9.0103125 L52.635024,11.4103125 C53.383824,9.3853125 55.814304,8.3728125 58.809504,9.0103125" id="Fill-4" fill="#136697" fill-rule="nonzero"></path>
                <g id="Fill-6-Clipped" transform="translate(60.526752, 0.000000)">
                    <mask id="mask-2" fill="white">
                        <use xlink:href="#path-1"></use>
                    </mask>
                    <g id="path-1"></g>
                    <polygon id="Fill-6" fill="#136697" fill-rule="nonzero" mask="url(#mask-2)" points="12.584832 16.0934375 18.531552 27.5246875 12.431952 27.5246875 8.915712 20.2559375 5.998512 23.5903125 5.998512 27.5246875 0.647712 27.5246875 0.647712 0.6153125 5.998512 0.6153125 5.998512 16.0559375 12.132432 9.0090625 18.793632 9.0090625"></polygon>
                </g>
                <path d="M91.79196,20.066875 L88.05108,20.066875 C86.44116,20.066875 85.58004,20.779375 85.58004,21.866875 C85.58004,23.02625 86.55348,23.629375 88.20084,23.629375 C90.52212,23.629375 91.79196,22.35125 91.79196,20.666875 L91.79196,20.066875 Z M97.21764,16.02 L97.21764,27.52625 L92.391,27.52625 L92.12892,25.61375 C90.93396,27.22625 88.9122,28.085625 86.4786,28.085625 C82.92492,28.085625 80.2698,25.83875 80.2698,22.35125 C80.2698,18.829375 82.92492,16.395 86.96532,16.395 L89.62356,16.395 C91.19604,16.395 91.8294,15.7575 91.8294,14.7825 C91.8294,13.4325 90.67188,12.7575 88.87164,12.7575 C86.96532,12.7575 85.5426,13.8075 85.28052,15.345 L80.79084,14.22 C81.38988,10.510625 84.64404,8.410625 88.79988,8.410625 C94.71228,8.410625 97.21764,11.4825 97.21764,16.02 L97.21764,16.02 Z" id="Fill-9" fill="#136697" fill-rule="nonzero"></path>
                <path d="M99.698664,22.5403125 L104.188344,21.3403125 C104.338104,22.8403125 105.573624,23.8528125 107.370744,23.8528125 C108.865224,23.8528125 109.651464,23.2528125 109.651464,22.3153125 C109.651464,21.4903125 109.052424,21.0434375 108.116424,20.8153125 L105.049464,20.1059375 C101.271144,19.2059375 99.960744,16.7684375 99.960744,14.4059375 C99.960744,10.9215625 102.765624,8.4121875 107.220984,8.4121875 C111.223944,8.4121875 113.953944,10.4715625 114.515544,13.6215625 L110.028984,14.8184375 C109.801224,13.5465625 108.681144,12.6840625 107.146104,12.6840625 C105.760824,12.6840625 105.124344,13.3590625 105.124344,14.1840625 C105.124344,14.9715625 105.798264,15.4184375 106.806024,15.6434375 L110.063304,16.4309375 C113.021064,17.1434375 114.818184,19.2059375 114.818184,21.9403125 C114.818184,25.4653125 111.897864,28.1246875 107.295864,28.1246875 C102.915384,28.1246875 100.110504,25.6871875 99.698664,22.5403125" id="Fill-11" fill="#136697" fill-rule="nonzero"></path>
                <path d="M116.809992,22.5403125 L121.299672,21.3403125 C121.449432,22.8403125 122.684952,23.8528125 124.482072,23.8528125 C125.976552,23.8528125 126.762792,23.2528125 126.762792,22.3153125 C126.762792,21.4903125 126.163752,21.0434375 125.227752,20.8153125 L122.160792,20.1059375 C118.382472,19.2059375 117.072072,16.7684375 117.072072,14.4059375 C117.072072,10.9215625 119.876952,8.4121875 124.332312,8.4121875 C128.335272,8.4121875 131.065272,10.4715625 131.626872,13.6215625 L127.140312,14.8184375 C126.912552,13.5465625 125.792472,12.6840625 124.257432,12.6840625 C122.872152,12.6840625 122.235672,13.3590625 122.235672,14.1840625 C122.235672,14.9715625 122.909592,15.4184375 123.917352,15.6434375 L127.174632,16.4309375 C130.132392,17.1434375 131.929512,19.2059375 131.929512,21.9403125 C131.929512,25.4653125 129.009192,28.1246875 124.407192,28.1246875 C120.026712,28.1246875 117.221832,25.6871875 116.809992,22.5403125" id="Fill-13" fill="#136697" fill-rule="nonzero"></path>
                <g id="Group-17" transform="translate(133.534752, 7.500000)">
                    <g id="Fill-15-Clipped">
                        <mask id="mask-4" fill="white">
                            <use xlink:href="#path-3"></use>
                        </mask>
                        <g id="path-3"></g>
                        <path d="M5.849376,8.4821875 L13.593216,8.4821875 C13.331136,6.6821875 11.911536,5.4853125 9.814896,5.4853125 C7.683936,5.4853125 6.148896,6.6821875 5.849376,8.4821875 M18.794256,12.3790625 L5.774496,12.3790625 C5.924256,14.5915625 7.571616,16.0509375 10.002096,16.0509375 C12.098736,16.0509375 13.708656,15.0040625 14.267136,13.5415625 L18.722496,15.1884375 C17.636736,18.7134375 14.083056,20.6259375 10.114416,20.6259375 C4.538976,20.6259375 0.348816,16.8040625 0.348816,10.7290625 C0.348816,4.9196875 4.276896,0.9103125 9.780576,0.9103125 C14.941056,0.9103125 19.056336,4.5103125 19.056336,9.8696875 C19.056336,10.6196875 18.984576,11.5165625 18.794256,12.3790625" id="Fill-15" fill="#136697" fill-rule="nonzero" mask="url(#mask-4)"></path>
                    </g>
                </g>
            </g>
        </g>
    </g>
</svg>