<?xml version="1.0" encoding="UTF-8"?>
<svg width="25px" height="30px" viewBox="0 0 25 30" version="1.1" xmlns="http://www.w3.org/2000/svg" xmlns:xlink="http://www.w3.org/1999/xlink">
    <!-- Generator: Sketch 63.1 (92452) - https://sketch.com -->
    <title>003-paypal-1</title>
    <desc>Created with Sketch.</desc>
    <g id="Symbols" stroke="none" stroke-width="1" fill="none" fill-rule="evenodd">
        <g id="footer" transform="translate(-1474.000000, -1163.000000)" fill-rule="nonzero">
            <g id="003-paypal-1" transform="translate(1474.000000, 1163.000000)">
                <path d="M21.2962963,2.37209302 C20,0.88372093 17.5925926,0.139534884 14.2592593,0.139534884 L5,0.139534884 C4.44444444,0.139534884 3.88888889,0.697674419 3.7037037,1.25581395 L0,25.627907 C0,26.1860465 0.37037037,26.5581395 0.740740741,26.5581395 L6.48148148,26.5581395 L7.96296296,17.4418605 L7.96296296,17.8139535 C8.14814815,17.255814 8.7037037,16.6976744 9.25925926,16.6976744 L12.037037,16.6976744 C17.4074074,16.6976744 21.4814815,14.4651163 22.7777778,8.3255814 C22.7777778,8.13953488 22.7777778,7.95348837 22.7777778,7.76744186 C22.5925926,7.76744186 22.5925926,7.76744186 22.7777778,7.76744186 C22.962963,5.34883721 22.5925926,3.86046512 21.2962963,2.37209302" id="Path" fill="#263B80"></path>
                <path d="M22.5925926,7.76744186 L22.5925926,7.76744186 C22.5925926,7.95348837 22.5925926,8.13953488 22.5925926,8.3255814 C21.2962963,14.6511628 17.2222222,16.6976744 11.8518519,16.6976744 L9.07407407,16.6976744 C8.51851852,16.6976744 7.96296296,17.255814 7.77777778,17.8139535 L5.92592593,29.1627907 C5.92592593,29.5348837 6.11111111,29.9069767 6.66666667,29.9069767 L11.4814815,29.9069767 C12.037037,29.9069767 12.5925926,29.5348837 12.5925926,28.9767442 L12.5925926,28.7906977 L13.5185185,23.0232558 L13.5185185,22.6511628 C13.5185185,22.0930233 14.0740741,21.7209302 14.6296296,21.7209302 L15.3703704,21.7209302 C20,21.7209302 23.7037037,19.8604651 24.6296296,14.2790698 C25,12.0465116 24.8148148,10 23.7037037,8.69767442 C23.5185185,8.3255814 23.1481481,7.95348837 22.5925926,7.76744186" id="Path" fill="#139AD6"></path>
                <path d="M21.2962963,7.20930233 C21.1111111,7.20930233 20.9259259,7.02325581 20.7407407,7.02325581 C20.5555556,7.02325581 20.3703704,7.02325581 20.1851852,6.8372093 C19.4444444,6.65116279 18.7037037,6.65116279 17.7777778,6.65116279 L10.5555556,6.65116279 C10.3703704,6.65116279 10.1851852,6.65116279 10,6.8372093 C9.62962963,7.02325581 9.44444444,7.39534884 9.44444444,7.76744186 L7.96296296,17.4418605 L7.96296296,17.8139535 C8.14814815,17.255814 8.7037037,16.6976744 9.25925926,16.6976744 L12.037037,16.6976744 C17.4074074,16.6976744 21.4814815,14.4651163 22.7777778,8.3255814 C22.7777778,8.13953488 22.7777778,7.95348837 22.962963,7.76744186 C22.5925926,7.58139535 22.4074074,7.39534884 22.037037,7.39534884 C21.4814815,7.20930233 21.4814815,7.20930233 21.2962963,7.20930233" id="Path" fill="#232C65"></path>
            </g>
        </g>
    </g>
</svg>