<?xml version="1.0" encoding="UTF-8"?>
<svg width="40px" height="49px" viewBox="0 0 40 49" version="1.1" xmlns="http://www.w3.org/2000/svg" xmlns:xlink="http://www.w3.org/1999/xlink">
    <!-- Generator: Sketch 63.1 (92452) - https://sketch.com -->
    <title>ups</title>
    <desc>Created with Sketch.</desc>
    <g id="Symbols" stroke="none" stroke-width="1" fill="none" fill-rule="evenodd">
        <g id="footer" transform="translate(-1607.000000, -1163.000000)" fill-rule="nonzero">
            <g id="ups" transform="translate(1607.000000, 1163.000000)">
                <path d="M19.7,46.504466 C20.1,46.304466 30.5,41.804466 33.8,39.104466 C37.2,36.304466 39,32.304466 39,27.504466 L39,5.0044658 L38.7,4.9044658 C30.4,0.40446575 20.1,0.70446575 19.6,0.70446575 C19.2,0.70446575 8.9,0.40446575 0.6,4.9044658 L0.4,5.0044658 L0.4,27.604466 C0.4,32.404466 2.2,36.404466 5.6,39.204466 C8.9,41.904466 19.3,46.404466 19.7,46.504466" id="path4" fill="#341B14"></path>
                <path d="M19.7,47.004466 C19.7,47.004466 8.7,42.204466 5.3,39.504466 C1.7,36.504466 0,32.404466 0,27.704466 L0,4.3044658 C8.7,-0.39553425 19.7,0.00446575 19.7,0.00446575 C19.7,0.00446575 30.7,-0.39553425 39.4,4.3044658 L39.4,27.604466 C39.4,32.304466 37.7,36.404466 34.1,39.404466 C30.7,42.204466 19.7,47.004466 19.7,47.004466 M1.6,27.704466 C1.6,32.104466 3.2,35.704466 6.3,38.204466 C9.1,40.504466 17.4,44.204466 19.7,45.204466 C22,44.204466 30.4,40.404466 33.1,38.204466 C36.2,35.704466 37.8,32.004466 37.8,27.704466 L37.8,4.7044658 C26.2,3.6044658 12.4,4.2044658 1.6,14.204466 L1.6,27.704466 Z" id="path6" fill="#FFB406"></path>
                <path d="M30.8,24.404466 C32.3,25.304466 32.9,25.904466 33,27.004466 C33,28.204466 32.2,28.904466 30.9,28.904466 C29.8,28.904466 28.5,28.304466 27.6,27.504466 L27.6,30.704466 C28.7,31.304466 30,31.804466 31.4,31.804466 C34.8,31.804466 36.4,29.404466 36.4,27.204466 C36.5,25.204466 35.9,23.604466 33,21.904466 C31.7,21.104466 30.7,20.604466 30.7,19.404466 C30.7,18.204466 31.8,17.704466 32.7,17.704466 C33.9,17.704466 35.1,18.404466 35.8,19.104466 L35.8,16.104466 C35.2,15.604466 33.9,14.904466 32,15.004466 C29.7,15.104466 27.3,16.704466 27.3,19.504466 C27.4,21.404466 28,22.804466 30.8,24.404466 M19,31.604466 C19.3,31.704466 19.8,31.804466 20.6,31.804466 C24.5,31.804466 26.7,28.304466 26.7,23.304466 C26.7,18.204466 24.4,15.104466 20.3,15.104466 C18.4,15.104466 16.9,15.504466 15.6,16.304466 L15.6,38.904466 L19,38.904466 L19,31.604466 Z M19,18.004466 C19.3,17.904466 19.8,17.704466 20.2,17.704466 C22.2,17.704466 23,19.304466 23,23.204466 C23,27.004466 22,28.804466 20,28.804466 C19.5,28.804466 19.1,28.704466 18.9,28.604466 L18.9,18.004466 L19,18.004466 Z M8.5,31.804466 C10.6,31.804466 12.4,31.304466 13.7,30.404466 L13.7,15.304466 L10.2,15.304466 L10.2,28.404466 C9.8,28.704466 9.3,28.804466 8.6,28.804466 C7,28.804466 6.8,27.304466 6.8,26.404466 L6.8,15.304466 L3.3,15.304466 L3.3,26.204466 C3.3,29.904466 5.1,31.804466 8.5,31.804466 M31.8,45.304466 L31.8,47.604466 L32.2,47.604466 L32.2,46.704466 L32.3,46.704466 L32.9,47.604466 L33.4,47.604466 C33.4,47.604466 32.8,46.704466 32.7,46.604466 C33,46.504466 33.2,46.304466 33.2,46.004466 C33.2,45.704466 33,45.304466 32.4,45.304466 L31.8,45.304466 Z M32.4,45.604466 C32.7,45.604466 32.8,45.804466 32.8,45.904466 C32.8,46.104466 32.7,46.304466 32.3,46.304466 L32.2,46.304466 L32.2,45.604466 L32.4,45.604466 Z" id="path8" fill="#FFB406"></path>
                <path d="M34,46.404466 C34,47.204466 33.3,47.904466 32.5,47.904466 C31.7,47.904466 31,47.204466 31,46.404466 C31,45.604466 31.7,44.904466 32.5,44.904466 C33.4,44.904466 34,45.604466 34,46.404466 M32.5,44.504466 C31.5,44.504466 30.6,45.304466 30.6,46.404466 C30.6,47.404466 31.4,48.304466 32.5,48.304466 C33.5,48.304466 34.4,47.504466 34.4,46.404466 C34.4,45.404466 33.5,44.504466 32.5,44.504466" id="path10" fill="#FFB406"></path>
            </g>
        </g>
    </g>
</svg>