<?xml version="1.0" encoding="UTF-8"?>
<svg width="88px" height="79px" viewBox="0 0 88 79" version="1.1" xmlns="http://www.w3.org/2000/svg" xmlns:xlink="http://www.w3.org/1999/xlink">
    <title>Group 10</title>
    <defs>
        <polygon id="path-1" points="0 0.921025641 87.0166512 0.921025641 87.0166512 77.9484103 0 77.9484103"></polygon>
    </defs>
    <g id="Symbols" stroke="none" stroke-width="1" fill="none" fill-rule="evenodd">
        <g id="XL_navigation" transform="translate(-676.000000, -41.000000)">
            <g id="L_navigation">
                <g id="Group-10" transform="translate(676.000000, 41.000000)">
                    <path d="M47.5441488,68.1652308 L39.1892651,68.1652308 C38.6674047,68.1652308 38.4115907,68.8729231 38.7871256,69.2770256 L39.7868465,70.3539487 C41.8548465,72.5785641 45.1476837,72.5129231 47.1430326,70.2062564 L47.960614,69.2606154 C48.316707,68.850359 48.0557767,68.1652308 47.5441488,68.1652308" id="Fill-1" fill="#ffffff"></path>
                    <g id="Group-5" transform="translate(0.000000, 0.104821)">
                        <mask id="mask-2" fill="white">
                            <use xlink:href="#path-1"></use>
                        </mask>
                        <g id="Clip-4"></g>
                        <path d="M63.3037209,35.9761026 L63.3037209,28.8622564 C68.5090233,28.5145641 73.5270698,26.5607179 77.5883721,23.2622564 C79.9817674,21.3196923 81.9934884,18.957641 83.5345116,16.3217436 C82.4140465,26.8427692 73.8913488,35.172 63.3037209,35.9761026 L63.3037209,35.9761026 Z M59.9474419,54.4591795 C59.9474419,57.6632821 57.9899535,60.4509744 54.8106977,61.8437949 C52.2372093,59.5094359 48.1994419,58.0304615 43.5773953,58.0304615 C38.891907,58.0304615 34.8050233,59.5494359 32.2376744,61.9391795 L29.9138605,60.1094359 C28.1835349,58.7473846 27.1735814,56.6653333 27.1735814,54.4591795 L27.1735814,39.4591795 L27.1776744,39.4591795 L27.1776744,28.7371282 C38.055907,27.4766154 49.0671628,27.4766154 59.9474419,28.7381538 L59.9474419,36.0458462 L59.9474419,39.4561026 L59.9474419,54.4591795 Z M43.5773953,74.5843077 C38.7302326,74.5843077 34.5072558,72.5237949 33.1831628,69.7925128 C34.9769302,69.7402051 36.4166512,68.2694359 36.4166512,66.4591795 C36.4166512,65.4161026 35.939814,64.4858462 35.1928372,63.8735385 C37.1963721,62.3730256 40.2395349,61.3945641 43.5773953,61.3945641 C46.9101395,61.3945641 49.9492093,62.3699487 51.9537674,63.866359 C51.2016744,64.4796923 50.7207442,65.412 50.7207442,66.4591795 C50.7207442,68.2755897 52.1686512,69.7504615 53.9716279,69.7935385 C52.6465116,72.5237949 48.4235349,74.5843077 43.5773953,74.5843077 L43.5773953,74.5843077 Z M3.48213953,16.3217436 C5.02316279,18.957641 7.03590698,21.3196923 9.42827907,23.2622564 C13.5172093,26.5832821 18.5772093,28.5412308 23.8203721,28.8694359 L23.8203721,35.9843077 C13.1836279,35.2284103 4.60669767,26.877641 3.48213953,16.3217436 L3.48213953,16.3217436 Z M35.8374884,14.3166154 L35.560186,13.7853333 C34.8193488,12.4109744 33.7858605,11.2612308 32.5569302,10.3996923 C32.9467907,10.3699487 33.343814,10.3668718 33.7316279,10.3873846 C37.8573953,10.6161026 41.1850233,13.7125128 41.8327442,17.6837949 C41.712,17.6899487 41.5902326,17.6930256 41.4694884,17.6930256 C39.107814,17.6930256 36.9466977,16.3945641 35.8374884,14.3166154 L35.8374884,14.3166154 Z M55.1882791,4.60174359 L55.1882791,4.60174359 C55.4185116,4.5494359 55.6507907,4.50225641 55.8851163,4.46225641 C56.5870698,4.34430769 57.292093,4.28584615 57.9950698,4.28584615 C58.2273488,4.28584615 58.4616744,4.292 58.6939535,4.30533333 C56.6464186,5.83558974 55.0746977,7.97405128 54.2182326,10.5002051 L53.9736744,11.2499487 C52.8562791,14.5781538 50.019814,17.0068718 46.5693953,17.5904615 C46.1652093,17.6581538 45.7579535,17.7002051 45.3486512,17.7145641 C44.9874419,11.5914872 49.0978605,5.98020513 55.1882791,4.60174359 L55.1882791,4.60174359 Z M25.2907907,25.5596923 C20.2952558,25.5361026 15.4163721,23.7945641 11.5413023,20.6489231 C9.81097674,19.2437949 8.30986047,17.586359 7.084,15.7494359 C5.2452093,12.9955897 4.11655814,9.82738462 3.64176744,6.54841026 L3.0892093,2.73712821 L1.79274419,5.692 C0.654883721,8.28276923 0.00613953488,11.0735385 0,13.9032821 C0,13.9227692 0,13.9412308 0,13.9596923 C0,27.4284103 10.4914419,38.4868718 23.7129302,39.3555897 L23.8203721,39.1443077 L23.8203721,39.3473846 L23.8162791,39.3555897 L23.8162791,54.4591795 C23.8162791,57.6981538 25.3,60.7566154 27.8407442,62.7555897 L30.2013953,64.6150769 C29.6795349,65.6643077 29.3940465,66.7996923 29.3940465,67.9894359 C29.3940465,73.5740513 35.6236279,77.9484103 43.5773953,77.9484103 C51.5311628,77.9484103 57.7617674,73.5740513 57.7617674,67.9894359 C57.7617674,66.7761026 57.4670698,65.6202051 56.9257674,64.5535385 C60.8407442,62.5166154 63.3037209,58.6930256 63.3037209,54.4591795 L63.3037209,39.4561026 L63.3037209,39.3555897 C76.5252093,38.4868718 87.0176744,27.4284103 87.0176744,13.9596923 C87.0176744,13.9412308 87.0176744,13.9227692 87.0166512,13.9032821 C87.0105116,11.0735385 86.3617674,8.28276923 85.2249302,5.692 L83.9274419,2.73712821 L83.3748837,6.54841026 C82.900093,9.82738462 81.7724651,12.9955897 79.9336744,15.7494359 C78.7067907,17.586359 77.2056744,19.2437949 75.4763721,20.6489231 C71.6002791,23.7945641 66.7224186,25.5361026 61.7268837,25.5596923 L61.4495814,25.5258462 C56.0017674,24.8509744 50.520186,24.4899487 45.0345116,24.4345641 L45.0345116,21.0858462 C45.7364651,21.0837949 46.4363721,21.0253333 47.1270698,20.9084103 C51.8013023,20.1186667 55.6436279,16.8294359 57.1590698,12.3094359 L57.4015814,11.5648205 C58.4432558,8.49405128 60.9338605,6.19251282 64.0619535,5.40789744 L68.8763721,4.20174359 L64.319814,2.23148718 C61.4853953,1.00584615 58.3767442,0.630461538 55.3274419,1.14430769 C55.048093,1.19148718 54.7605581,1.24892308 54.4494884,1.31969231 C48.8563721,2.58533333 44.5863256,6.67251282 42.8375814,11.7781538 C40.7675349,9.05405128 37.5688372,7.23046154 33.9168372,7.02841026 C33.6937674,7.01610256 33.4696744,7.00789744 33.2425116,7.00789744 C30.9156279,7.00789744 28.6532093,7.67764103 26.7008372,8.94328205 L22.5341395,11.6437949 L27.4815814,12.0325128 C29.6529302,12.2027692 31.5674419,13.4550769 32.595814,15.3658462 L32.8710698,15.892 C34.5717209,19.0786667 37.8676279,21.0591795 41.4694884,21.0591795 C41.5390698,21.0591795 41.6086512,21.0530256 41.6772093,21.0509744 L41.6772093,24.437641 C36.2355349,24.5084103 30.795907,24.8796923 25.392093,25.5596923 L25.2907907,25.5596923 Z" id="Fill-3" fill="#ffffff" mask="url(#mask-2)"></path>
                    </g>
                    <path d="M35.5848465,38.3429744 C33.2190791,38.3429744 31.3025209,40.2650256 31.3025209,42.6352821 C31.3025209,45.0055385 33.2190791,46.9275897 35.5848465,46.9275897 C37.950614,46.9275897 39.8671721,45.0055385 39.8671721,42.6352821 C39.8671721,40.2650256 37.950614,38.3429744 35.5848465,38.3429744" id="Fill-6" fill="#ffffff"></path>
                    <path d="M51.379414,38.4306667 C49.0996,38.4306667 47.2536465,40.2829744 47.2536465,42.5670769 C47.2536465,44.8511795 49.0996,41.9609231 51.379414,41.9609231 C53.6592279,41.9609231 55.5062047,44.8511795 55.5062047,42.5670769 C55.5062047,40.2829744 53.6592279,38.4306667 51.379414,38.4306667" id="Fill-8" fill="#ffffff"></path>
                </g>
            </g>
        </g>
    </g>
</svg>
