<svg width="27" height="30" viewBox="0 0 27 30" fill="none" xmlns="http://www.w3.org/2000/svg">
<path d="M26.4733 21.1016L23.3399 19.3424L26.0553 17.7853C26.5562 17.4981 26.7228 16.8705 26.4274 16.3835C26.1321 15.8966 25.4868 15.7346 24.9859 16.0216L21.2453 18.1664L15.6055 14.9999L21.2443 11.834L24.986 13.9785C25.1537 14.0747 25.3379 14.1203 25.5195 14.1203C25.88 14.1203 26.2311 13.9401 26.4274 13.6162C26.7226 13.1292 26.5559 12.5016 26.055 12.2144L23.3392 10.6579L26.4733 8.89827C26.9768 8.61558 27.1494 7.98945 26.8586 7.49983C26.5679 7.01007 25.9241 6.84231 25.4206 7.12514L22.2871 8.88448L22.2586 5.81856C22.2534 5.25318 21.7765 4.79632 21.1965 4.8041C20.6151 4.80915 20.1479 5.27161 20.1533 5.83699L20.1924 10.0604L14.5528 13.2268V6.89459L18.3339 4.81652C18.8401 4.53834 19.0185 3.91385 18.7324 3.4215C18.4464 2.92928 17.804 2.75565 17.2979 3.03397L14.5528 4.5427V1.02375C14.5528 0.458365 14.0815 0 13.5001 0C12.9187 0 12.4473 0.458365 12.4473 1.02375V4.5427L9.70227 3.03411C9.19582 2.75579 8.55391 2.92928 8.2677 3.42163C7.98163 3.91385 8.16004 4.53847 8.66621 4.81666L12.4472 6.89473V13.2268L6.80759 10.0604L6.84675 5.83699C6.85209 5.27161 6.38494 4.80915 5.80354 4.8041C5.80031 4.8041 5.79722 4.8041 5.79385 4.8041C5.21694 4.8041 4.74656 5.25632 4.74137 5.8187L4.71287 8.88448L1.57943 7.12514C1.07593 6.84231 0.432059 7.01021 0.141356 7.49983C-0.149347 7.98945 0.023166 8.61558 0.526667 8.89827L3.66067 10.6579L0.944404 12.2147C0.443569 12.5017 0.276812 13.1293 0.572007 13.6165C0.768382 13.9404 1.11944 14.1206 1.48005 14.1206C1.66169 14.1206 1.84571 14.0749 2.01359 13.9788L5.75567 11.8342L11.3947 15.0002L5.75469 18.1667L2.01359 16.0215C1.51304 15.7344 0.867342 15.8963 0.572007 16.3834C0.276671 16.8704 0.443289 17.498 0.944123 17.7851L3.65997 19.3423L0.526527 21.1015C0.0230257 21.3841 -0.149487 22.0103 0.141216 22.4999C0.336188 22.8283 0.690056 23.0119 1.05389 23.0119C1.23244 23.0119 1.41351 22.9677 1.57929 22.8746L4.71273 21.1152L4.74123 24.1813C4.74642 24.7435 5.2168 25.1959 5.79371 25.1959C5.79694 25.1959 5.80017 25.1959 5.80339 25.1958C6.3848 25.1907 6.85195 24.7283 6.84661 24.1629L6.80745 19.9393L12.4472 16.7729V23.1053L8.66621 25.1833C8.16004 25.4615 7.98163 26.086 8.2677 26.5784C8.46127 26.9114 8.81795 27.0986 9.18515 27.0986C9.36061 27.0986 9.5386 27.0558 9.70227 26.9659L12.4473 25.4573V28.9763C12.4473 29.5416 12.9187 30 13.5001 30C14.0815 30 14.5528 29.5416 14.5528 28.9763V25.4573L17.2979 26.9659C17.4615 27.0558 17.6394 27.0986 17.815 27.0986C18.1822 27.0986 18.5389 26.9114 18.7324 26.5784C19.0185 26.0861 18.8401 25.4615 18.3339 25.1833L14.5528 23.1053V16.7731L20.1924 19.9393L20.1523 24.1627C20.1468 24.7281 20.6138 25.1907 21.1952 25.1959C21.1986 25.196 21.2018 25.196 21.2052 25.196C21.7819 25.196 22.2523 24.7438 22.2577 24.1817L22.2868 21.1152L25.4207 22.8747C25.5865 22.9678 25.7676 23.012 25.9461 23.012C26.3099 23.012 26.6638 22.8283 26.8588 22.5C27.1495 22.0104 26.977 21.3843 26.4733 21.1016Z" fill="black"/>
</svg>
