<svg width="30" height="30" viewBox="0 0 30 30" fill="none" xmlns="http://www.w3.org/2000/svg">
<path d="M29.4944 13.942L24.9101 3.13437C24.7892 2.87277 24.5576 2.70713 24.3034 2.70049L24 2.77938H18.0675C17.6289 0.797035 15.9001 -0.393945 14.206 0.119215C13.0915 0.456841 12.2212 1.47523 11.9327 2.77938H6.00013L5.69677 2.70049C5.44263 2.70713 5.21101 2.87277 5.09003 3.13437L0.505793 13.942C0.205459 14.0176 -0.00667828 14.3321 0.000160695 14.6915C0.000160695 18.0048 2.56194 20.7264 5.69677 20.7264C8.8316 20.7264 11.427 18.0048 11.427 14.6915C11.4215 14.3371 11.2147 14.0306 10.9214 13.942L6.84287 4.35714H11.899C12.1539 5.78397 13.1066 6.89877 14.3259 7.19707V21.0419C12.1349 21.3575 10.4158 23.2902 10.1462 25.2624H8.66301C8.26738 25.2996 7.95324 25.6672 7.92143 26.1301V29.2856C7.95659 29.7194 8.28564 30.0376 8.6563 29.9964C8.65856 29.9961 8.66075 29.9958 8.66301 29.9956H21.3371C21.7074 30.0411 22.0391 29.7268 22.078 29.2935C22.0782 29.2908 22.0784 29.2883 22.0786 29.2856V26.1301C22.0468 25.6672 21.7327 25.2996 21.337 25.2624H19.8539C19.5842 23.2902 17.8651 21.3575 15.6741 21.0419V7.19714C16.8935 6.89885 17.8461 5.78405 18.101 4.35721H23.1572L19.0786 13.942C18.7853 14.0306 18.5785 14.3371 18.5729 14.6915C18.5729 18.0048 21.1347 20.7264 24.3032 20.7264C27.4717 20.7264 29.9998 18.0048 29.9998 14.6915C30.0069 14.3321 29.7947 14.0176 29.4944 13.942ZM5.69677 19.0697C3.5732 19.0697 1.78668 17.3737 1.41589 15.4014H10.0114C9.64059 17.3737 7.85407 19.0697 5.69677 19.0697ZM9.40465 13.8237H2.02263L5.69677 5.1855L9.40465 13.8237ZM20.7304 26.8401V28.4179H9.26981V26.8401H20.7304ZM18.472 25.2624H11.5282C11.7979 23.6846 13.2473 22.5013 15.0001 22.5013C16.7529 22.5013 18.2023 23.6846 18.472 25.2624ZM15.0001 5.73769C13.9948 5.73769 13.1799 4.78408 13.1799 3.60775C13.1799 2.43141 13.9948 1.4778 15.0001 1.4778C16.0054 1.4778 16.8203 2.43141 16.8203 3.60775C16.8204 4.78408 16.0054 5.73769 15.0001 5.73769ZM24.3034 5.1855L27.9776 13.8237H20.5956L24.3034 5.1855ZM24.3034 19.0697C22.1461 19.0697 20.3596 17.3737 19.9889 15.4014H28.5843C28.2135 17.3737 26.427 19.0697 24.3034 19.0697Z" fill="black"/>
</svg>
