<?xml version="1.0" encoding="UTF-8"?>
<svg width="38px" height="43px" viewBox="0 0 38 43" version="1.1" xmlns="http://www.w3.org/2000/svg" xmlns:xlink="http://www.w3.org/1999/xlink">
    <title>shop-bag-icon</title>
    <defs>
        <polygon id="path-1" points="0.285904484 0.235540541 19.6649045 0.235540541 19.6649045 15.3034459 0.285904484 15.3034459"></polygon>
    </defs>
    <g id="XXL-&gt;-1820-Additional-Pages" stroke="none" stroke-width="1" fill="none" fill-rule="evenodd">
        <g id="Overworkes-Navigation" transform="translate(-1825.000000, -55.000000)">
            <g id="shop-bag-icon" transform="translate(1825.000000, 56.000000)">
                <path d="M8.29230588,22.3920405 C8.21283529,22.3920405 8.13212941,22.3956892 8.05101176,22.4033919 C7.39507059,22.4666351 6.80377647,22.7771757 6.38501176,23.2782568 C5.96707059,23.7793378 5.77148235,24.4105541 5.83530588,25.0563649 L6.43771765,31.1406892 C6.56948235,32.4732568 7.7706,33.449473 9.13230588,33.3221757 C9.78824706,33.2593378 10.3795412,32.9487973 10.7983059,32.4477162 C11.2166588,31.9466351 11.4118353,31.3150135 11.3480118,30.6696081 L10.7456,24.5852838 C10.6212471,23.3321757 9.54530588,22.3920405 8.29230588,22.3920405 M8.8906,34.1447432 C7.21883529,34.1447432 5.78383529,32.8908243 5.61830588,31.2193378 L5.01589412,25.1350135 C4.93065882,24.2739324 5.19089412,23.4315 5.74883529,22.7633919 C6.3076,22.0948784 7.09654118,21.6805541 7.97154118,21.5966351 C9.77589412,21.4202838 11.3891882,22.7289324 11.5650118,24.5062297 L12.1674235,30.5909595 C12.2526588,31.4520405 11.9924235,32.294473 11.4344824,32.9625811 C10.8757176,33.6310946 10.0867765,34.0454189 9.21177647,34.1293378 C9.10430588,34.1398784 8.99683529,34.1447432 8.8906,34.1447432" id="Fill-1" stroke="#EB5B50" stroke-width="0.5" fill="#E95B4F"></path>
                <path d="M6.69227059,22.0420541 C6.69227059,22.0412432 6.61238824,21.1813784 6.5498,20.6271892 C6.24427059,20.5716486 5.98403529,20.4342162 5.95027059,20.415973 C5.08762353,19.9594865 4.76109412,18.8924595 5.22638824,18.0386757 C5.69209412,17.1857027 6.77627059,16.8638108 7.64262353,17.3223243 C7.84315294,17.4281351 7.91850588,17.6738108 7.81062353,17.8712432 C7.70274118,18.0682703 7.45362353,18.1428649 7.25309412,18.0366486 C6.78656471,17.7905676 6.20309412,17.9628649 5.95191765,18.4225946 C5.70156471,18.8823243 5.87738824,19.4567838 6.34350588,19.7036757 C6.40774118,19.7377297 6.61856471,19.8325946 6.77956471,19.8394865 C7.07315294,19.8528649 7.31238824,20.0721892 7.3478,20.3616486 C7.41244706,20.8951622 7.51250588,21.9678649 7.51250588,21.9678649 L6.69227059,22.0420541 Z" id="Fill-3" stroke="#EB5B50" stroke-width="0.5" fill="#E95B4F"></path>
                <path d="M8.47101176,21.9265541 L8.32936471,20.1987162 C8.3096,19.9647973 8.43107059,19.7402027 8.63983529,19.6270946 C8.75965882,19.5626351 8.95565882,19.4231757 9.02154118,19.3753378 C9.39254118,19.0506081 9.43042353,18.4514189 9.07918824,18.0606081 C8.72918824,17.6697973 8.1206,17.6329054 7.72283529,17.9779054 C7.55277647,18.1258784 7.29254118,18.110473 7.14142353,17.9422297 C6.99112941,17.7743919 7.00718824,17.5181757 7.17765882,17.3702027 C7.91512941,16.7288514 9.04501176,16.7973649 9.69683529,17.5238514 C10.3478353,18.2499324 10.2778353,19.3623649 9.54036471,20.0037162 C9.49712941,20.0369595 9.32583529,20.1630405 9.16071765,20.2647973 L9.29207059,21.8616892 L8.47101176,21.9265541 Z" id="Fill-5" stroke="#EB5B50" stroke-width="0.5" fill="#E95B4F"></path>
                <path d="M8.60273529,38.7012973 C8.08720588,38.7012973 7.57538235,38.4831892 7.22291176,38.061973 C6.59744118,37.3135946 6.70697059,36.204 7.46667647,35.5885946 C7.49385294,35.5667027 7.72073529,35.3822432 8.00979412,35.2691351 C7.96161765,34.7137297 7.87061765,33.8550811 7.87061765,33.8542703 L8.68920588,33.7699459 C8.68920588,33.7699459 8.80285294,34.8414324 8.84485294,35.3761622 C8.86791176,35.6668378 8.67685294,35.9283243 8.39067647,35.9976486 C8.23420588,36.0353514 8.04602941,36.1687297 7.99291176,36.2129189 C7.79197059,36.3754865 7.66885294,36.6021081 7.64414706,36.8538649 C7.61944118,37.1052162 7.69561765,37.3512973 7.85867647,37.5467027 C8.19632353,37.9492703 8.80244118,38.0072432 9.21173529,37.676027 C9.38714706,37.5333243 9.64655882,37.5584595 9.7915,37.7311622 C9.93561765,37.9042703 9.9105,38.1596757 9.73508824,38.301973 C9.40320588,38.5703514 9.00214706,38.7012973 8.60273529,38.7012973" id="Fill-7" stroke="#EB5B50" stroke-width="0.5" fill="#E95B4F"></path>
                <path d="M10.1645176,38.5827162 C9.85981176,38.5827162 9.55098824,38.5060946 9.26892941,38.3439324 C9.07292941,38.2312297 9.00622353,37.9831216 9.12069412,37.7897432 C9.23557647,37.5963649 9.48716471,37.5315 9.68398824,37.6437973 C10.1418706,37.9069054 10.7315176,37.7532568 10.9983412,37.3024459 C11.2647529,36.8520405 11.1095176,36.2715 10.6516353,36.0087973 C10.6075765,35.9897432 10.3876941,35.8904189 10.2584,35.8502838 C10.0319294,35.7797432 9.86722353,35.5831216 9.84004706,35.3492027 L9.63787059,33.6266351 L10.4556353,33.5333919 L10.6425765,35.1246081 C10.8229294,35.1927162 11.0111059,35.2806892 11.0366353,35.2928514 C11.9165765,35.7959595 12.2048118,36.8739324 11.7098706,37.7110946 C11.3784,38.2701486 10.7792824,38.5827162 10.1645176,38.5827162" id="Fill-9" stroke="#EB5B50" stroke-width="0.5" fill="#E95B4F"></path>
                <g id="Group-13" transform="translate(11.176471, 9.170027)">
                    <mask id="mask-2" fill="white">
                        <use xlink:href="#path-1"></use>
                    </mask>
                    <g id="Clip-12"></g>
                    <path d="M12.3912984,1.82997297 C11.7759885,1.82997297 11.1543621,1.93381182 10.5509422,2.14691663 C8.95656141,2.70880417 8.30223733,3.60572577 7.54499005,4.64447603 C6.73200817,5.75920593 5.81015806,7.02263884 3.61347211,7.9966255 C0.960877219,9.17286274 2.0046003,11.7377184 2.13241829,12.0260792 C2.49023435,12.809755 3.13749872,13.3937128 3.95345311,13.6665159 C4.76866437,13.939319 5.67082159,13.8680429 6.43066982,13.4722251 C7.32242325,13.005493 8.25579184,12.6780569 9.20365143,12.4993239 C10.0738541,12.3350631 10.9488872,12.2981587 11.8042274,12.3893343 C14.3594725,12.6596047 16.7148163,11.1903032 17.5367157,8.81539661 C18.2055307,6.88008656 17.6853412,4.78630469 16.1779064,3.35209848 C15.1330686,2.35748878 13.7772318,1.82997297 12.3912984,1.82997297 M4.81830978,14.829973 C4.38421344,14.829973 3.94935218,14.7602891 3.53284917,14.619038 C2.48910564,14.2664753 1.66298397,13.5142662 1.20593981,12.5010252 C0.616945657,11.1555615 0.358400172,8.55465829 3.11443384,7.31842883 C5.18815221,6.38805504 6.07317329,5.16086565 6.85416424,4.07831737 C7.63668504,2.99275573 8.44559584,1.87065715 10.3116364,1.20583539 C12.6083311,0.385072445 15.1329742,0.930113282 16.8991918,2.62964629 C18.6623496,4.32691927 19.2708494,6.80502824 18.4871812,9.09706244 C17.5260498,11.9073939 14.7692512,13.6461006 11.7791498,13.3259315 C10.9755934,13.2392975 10.1506192,13.2750811 9.33099939,13.4313989 C8.43067975,13.6027836 7.54336389,13.9184327 6.69238208,14.3681761 C6.1121846,14.6744084 5.46582088,14.829973 4.81830978,14.829973" id="Fill-11" stroke="#EB5B50" stroke-width="0.5" fill="#E95B4F" mask="url(#mask-2)"></path>
                </g>
                <path d="M23.1213824,13.327973 C23.0476765,13.327973 22.9731471,13.3348649 22.8990294,13.3490541 C22.5951471,13.407027 22.3324412,13.5777027 22.1595,13.8302703 C21.9865588,14.0824324 21.9235588,14.3864865 21.9820294,14.6856757 C22.1039118,15.3027027 22.7141471,15.7085135 23.3392059,15.5877027 C23.6435,15.5301351 23.9057941,15.3590541 24.0787353,15.1068919 C24.2520882,14.8543243 24.3146765,14.5506757 24.2562059,14.2518919 L24.2562059,14.2514865 C24.1969118,13.9527027 24.0235588,13.6940541 23.7670294,13.5233784 C23.5739118,13.3948649 23.3503235,13.327973 23.1213824,13.327973 M23.1185,16.4195946 C22.1887353,16.4195946 21.3569706,15.7709459 21.1741471,14.8397297 C21.0728529,14.3281081 21.1807353,13.8083784 21.4772059,13.3766216 C21.7732647,12.9444595 22.2225,12.6521622 22.7421471,12.5528378 C23.2617941,12.4551351 23.7896765,12.5601351 24.2282059,12.8516216 C24.6671471,13.1435135 24.9640294,13.5858108 25.0645,14.0974324 C25.1653824,14.6090541 25.0575,15.1283784 24.7614412,15.5605405 C24.4653824,15.9922973 24.0157353,16.2845946 23.4960882,16.3839189 C23.3696765,16.4082432 23.2428529,16.4195946 23.1185,16.4195946" id="Fill-14" stroke="#EB5B50" stroke-width="0.5" fill="#E95B4F"></path>
                <path d="M28.2295,38.7646216 L17.7966176,38.7646216 C15.3042059,38.7646216 14.3332647,37.8804324 14.3332647,35.6117838 C14.3332647,35.388 14.5173235,35.2063784 14.7450294,35.2063784 C14.9727353,35.2063784 15.1567941,35.388 15.1567941,35.6117838 C15.1567941,37.2313784 15.5380882,37.9538108 17.7966176,37.9538108 L28.2295,37.9538108 C30.3315588,37.9538108 30.7733824,36.6852973 30.7733824,35.6207027 C30.7733824,35.3969189 30.9574412,35.2152973 31.1851471,35.2152973 C31.4124412,35.2152973 31.5969118,35.3969189 31.5969118,35.6207027 C31.5969118,36.3581351 31.3539706,38.7646216 28.2295,38.7646216" id="Fill-16" stroke="#EB5B50" stroke-width="0.5" fill="#E95B4F"></path>
                <path d="M31.6217412,29.9947703 L30.7982118,29.9947703 C30.7982118,26.9712568 27.3097412,24.5108514 23.0216235,24.5108514 C18.7335059,24.5108514 15.2454471,26.9712568 15.2454471,29.9947703 L14.4219176,29.9947703 C14.4219176,26.5236892 18.2797412,23.7000405 23.0216235,23.7000405 C27.7639176,23.7000405 31.6217412,26.5236892 31.6217412,29.9947703" id="Fill-18" stroke="#EB5B50" stroke-width="0.5" fill="#E95B4F"></path>
                <path d="M18.1420882,27.5292568 C18.1420882,27.6873649 18.0119706,27.8158784 17.8513824,27.8158784 C17.6903824,27.8158784 17.5602647,27.6873649 17.5602647,27.5292568 C17.5602647,27.3711486 17.6903824,27.2430405 17.8513824,27.2430405 C18.0119706,27.2430405 18.1420882,27.3711486 18.1420882,27.5292568" id="Fill-20" stroke="#EB5B50" fill="#E95B4F"></path>
                <path d="M19.4099529,28.3248243 C19.4099529,28.4829324 19.2798353,28.6114459 19.1188353,28.6114459 C18.9582471,28.6114459 18.8281294,28.4829324 18.8281294,28.3248243 C18.8281294,28.1667162 18.9582471,28.0382027 19.1188353,28.0382027 C19.2798353,28.0382027 19.4099529,28.1667162 19.4099529,28.3248243" id="Fill-22" stroke="#EB5B50" fill="#E95B4F"></path>
                <path d="M28.4844647,27.494027 C28.4844647,27.6521351 28.3547588,27.7802432 28.1937588,27.7802432 C28.0331706,27.7802432 27.9030529,27.6521351 27.9030529,27.494027 C27.9030529,27.3359189 28.0331706,27.2074054 28.1937588,27.2074054 C28.3547588,27.2074054 28.4844647,27.3359189 28.4844647,27.494027" id="Fill-24" stroke="#EB5B50" fill="#E95B4F"></path>
                <path d="M24.0813,25.6232027 C24.0813,25.7813108 23.9511824,25.9098243 23.7905941,25.9098243 C23.6295941,25.9098243 23.4994765,25.7813108 23.4994765,25.6232027 C23.4994765,25.4650946 23.6295941,25.3369865 23.7905941,25.3369865 C23.9511824,25.3369865 24.0813,25.4650946 24.0813,25.6232027" id="Fill-26" stroke="#EB5B50" fill="#E95B4F"></path>
                <path d="M27.2278412,36.4675946 C27.2278412,36.6257027 27.0977235,36.7538108 26.9367235,36.7538108 C26.7761353,36.7538108 26.6460176,36.6257027 26.6460176,36.4675946 C26.6460176,36.3094865 26.7761353,36.180973 26.9367235,36.180973 C27.0977235,36.180973 27.2278412,36.3094865 27.2278412,36.4675946" id="Fill-28" stroke="#EB5B50" fill="#E95B4F"></path>
                <path d="M23.2054765,37.3443243 C23.2054765,37.5024324 23.0753588,37.6309459 22.9147706,37.6309459 C22.7537706,37.6309459 22.6240647,37.5024324 22.6240647,37.3443243 C22.6240647,37.1862162 22.7537706,37.0581081 22.9147706,37.0581081 C23.0753588,37.0581081 23.2054765,37.1862162 23.2054765,37.3443243" id="Fill-30" stroke="#EB5B50" fill="#E95B4F"></path>
                <path d="M25.6189941,27.3701351 C25.6189941,27.5282432 25.4888765,27.6567568 25.3278765,27.6567568 C25.1672882,27.6567568 25.0371706,27.5282432 25.0371706,27.3701351 C25.0371706,27.212027 25.1672882,27.0839189 25.3278765,27.0839189 C25.4888765,27.0839189 25.6189941,27.212027 25.6189941,27.3701351" id="Fill-32" stroke="#EB5B50" fill="#E95B4F"></path>
                <path d="M16.5408588,35.352527 C16.0710353,35.352527 15.6012118,35.2690135 15.1495059,35.1011757 L13.0997412,34.3386081 C12.8868588,34.2591486 12.7793882,34.0252297 12.8600941,33.8156351 C12.9403882,33.6060405 13.1783882,33.5006351 13.3908588,33.5796892 L15.4406235,34.3426622 C16.2056824,34.6268514 17.0399176,34.6057703 17.7885059,34.2822568 L18.2550353,34.0811757 C19.3108,33.6259054 20.5102706,33.6477973 21.5470941,34.1415811 L21.5993882,34.1663108 C22.4715059,34.5814459 23.4688,34.5765811 24.3355647,34.1533378 C25.3979176,33.6352297 26.6266235,33.6137432 27.7066824,34.0953649 L28.0731529,34.2591486 C28.8303882,34.5968514 29.6753294,34.6240135 30.4535647,34.3353649 L32.3555059,33.6295541 C32.5683882,33.5500946 32.8059765,33.6563108 32.8858588,33.8659054 C32.9665647,34.0755 32.8586824,34.3094189 32.6458,34.3880676 L30.7438588,35.0938784 C29.7605647,35.4587432 28.6908,35.4250946 27.7330353,34.9973919 L27.3665647,34.8340135 C26.5125647,34.4529324 25.5416235,34.4695541 24.7012118,34.8798243 C23.6046824,35.4153649 22.3438588,35.4210405 21.2415647,34.8964459 L21.1892706,34.8717162 C20.3678,34.4805 19.4186824,34.463473 18.5856824,34.8238784 L18.1191529,35.0249595 C17.6135059,35.2430676 17.0778,35.352527 16.5408588,35.352527" id="Fill-34" stroke="#EB5B50" stroke-width="0.5" fill="#E95B4F"></path>
                <path d="M15.1756941,30.5046892 C14.5164588,30.5046892 13.9807529,31.032527 13.9807529,31.6811757 C13.9807529,32.3294189 14.5164588,32.8572568 15.1756941,32.8572568 L30.8705176,32.8572568 C31.5297529,32.8572568 32.0658706,32.3294189 32.0658706,31.6811757 C32.0658706,31.032527 31.5297529,30.5046892 30.8705176,30.5046892 L15.1756941,30.5046892 Z M30.8705176,33.6680676 L15.1756941,33.6680676 C14.0626941,33.6680676 13.1572235,32.7765811 13.1572235,31.6811757 C13.1572235,30.5853649 14.0626941,29.6938784 15.1756941,29.6938784 L30.8705176,29.6938784 C31.9835176,29.6938784 32.8894,30.5853649 32.8894,31.6811757 C32.8894,32.7765811 31.9835176,33.6680676 30.8705176,33.6680676 L30.8705176,33.6680676 Z" id="Fill-36" stroke="#EB5B50" stroke-width="0.5" fill="#E95B4F"></path>
                <path d="M35.0555115,8 L36.9412258,41 L1.05877418,41 L2.94448847,8 L35.0555115,8 Z" id="Rectangle" stroke="#EA5A4F" stroke-width="2"></path>
                <path d="M19.0411049,3 L19.0411049,3 L19.0411049,3 L22,3 C24.7614237,3 27,5.23857625 27,8 C27,10.7614237 24.7614237,13 22,13 L19.0256799,13 L19.0256799,13" id="Rectangle" stroke="#EA5A4F" stroke-width="2" transform="translate(19.000000, 8.000000) rotate(-90.000000) translate(-19.000000, -8.000000) "></path>
            </g>
        </g>
    </g>
</svg>
