<svg width="24" height="20" viewBox="0 0 24 20" fill="none" xmlns="http://www.w3.org/2000/svg">
<path d="M22.3348 1.63404C21.236 0.561038 19.7178 0.024765 17.7796 0.024765C17.2432 0.024765 16.6958 0.117765 16.1379 0.303674C15.5798 0.48972 15.0606 0.740719 14.5808 1.05649C14.1005 1.37217 13.6877 1.66863 13.3413 1.9454C12.9954 2.22227 12.6666 2.51649 12.3552 2.82786C12.0436 2.51649 11.7148 2.22227 11.3689 1.9454C11.0227 1.66863 10.6097 1.37236 10.1294 1.05649C9.64925 0.740583 9.13011 0.489765 8.57211 0.303674C8.01416 0.11781 7.46684 0.024765 6.93048 0.024765C4.99243 0.024765 3.47416 0.561174 2.37543 1.63404C1.2767 2.70681 0.727295 4.19481 0.727295 6.09817C0.727295 6.67786 0.829113 7.27504 1.03234 7.88899C1.23557 8.50327 1.46716 9.02676 1.72666 9.45927C1.98611 9.89172 2.28034 10.3134 2.60911 10.7244C2.93789 11.1354 3.17816 11.4186 3.32939 11.5744C3.48075 11.7301 3.59975 11.8427 3.68625 11.9119L11.7841 19.7244C11.9399 19.8802 12.1302 19.9583 12.3551 19.9583C12.58 19.9583 12.7705 19.8802 12.9262 19.7244L21.0112 11.9376C22.9924 9.95672 23.983 8.01008 23.983 6.09799C23.983 4.19449 23.4337 2.70663 22.3348 1.63404ZM19.8821 10.7179L12.3552 17.9723L4.81539 10.7049C3.19748 9.08736 2.38866 7.55149 2.38866 6.09799C2.38866 5.39731 2.48166 4.77863 2.66757 4.24236C2.85361 3.70599 3.09152 3.27977 3.38134 2.96399C3.6712 2.64813 4.0237 2.39095 4.43898 2.19181C4.85448 1.99286 5.26107 1.85872 5.65898 1.78954C6.05689 1.72045 6.48075 1.68586 6.9307 1.68586C7.38052 1.68586 7.86511 1.79604 8.3842 2.01672C8.9032 2.23731 9.3812 2.51417 9.81807 2.84722C10.255 3.18049 10.6292 3.4919 10.9408 3.78163C11.2522 4.07163 11.5117 4.33749 11.7193 4.57976C11.875 4.77017 12.0871 4.86536 12.3552 4.86536C12.6234 4.86536 12.8353 4.77017 12.9911 4.57976C13.1987 4.33749 13.4584 4.07149 13.7698 3.78163C14.0812 3.4919 14.4555 3.18063 14.8922 2.84722C15.3292 2.51417 15.8072 2.23731 16.3265 2.01672C16.8454 1.79608 17.3301 1.68586 17.78 1.68586C18.2298 1.68586 18.6536 1.72045 19.0517 1.78954C19.4497 1.85867 19.8563 1.99286 20.2717 2.19181C20.687 2.3909 21.0395 2.64827 21.3292 2.96399C21.6191 3.27977 21.8571 3.70599 22.0431 4.24236C22.2288 4.77863 22.3218 5.39731 22.3218 6.09799C22.3218 7.55149 21.5087 9.09163 19.8821 10.7179Z" fill="black"/>
</svg>
