<?xml version="1.0" encoding="UTF-8"?>
<svg width="30px" height="30px" viewBox="0 0 30 30" version="1.1" xmlns="http://www.w3.org/2000/svg" xmlns:xlink="http://www.w3.org/1999/xlink">
    <title>whatsapp</title>
    <g id="XS-&gt;-300" stroke="none" stroke-width="1" fill="none" fill-rule="evenodd">
        <g id="Bestellinfo" transform="translate(-65.000000, -3277.000000)" fill-rule="nonzero">
            <g id="whatsapp" transform="translate(65.000000, 3277.000000)">
                <rect id="Rectangle" fill="#1BD741" x="0" y="0" width="29.9823026" height="29.9823026" rx="14.9911513"></rect>
                <g id="Group" transform="translate(4.473684, 4.473684)" fill="#FFFFFF">
                    <path d="M0.0325,21.0138158 L1.50111842,15.7977632 C0.556710526,14.1933553 0.0594736842,12.3678947 0.0594736842,10.4926316 C0.0594736842,4.71861842 4.75697368,0.0211184211 10.5309868,0.0211184211 C16.305,0.0211184211 21.0024342,4.71861842 21.0024342,10.4926316 C21.0024342,16.2666447 16.305,20.9641447 10.5309868,20.9641447 C8.73184211,20.9641447 6.97013158,20.5036184 5.41164474,19.6291447 L0.0325,21.0138158 Z M5.68664474,17.7240789 L6.00717105,17.9198026 C7.36598684,18.7493421 8.93032895,19.1878289 10.5309868,19.1878289 C15.3255263,19.1878289 19.2261184,15.2871711 19.2261184,10.4926316 C19.2261184,5.69809211 15.3255263,1.79743421 10.5309868,1.79743421 C5.73644737,1.79743421 1.83578947,5.69809211 1.83578947,10.4926316 C1.83578947,12.1632237 2.31059211,13.7855263 3.20875,15.1841447 L3.42460526,15.5202632 L2.57888158,18.5240789 L5.68664474,17.7240789 Z" id="Shape"></path>
                    <path d="M7.58940789,5.61888158 L6.90993421,5.58184211 C6.69651316,5.57019737 6.48717105,5.64151316 6.32585526,5.78164474 C5.99644737,6.06769737 5.46973684,6.62072368 5.30796053,7.34138158 C5.06671053,8.41592105 5.43953947,9.73171053 6.40447368,11.0475 C7.36940789,12.3632895 9.16763158,14.4685526 12.3474342,15.3676974 C13.3721053,15.6574342 14.1781579,15.4621053 14.8000658,15.0642763 C15.2926316,14.7492105 15.6321711,14.2434868 15.7545395,13.6717763 L15.8630263,13.1650658 C15.8975,13.0040132 15.8157237,12.8405921 15.6661184,12.7716447 L13.3697368,11.7131579 C13.2206579,11.6444737 13.0438816,11.6878947 12.9436184,11.8178289 L12.0421053,12.9865132 C11.9740132,13.0748026 11.8574342,13.1098026 11.7521711,13.0728289 C11.1348026,12.8558553 9.06677632,11.9897368 7.93203947,9.80394737 C7.88282895,9.70914474 7.89506579,9.59407895 7.96486842,9.51322368 L8.82644737,8.51651316 C8.91447368,8.41473684 8.93671053,8.27164474 8.88381579,8.14796053 L7.89394737,5.83210526 C7.84125,5.70881579 7.72315789,5.62618421 7.58940789,5.61888158 Z" id="Path"></path>
                </g>
            </g>
        </g>
    </g>
</svg>