<svg width="30" height="30" viewBox="0 0 30 30" fill="none" xmlns="http://www.w3.org/2000/svg">
    <path d="M29.144 4.10157C28.7046 3.66211 27.9838 3.65625 27.5444 4.10157L13.9799 17.625L9.08736 12.3106C8.66549 11.8535 7.95064 11.8242 7.48775 12.2461C7.03072 12.668 7.00143 13.3828 7.4233 13.8457L13.1128 20.0273C13.3237 20.2559 13.6108 20.3848 13.9213 20.3906C13.9272 20.3906 13.9389 20.3906 13.9448 20.3906C14.2436 20.3906 14.5307 20.2734 14.7417 20.0625L29.1381 5.70118C29.5835 5.26172 29.5835 4.54102 29.144 4.10157Z" fill="black"/>
    <path d="M28.8691 13.8691C28.2422 13.8691 27.7383 14.373 27.7383 15C27.7383 22.0254 22.0254 27.7383 15 27.7383C7.97461 27.7383 2.26172 22.0254 2.26172 15C2.26172 7.97461 7.97461 2.26172 15 2.26172C15.627 2.26172 16.1309 1.75781 16.1309 1.13086C16.1309 0.503906 15.627 0 15 0C6.72656 0 0 6.72656 0 15C0 23.2734 6.72656 30 15 30C23.2734 30 30 23.2734 30 15C30 14.373 29.4961 13.8691 28.8691 13.8691Z" fill="black"/>
</svg>
