<svg xmlns="http://www.w3.org/2000/svg" width="30" height="30" viewBox="0 0 30 30" fill="none">
    <path d="M28.5615 4.10169C28.1309 3.66224 27.4247 3.65638 26.994 4.10169L13.7018 17.6251L8.90736 12.3107C8.49395 11.8536 7.79345 11.8243 7.33985 12.2462C6.89199 12.6681 6.86328 13.3829 7.27669 13.8458L12.852 20.0275C13.0587 20.256 13.34 20.3849 13.6443 20.3908C13.6501 20.3908 13.6616 20.3908 13.6673 20.3908C13.9601 20.3908 14.2415 20.2736 14.4482 20.0626L28.5558 5.7013C28.9922 5.26184 28.9922 4.54114 28.5615 4.10169Z" fill="white"/>
    <path d="M28.2898 13.8692C27.6755 13.8692 27.1817 14.3731 27.1817 15.0001C27.1817 22.0255 21.5834 27.7383 14.699 27.7383C7.81458 27.7383 2.21633 22.0255 2.21633 15.0001C2.21633 7.97467 7.81458 2.26178 14.699 2.26178C15.3134 2.26178 15.8072 1.75787 15.8072 1.13092C15.8072 0.503967 15.3134 6.10352e-05 14.699 6.10352e-05C6.59158 6.10352e-05 0 6.72662 0 15.0001C0 23.2735 6.59158 30.0001 14.699 30.0001C22.8064 30.0001 29.398 23.2735 29.398 15.0001C29.398 14.3731 28.9042 13.8692 28.2898 13.8692Z" fill="white"/>
</svg>
