<?xml version="1.0" encoding="utf-8"?>
<!-- Generator: Adobe Illustrator 24.1.2, SVG Export Plug-In . SVG Version: 6.00 Build 0)  -->
<svg version="1.1" id="Ebene_1" xmlns="http://www.w3.org/2000/svg" xmlns:xlink="http://www.w3.org/1999/xlink" x="0px" y="0px"
	 viewBox="0 0 400 400" style="enable-background:new 0 0 400 400;" xml:space="preserve">
<style type="text/css">
	.st0{fill:#A7A7A8;}
	.st1{fill:url(#SVGID_1_);}
	.st2{fill:url(#SVGID_2_);}
	.st3{fill:#EFAA65;}
	.st4{fill:url(#SVGID_3_);}
	.st5{fill:url(#SVGID_4_);}
	.st6{fill:url(#SVGID_5_);}
	.st7{fill:#CCCCCC;}
	.st8{fill:url(#SVGID_6_);}
	.st9{fill:#595959;}
	.st10{fill:url(#SVGID_7_);}
	.st11{fill:url(#SVGID_8_);}
	.st12{fill:url(#SVGID_9_);}
	.st13{fill:url(#SVGID_10_);}
	.st14{fill:url(#SVGID_11_);}
	.st15{fill:url(#SVGID_12_);}
	.st16{fill:#676767;}
	.st17{fill:url(#SVGID_13_);}
	.st18{fill:url(#SVGID_14_);}
	.st19{fill:url(#SVGID_15_);}
	.st20{fill:url(#SVGID_16_);}
	.st21{fill:url(#SVGID_17_);}
	.st22{fill:url(#SVGID_18_);}
	.st23{fill:#3D3D3D;}
	.st24{fill:url(#SVGID_19_);}
	.st25{fill:#FFFFFF;}
	.st26{fill:#F44022;}
	.st27{opacity:0.26;fill:#FFFFFF;}
	.st28{fill:url(#SVGID_20_);}
	.st29{fill:url(#SVGID_21_);}
	.st30{fill:url(#SVGID_22_);}
	.st31{fill:url(#SVGID_23_);}
	.st32{fill:#F69220;}
	.st33{fill:url(#SVGID_24_);}
	.st34{fill:url(#SVGID_25_);}
	.st35{fill:url(#SVGID_26_);}
</style>
<g>
	<path class="st0" d="M176.2,314.6h-18.6v-60.1c0-10.2,8.3-18.6,18.6-18.6l0,0V314.6z"/>
	
		<linearGradient id="SVGID_1_" gradientUnits="userSpaceOnUse" x1="3830.6924" y1="271.8981" x2="3830.6924" y2="245.0188" gradientTransform="matrix(1 0 0 1 -3663.7397 0)">
		<stop  offset="0" style="stop-color:#FFFFFF"/>
		<stop  offset="1" style="stop-color:#676767"/>
	</linearGradient>
	<path class="st1" d="M176.2,291h-18.6v-35.9c0-10.2,8.3-18.6,18.6-18.6l0,0V291z"/>
	<g>
		<g>
			<polygon class="st0" points="151.3,45.3 108.5,92.4 144.1,110.8 142.6,132.8 86.6,92.6 144.1,32.8 			"/>
		</g>
		<g>
			
				<linearGradient id="SVGID_2_" gradientUnits="userSpaceOnUse" x1="1482.2766" y1="572.6353" x2="1482.8351" y2="587.1541" gradientTransform="matrix(-0.8751 0.4839 -0.4839 -0.8751 1694.0017 -146.2904)">
				<stop  offset="0" style="stop-color:#FFFFFF"/>
				<stop  offset="1" style="stop-color:#676767"/>
			</linearGradient>
			<polygon class="st2" points="151.3,45.3 108.5,92.4 144.1,110.8 142.6,132.8 86.6,92.6 144.1,32.8 			"/>
		</g>
	</g>
	<g>
		<path class="st3" d="M95,104.6l-7.8-10.5c-0.7-0.9-0.8-2.1-0.3-3.1l2.1-4.4c0.7-1.4,2.2-2.1,3.7-1.6l4,1.4l8.6,3
			c1.9,0.7,2.6,2.8,1.5,4.5l-6.4,9.7l-0.6,0.8C98.8,106.2,96.3,106.3,95,104.6z"/>
		
			<linearGradient id="SVGID_3_" gradientUnits="userSpaceOnUse" x1="777.3933" y1="-908.7527" x2="795.5682" y2="-908.7527" gradientTransform="matrix(0.7634 -0.6459 0.6459 0.7634 86.9906 1298.7485)">
			<stop  offset="0" style="stop-color:#FFFFFF"/>
			<stop  offset="1" style="stop-color:#F69220"/>
		</linearGradient>
		<path class="st4" d="M107,93.9l-7.2,10.9c-1,1-2.9,1.4-4.3,0.4c0,0-5.3-6.9-5.3-6.9c5.8-1.4,9.3-4.7,13.4-9.5l1.5,0.5
			C107,89.9,108,91.6,107,93.9z"/>
	</g>
	<path class="st3" d="M161.2,135.7h-13.7c-7.6,0-13.7-6.2-13.7-13.7l0,0c0-7.6,6.2-13.7,13.7-13.7h13.7V135.7z"/>
	<linearGradient id="SVGID_4_" gradientUnits="userSpaceOnUse" x1="133.7387" y1="121.9757" x2="161.2147" y2="121.9757">
		<stop  offset="0" style="stop-color:#FFFFFF"/>
		<stop  offset="1" style="stop-color:#F69220"/>
	</linearGradient>
	<path class="st5" d="M161.2,135.7h-13.7c-7.6,0-13.7-6.2-13.7-13.7l0,0c0-7.6,6.2-13.7,13.7-13.7h13.7V135.7z"/>
	<g>
		<polygon class="st0" points="249.3,86.3 285.7,120.7 238.7,109.9 234.4,133.6 310.7,134.9 260.6,73.3 		"/>
	</g>
	<g>
		
			<linearGradient id="SVGID_5_" gradientUnits="userSpaceOnUse" x1="860.6652" y1="-144.0186" x2="861.0594" y2="-133.7675" gradientTransform="matrix(0.6804 0.7329 0.7329 -0.6804 -203.1483 -616.8245)">
			<stop  offset="0" style="stop-color:#FFFFFF"/>
			<stop  offset="1" style="stop-color:#676767"/>
		</linearGradient>
		<polygon class="st6" points="261.1,72.9 310.9,135.3 234.4,133.6 239.3,110.1 285.7,120.7 249.9,86.5 		"/>
	</g>
	<ellipse class="st7" cx="200" cy="388.5" rx="133.5" ry="6.4"/>
	<path class="st3" d="M176.1,386.7v-91.6h-10c-3.4,0-6.5,1.8-8.3,4.7c-6.2,10.5-19.7,38.8-19.7,86.8H176.1z"/>
	
		<linearGradient id="SVGID_6_" gradientUnits="userSpaceOnUse" x1="127.4532" y1="304.8322" x2="127.4532" y2="356.9834" gradientTransform="matrix(-1 0 0 1 284.3046 0)">
		<stop  offset="0" style="stop-color:#FFFFFF"/>
		<stop  offset="1" style="stop-color:#F69220"/>
	</linearGradient>
	<path class="st8" d="M137.9,386.7h38v-91.6h-10c-0.6,0-1.1,0.1-1.7,0.2c-2.7,0.5-5.2,2.1-6.6,4.6c-0.6,1-1.3,2.3-2,3.7
		c-3.7,7-8.7,18.4-12.5,34.5c-1.4,6-2.6,12.7-3.5,20c-0.1,0.8-0.2,1.7-0.3,2.5C138.4,368.5,137.9,377.2,137.9,386.7z"/>
	<path class="st9" d="M176.1,386.7h-50.8c0-4.4,1.2-8.6,3.3-12.1c1-1.8,2.3-3.5,3.8-5c4.4-4.4,10.4-7.1,17.1-7.1h2.4
		c4.8,0,9.3,1.4,13.1,3.9C171.6,370.6,176.1,378.2,176.1,386.7z"/>
	
		<linearGradient id="SVGID_7_" gradientUnits="userSpaceOnUse" x1="380.0833" y1="368.5415" x2="416.9125" y2="368.5415" gradientTransform="matrix(1 0 0 1 -251.5933 0)">
		<stop  offset="0" style="stop-color:#FFFFFF"/>
		<stop  offset="1" style="stop-color:#676767"/>
	</linearGradient>
	<path class="st10" d="M159,374.6h-30.5c1-1.8,2.3-3.5,3.8-5c4.4-4.4,10.4-7.1,17.1-7.1h2.4c4.8,0,9.3,1.4,13.1,3.9c0,0,0,0.1,0,0.1
		C166.4,370.4,163.3,374.6,159,374.6z"/>
	
		<linearGradient id="SVGID_8_" gradientUnits="userSpaceOnUse" x1="155.0405" y1="302.0055" x2="130.1145" y2="324.7827" gradientTransform="matrix(-1 0 0 1 284.3046 0)">
		<stop  offset="0" style="stop-color:#FFFFFF"/>
		<stop  offset="1" style="stop-color:#F69220"/>
	</linearGradient>
	<path class="st11" d="M143.3,338.1c0.9,0.1,1.8,0.2,2.7,0.2c10.3,0,18.7-8.4,18.7-18.7c0-6.8-3.6-12.7-9-16
		C152.1,310.5,147.1,321.9,143.3,338.1z"/>
	<path class="st0" d="M214.3,309.9h18.6v-60.1c0-10.2-8.3-18.6-18.6-18.6l0,0V309.9z"/>
	
		<linearGradient id="SVGID_9_" gradientUnits="userSpaceOnUse" x1="312.3643" y1="267.2629" x2="312.3643" y2="240.3836" gradientTransform="matrix(-1 0 0 1 535.8979 0)">
		<stop  offset="0" style="stop-color:#FFFFFF"/>
		<stop  offset="1" style="stop-color:#676767"/>
	</linearGradient>
	<path class="st12" d="M214.3,286.4h18.6v-35.9c0-10.2-8.3-18.6-18.6-18.6l0,0V286.4z"/>
	<path class="st3" d="M214.3,386.7v-91.6h10c3.4,0,6.5,1.8,8.3,4.7c6.2,10.5,19.7,38.8,19.7,86.8H214.3z"/>
	<linearGradient id="SVGID_10_" gradientUnits="userSpaceOnUse" x1="233.3681" y1="304.8322" x2="233.3681" y2="356.9834">
		<stop  offset="0" style="stop-color:#FFFFFF"/>
		<stop  offset="1" style="stop-color:#F69220"/>
	</linearGradient>
	<path class="st13" d="M252.3,386.7h-38v-91.6h10c0.6,0,1.1,0.1,1.7,0.2c2.7,0.5,5.2,2.1,6.6,4.6c0.6,1,1.3,2.3,2,3.7
		c3.7,7,8.7,18.4,12.5,34.5c1.4,6,2.6,12.7,3.5,20c0.1,0.8,0.2,1.7,0.3,2.5C251.8,368.5,252.3,377.2,252.3,386.7z"/>
	<path class="st9" d="M214.3,386.7h50.8c0-4.4-1.2-8.6-3.3-12.1c-1-1.8-2.3-3.5-3.8-5c-4.4-4.4-10.4-7.1-17.1-7.1h-2.4
		c-4.8,0-9.3,1.4-13.1,3.9C218.7,370.6,214.3,378.2,214.3,386.7z"/>
	
		<linearGradient id="SVGID_11_" gradientUnits="userSpaceOnUse" x1="274.0665" y1="368.5415" x2="310.8956" y2="368.5415" gradientTransform="matrix(-1 0 0 1 535.8979 0)">
		<stop  offset="0" style="stop-color:#FFFFFF"/>
		<stop  offset="1" style="stop-color:#676767"/>
	</linearGradient>
	<path class="st14" d="M231.3,374.6h30.5c-1-1.8-2.3-3.5-3.8-5c-4.4-4.4-10.4-7.1-17.1-7.1h-2.4c-4.8,0-9.3,1.4-13.1,3.9
		c0,0,0,0.1,0,0.1C223.9,370.4,227,374.6,231.3,374.6z"/>
	<path class="st0" d="M200.3,253.8h-8.7c-21.7,0-39.4-17.6-39.4-39.4l0,0h87.4l0,0C239.7,236.1,222,253.8,200.3,253.8z"/>
	<linearGradient id="SVGID_12_" gradientUnits="userSpaceOnUse" x1="195.9739" y1="239.614" x2="195.9739" y2="206.4977">
		<stop  offset="0" style="stop-color:#FFFFFF"/>
		<stop  offset="1" style="stop-color:#676767"/>
	</linearGradient>
	<path class="st15" d="M200.3,253.4h-8.7c-21.7,0-39.4-17.6-39.4-39.4l0,0h87.4l0,0C239.7,235.8,222.1,253.4,200.3,253.4z"/>
	<path class="st16" d="M221.9,35.1L221.9,35.1L221.9,35.1c-0.5,9.5,3.1,18.8,9.9,25.4l0,0l0,0c5.6-2.2,8.4-8.5,6.2-14.1l-2-5.2
		C233.8,35.7,227.5,32.9,221.9,35.1z"/>
	
		<linearGradient id="SVGID_13_" gradientUnits="userSpaceOnUse" x1="-98.3432" y1="350.0374" x2="-84.5037" y2="350.0374" gradientTransform="matrix(-0.9318 0.363 -0.363 -0.9318 272.447 406.0167)">
		<stop  offset="0" style="stop-color:#FFFFFF"/>
		<stop  offset="1" style="stop-color:#676767"/>
	</linearGradient>
	<path class="st17" d="M221.9,35.4L221.9,35.4L221.9,35.4c-0.5,9.5,3.1,18.8,9.9,25.4l0,0l0,0c5.6-2.2,8.4-8.5,6.2-14.1l-2-5.2
		C233.8,36,227.5,33.2,221.9,35.4z"/>
	<g>
		<path class="st3" d="M310.6,132.9l-6.3-11.5c-0.5-1-1.6-1.6-2.7-1.6l-4.9,0.1c-1.6,0-2.8,1.2-2.9,2.7l-0.4,4.3l-0.9,9.1
			c-0.2,2,1.5,3.5,3.4,3.3l11.5-1.8l1-0.2C310.5,137,311.6,134.7,310.6,132.9z"/>
		
			<linearGradient id="SVGID_14_" gradientUnits="userSpaceOnUse" x1="1358.7008" y1="-56.4306" x2="1376.7205" y2="-56.4306" gradientTransform="matrix(-0.905 0.4254 0.4254 0.905 1563.1486 -396.1151)">
			<stop  offset="0" style="stop-color:#FFFFFF"/>
			<stop  offset="1" style="stop-color:#F69220"/>
		</linearGradient>
		<path class="st18" d="M295.7,139.3l12.9-2c1.3-0.4,2.5-2,2.2-3.7c0,0-4.1-7.6-4.1-7.6c-3.7,4.7-8,6.5-14.1,8.2l-0.1,1.4
			C292.3,137.5,293.2,139.3,295.7,139.3z"/>
	</g>
	<path class="st3" d="M154.6,43.3l-7.1-16.7l30-18.3c0,0,7,6.5,5.8,13.8c-1.2,7.4-12.6,12.6-12.6,12.6l5.3,5.3c0,0-3.9,3.1-11,3.5
		C157.9,44.1,154.6,43.3,154.6,43.3z"/>
	<path class="st9" d="M143.7,54.8l-9.9-17.1c-1-1.8-0.4-4,1.3-5l8.1-4.7c5.6-3.2,12.8-1.3,16,4.3l1.5,2.7c3.2,5.6,1.3,12.8-4.3,16
		l-8.5,4.9C146.5,56.8,144.5,56.3,143.7,54.8z"/>
	<g>
		<path class="st3" d="M233.7,139.1l12.8-4.9c7.1-2.7,10.7-10.6,8-17.7l0,0c-2.7-7.1-10.6-10.7-17.7-8l-12.8,4.9L233.7,139.1z"/>
		
			<linearGradient id="SVGID_15_" gradientUnits="userSpaceOnUse" x1="-96.6748" y1="-186.5748" x2="-69.1988" y2="-186.5748" gradientTransform="matrix(-0.9346 0.3557 0.3557 0.9346 230.528 325.2302)">
			<stop  offset="0" style="stop-color:#FFFFFF"/>
			<stop  offset="1" style="stop-color:#F69220"/>
		</linearGradient>
		<path class="st19" d="M233.7,139.1l12.8-4.9c7.1-2.7,10.7-10.6,8-17.7l0,0c-2.7-7.1-10.6-10.7-17.7-8l-12.8,4.9L233.7,139.1z"/>
	</g>
	<rect x="180.8" y="95.4" class="st16" width="26.4" height="17.4"/>
	<linearGradient id="SVGID_16_" gradientUnits="userSpaceOnUse" x1="180.8251" y1="104.0723" x2="207.2214" y2="104.0723">
		<stop  offset="0" style="stop-color:#FFFFFF"/>
		<stop  offset="1" style="stop-color:#676767"/>
	</linearGradient>
	<rect x="180.8" y="95.4" class="st20" width="26.4" height="17.4"/>
	<path class="st3" d="M230.6,42.2l2.5,21.7c0.9,7.6-0.8,15-4.6,21.2c-3.7,6.2-9.5,11.2-16.6,14c-14.3,5.6-30.5,0.8-39.4-11.6
		l-12.8-17.7c-4.2-5.9-7-12.7-8-19.9l-0.1-0.7c-0.2-1.3-0.3-2.7-0.3-4c-0.3-7.6,1.7-14.9,5.4-21.2c0.1-0.1,0.2-0.3,0.3-0.4
		c4.4-7.2,11-13,19.3-16.2c8.3-3.2,17.1-3.5,25.2-1.1c6.3,1.8,12.1,5.2,16.9,10c1.6,1.6,3,3.3,4.3,5.2l0.4,0.6
		C227.1,28.1,229.7,35,230.6,42.2z"/>
	
		<linearGradient id="SVGID_17_" gradientUnits="userSpaceOnUse" x1="303.0251" y1="-162.1008" x2="303.0251" y2="-124.9587" gradientTransform="matrix(0.9318 -0.363 0.363 0.9318 -46.0508 271.6719)">
		<stop  offset="0" style="stop-color:#FFFFFF"/>
		<stop  offset="1" style="stop-color:#FFFFFF;stop-opacity:0"/>
	</linearGradient>
	<path class="st21" d="M226.1,44.1l2.2,19c0.8,6.6-0.7,13.1-4,18.5c-3.3,5.4-8.3,9.8-14.5,12.2c-12.5,4.9-26.6,0.7-34.5-10.1
		l-11.2-15.5c-3.7-5.1-6.1-11.1-7-17.4l-0.1-0.6c-0.2-1.2-0.3-2.3-0.3-3.5c-0.2-6.6,1.5-13,4.7-18.5c3.8-6.4,9.7-11.7,17.1-14.5
		c12.9-5,27.3-1.8,36.7,7.8c1.4,1.4,2.6,2.9,3.8,4.5l0.3,0.5C223.1,31.7,225.4,37.8,226.1,44.1z"/>
	
		<linearGradient id="SVGID_18_" gradientUnits="userSpaceOnUse" x1="303.0251" y1="-151.884" x2="303.0251" y2="-80.8626" gradientTransform="matrix(0.9318 -0.363 0.363 0.9318 -46.0508 271.6719)">
		<stop  offset="0" style="stop-color:#FFFFFF"/>
		<stop  offset="1" style="stop-color:#F69220"/>
	</linearGradient>
	<path class="st22" d="M230.6,42.2l2.5,21.7c0.9,7.6-0.8,15-4.6,21.2c-3.7,6.2-9.5,11.2-16.6,14c-14.3,5.6-30.5,0.8-39.4-11.6
		l-12.8-17.7c-4.3-5.9-7-12.7-8-19.9l-0.1-0.7c-0.2-1.3-0.3-2.7-0.3-4c8.4,4.8,18.7,15.1,24.9,25.8c9,15.6,21.2,14.4,29.7,11.1
		c8.5-3.3,17.2-10.6,14.4-27.9c-1.3-7.9-6.9-25.9-2-37.9c1.6,1.6,3,3.3,4.3,5.2l0.4,0.6C227.1,28.1,229.7,35,230.6,42.2z"/>
	<path class="st23" d="M191.7,41.3c3.1,6.9,2,14.4-4.9,17.5s-8.1-5.3-11.1-12.1c-3.1-6.9-6.9-9.7,0-12.7S188.6,34.4,191.7,41.3z"/>
	<path class="st16" d="M227.2,26.3c3.4,7.6-0.8,17.3-8.4,20.7c-7.6,3.4-8.3-5.9-12.5-13.1c-4.2-7.4-6.6-11.7,1-15.1
		S223.8,18.7,227.2,26.3z"/>
	
		<linearGradient id="SVGID_19_" gradientUnits="userSpaceOnUse" x1="339.8918" y1="-146.4822" x2="360.3207" y2="-146.4822" gradientTransform="matrix(0.913 -0.4079 0.4079 0.913 -44.1798 308.0387)">
		<stop  offset="0" style="stop-color:#FFFFFF"/>
		<stop  offset="1" style="stop-color:#709BC0"/>
	</linearGradient>
	<path class="st24" d="M225,27.3c2.9,6.4,0,13.9-6.4,16.8c-6.4,2.9-9.4-2.5-13-10.2c-3-6.3-3.7-10.1,2.7-13
		C214.7,18,222.2,20.9,225,27.3z"/>
	<path class="st25" d="M221.9,25.2c1.6,3.7,0,8-3.7,9.7c-3.7,1.6-3.9-1.1-5.6-4.8c-1.6-3.7-4.1-6.9-0.4-8.5S220.3,21.5,221.9,25.2z"
		/>
	<path class="st26" d="M218.4,22.5c0.7,2,1,3.4-0.6,4.8c-1.3,1.2-3.2-2-4.4-3.3c-1.2-1.3-1.2-2.2,0.5-2.9
		C215.5,20.4,217.7,20.5,218.4,22.5z"/>
	<path class="st27" d="M211,22.4c0.7-3,2.9-5,5.9-4.3s3.9,2.8,4.9,6.8c0.7,3-2.4-0.6-5.4-1.3S210.3,25.3,211,22.4z"/>
	<path class="st3" d="M246.6,123.2v81.9c0,5.3-4.3,9.6-9.6,9.6h-82c-5.3,0-9.6-4.3-9.6-9.6v-81.9c0-1.4,0.2-2.7,0.5-3.9
		c1.8-7,8.1-12.1,15.6-12.1h69.1c7.3,0,13.4,4.8,15.4,11.4C246.3,120,246.6,121.6,246.6,123.2z"/>
	<linearGradient id="SVGID_20_" gradientUnits="userSpaceOnUse" x1="195.9739" y1="139.5038" x2="195.9739" y2="208.9772">
		<stop  offset="0" style="stop-color:#FFFFFF"/>
		<stop  offset="1" style="stop-color:#F69220"/>
	</linearGradient>
	<path class="st28" d="M246.6,123.2v81.9c0,5.3-4.3,9.6-9.6,9.6h-82c-5.3,0-9.6-4.3-9.6-9.6v-81.9c0-1.4,0.2-2.7,0.5-3.9
		c4.1,9.7,7,21.7,6.6,36.2c-1,35,11.3,45.1,43.4,45.1c32.1,0,40.2-15.7,44.4-58.5c1-9.9,2.9-17.6,5.6-23.5
		C246.3,120,246.6,121.6,246.6,123.2z"/>
	<linearGradient id="SVGID_21_" gradientUnits="userSpaceOnUse" x1="261.0573" y1="302.0055" x2="236.1313" y2="324.7827">
		<stop  offset="0" style="stop-color:#FFFFFF"/>
		<stop  offset="1" style="stop-color:#F69220"/>
	</linearGradient>
	<path class="st29" d="M247,338.1c-0.9,0.1-1.8,0.2-2.7,0.2c-10.3,0-18.7-8.4-18.7-18.7c0-6.8,3.6-12.7,9-16
		C238.3,310.5,243.3,321.9,247,338.1z"/>
	<linearGradient id="SVGID_22_" gradientUnits="userSpaceOnUse" x1="165.4502" y1="140.386" x2="227.9798" y2="140.386">
		<stop  offset="0" style="stop-color:#FFFFFF"/>
		<stop  offset="1" style="stop-color:#676767"/>
	</linearGradient>
	<path class="st30" d="M226.3,159.7h-59.1c-0.9,0-1.7-0.8-1.7-1.7v-35.3c0-0.9,0.8-1.7,1.7-1.7h59.1c0.9,0,1.7,0.8,1.7,1.7V158
		C228,159,227.2,159.7,226.3,159.7z"/>
	<linearGradient id="SVGID_23_" gradientUnits="userSpaceOnUse" x1="165.4502" y1="140.386" x2="227.9798" y2="140.386">
		<stop  offset="0" style="stop-color:#FFFFFF"/>
		<stop  offset="1" style="stop-color:#A7A7A8"/>
	</linearGradient>
	<path class="st31" d="M226.3,159.7h-59.1c-0.9,0-1.7-0.8-1.7-1.7v-35.3c0-0.9,0.8-1.7,1.7-1.7h59.1c0.9,0,1.7,0.8,1.7,1.7V158
		C228,159,227.2,159.7,226.3,159.7z"/>
	<path class="st3" d="M218.8,142.4h-43.4c-0.3,0-0.6-0.3-0.6-0.6l0-11.7c0-0.3,0.3-0.6,0.6-0.6h43.4c0.3,0,0.6,0.3,0.6,0.6v11.7
		C219.3,142.1,219.1,142.4,218.8,142.4z"/>
	<path class="st16" d="M220.7,166.8h-2.8c-0.7,0-1.3-0.6-1.3-1.3v-0.3c0-0.7,0.6-1.3,1.3-1.3h2.8c0.7,0,1.3,0.6,1.3,1.3v0.3
		C222.1,166.2,221.5,166.8,220.7,166.8z"/>
	<path class="st16" d="M220.7,172.3h-2.8c-0.7,0-1.3-0.6-1.3-1.3v-0.3c0-0.7,0.6-1.3,1.3-1.3h2.8c0.7,0,1.3,0.6,1.3,1.3v0.3
		C222.1,171.7,221.5,172.3,220.7,172.3z"/>
	<circle class="st26" cx="183.1" cy="136.2" r="3.2"/>
	<circle class="st26" cx="192.1" cy="136.2" r="3.2"/>
	<path class="st16" d="M204.3,136.2c0,1.8-1.4,3.2-3.2,3.2c-1.8,0-3.2-1.4-3.2-3.2c0-1.8,1.4-3.2,3.2-3.2
		C202.8,133,204.3,134.4,204.3,136.2z"/>
	<circle class="st25" cx="210.1" cy="136.2" r="3.2"/>
	<path class="st32" d="M182.3,153.6h-4.5c-0.1,0-0.2-0.1-0.2-0.2v-4.5c0-0.1,0.1-0.2,0.2-0.2h4.5c0.1,0,0.2,0.1,0.2,0.2v4.5
		C182.6,153.5,182.5,153.6,182.3,153.6z"/>
	<path class="st25" d="M188.5,153.6H184c-0.1,0-0.2-0.1-0.2-0.2v-4.5c0-0.1,0.1-0.2,0.2-0.2h4.5c0.1,0,0.2,0.1,0.2,0.2v4.5
		C188.8,153.5,188.7,153.6,188.5,153.6z"/>
	<path class="st25" d="M194.8,153.6h-4.5c-0.1,0-0.2-0.1-0.2-0.2v-4.5c0-0.1,0.1-0.2,0.2-0.2h4.5c0.1,0,0.2,0.1,0.2,0.2v4.5
		C195,153.5,194.9,153.6,194.8,153.6z"/>
	
		<linearGradient id="SVGID_24_" gradientUnits="userSpaceOnUse" x1="303.67" y1="-185.1276" x2="303.67" y2="-147.2351" gradientTransform="matrix(0.9318 -0.363 0.363 0.9318 -46.0508 271.6719)">
		<stop  offset="0" style="stop-color:#FFFFFF"/>
		<stop  offset="1" style="stop-color:#F69220"/>
	</linearGradient>
	<path class="st33" d="M202.1,6.5c-1.4,9.4-7.7,17.8-17.2,21.5c-9.5,3.7-19.9,1.8-27.3-4.2c4.4-7.2,11-13,19.3-16.2
		C185.2,4.4,194.1,4.1,202.1,6.5z"/>
	<path class="st16" d="M170.2,81.9L170.2,81.9L170.2,81.9c-0.4-9.5-5-18.4-12.5-24.3l0,0l0,0c-5.3,2.7-7.4,9.3-4.7,14.6l2.5,5
		C158.3,82.5,164.9,84.7,170.2,81.9z"/>
	
		<linearGradient id="SVGID_25_" gradientUnits="userSpaceOnUse" x1="298.5748" y1="-152.0386" x2="312.4143" y2="-152.0386" gradientTransform="matrix(0.8896 -0.4568 0.4568 0.8896 -41.8448 346.3633)">
		<stop  offset="0" style="stop-color:#FFFFFF"/>
		<stop  offset="1" style="stop-color:#676767"/>
	</linearGradient>
	<path class="st34" d="M170.2,81.9L170.2,81.9L170.2,81.9c-0.4-9.5-5-18.4-12.5-24.3l0,0l0,0c-5.3,2.7-7.4,9.3-4.7,14.6l2.5,5
		C158.3,82.5,164.9,84.7,170.2,81.9z"/>
	<path class="st26" d="M184.9,35.1c2.3,2.2,1.3,5.5-0.6,7.5c-1.9,2-1.6-0.6-3.6-2.6c-2-1.9-4.4-1.9-2.4-3.9
		C180.2,34,182.5,32.7,184.9,35.1z"/>
	<path class="st25" d="M186.6,44.2c0.7,2,0.4,2.3-0.5,3c-1,0.7-0.5-0.8-1.2-1.8c-0.7-1-2.2-1.1-1.2-1.8
		C184.6,43,186.2,43.1,186.6,44.2z"/>
	<g>
		<g>
			<polygon class="st9" points="231.4,85.2 222.3,79.6 224,73.3 237.4,80.8 			"/>
			<polygon class="st9" points="231.5,75.7 222.2,66.4 210.7,68.4 212.8,60.6 216.9,54 223,50.8 234.8,53.7 244.9,73.1 			"/>
			<path class="st3" d="M252.1,91.7l9.5-15.4l-26.8-22.6c0,0-7.9,5.3-7.9,12.8c0,7.4,10.5,14.4,10.5,14.4l-6,4.5
				c0,0,3.4,3.7,10.4,5.2C248.7,91.9,252.1,91.7,252.1,91.7z"/>
		</g>
		
			<linearGradient id="SVGID_26_" gradientUnits="userSpaceOnUse" x1="152.4756" y1="1713.7173" x2="179.4057" y2="1713.7173" gradientTransform="matrix(0.6695 -0.7428 -0.7428 -0.6695 1401.3481 1345.644)">
			<stop  offset="0" style="stop-color:#FFFFFF"/>
			<stop  offset="1" style="stop-color:#F69220"/>
		</linearGradient>
		<path class="st35" d="M261.8,76.9l-26.8-22.6c0,0-7.9,5.3-7.9,12.8c0,7.4,10.5,14.4,10.5,14.4l-6,4.5c0,0,3.4,3.7,10.4,5.2
			c0,0-3-8.4,4.5-15.8C251.1,70.7,261.8,76.9,261.8,76.9z"/>
	</g>
	<path class="st9" d="M243.5,77.2L243.5,77.2c-3.7,6.3-1.5,14.5,4.9,18.1l5.2,3c2.6,1.5,6,0.6,7.5-2l7.8-13.5c1.5-2.6,0.6-6-2-7.5
		l-5.2-3C255.3,68.7,247.2,70.9,243.5,77.2z"/>
</g>
</svg>
