<?xml version="1.0" encoding="utf-8"?>
<!-- Generator: Adobe Illustrator 24.1.1, SVG Export Plug-In . SVG Version: 6.00 Build 0)  -->
<svg version="1.1" id="Ebene_1" xmlns="http://www.w3.org/2000/svg" xmlns:xlink="http://www.w3.org/1999/xlink" x="0px" y="0px"
	 viewBox="0 0 430 430" style="enable-background:new 0 0 430 430;" xml:space="preserve">
<style type="text/css">
	.st0{fill:#008490;}
	.st1{fill:#FFFFFF;}
</style>
<path class="st0" d="M383.3,430.3h-336c-26,0-47-21-47-47v-336c0-26,21-47,47-47h336c26,0,47,21,47,47v336
	C430.3,409.2,409.2,430.3,383.3,430.3z"/>
<g>
	<g>
		<path class="st1" d="M357.3,143.6H293c4.6-3.2,8.6-6.3,11.3-9.1c16.4-16.5,16.4-43.3,0-59.8c-15.9-16-43.7-16-59.6,0
			c-8.8,8.8-32.2,44.9-29,68.9h-1.5c3.2-24.1-20.2-60.1-29-68.9c-15.9-16-43.7-16-59.6,0c-16.4,16.5-16.4,43.3,0,59.8
			c2.8,2.8,6.8,5.9,11.4,9.1H72.7c-11.2,0-20.3,9.1-20.3,20.3v50.8c0,5.6,4.6,10.2,10.2,10.2h10.2v122c0,11.2,9.1,20.3,20.3,20.3
			h244c11.2,0,20.3-9.1,20.3-20.3V225h10.2c5.6,0,10.2-4.6,10.2-10.2V164C377.7,152.8,368.5,143.6,357.3,143.6z M140.1,89.1
			c4.1-4.1,9.6-6.4,15.4-6.4c5.8,0,11.3,2.3,15.4,6.4c13.7,13.8,27.3,49,22.6,53.9c0,0-0.9,0.7-3.8,0.7c-14.1,0-40.9-14.6-49.6-23.4
			C131.6,111.6,131.6,97.6,140.1,89.1z M204.8,347H93V225h111.8V347z M204.8,204.6H72.7V164h117h15.1V204.6z M259.1,89.1
			c8.3-8.3,22.6-8.3,30.8,0c8.5,8.6,8.5,22.6,0,31.2c-8.8,8.8-35.6,23.4-49.6,23.4c-2.9,0-3.8-0.7-3.8-0.7
			C231.8,138.1,245.4,102.8,259.1,89.1z M337,347H225.2V225H337V347z M357.3,204.6H225.2V164h15.1h117V204.6z"/>
	</g>
</g>
</svg>
