<?xml version="1.0" encoding="utf-8"?>
<!-- Generator: Adobe Illustrator 24.1.1, SVG Export Plug-In . SVG Version: 6.00 Build 0)  -->
<svg version="1.1" id="Ebene_1" xmlns="http://www.w3.org/2000/svg" xmlns:xlink="http://www.w3.org/1999/xlink" x="0px" y="0px"
	 viewBox="0 0 430 430" style="enable-background:new 0 0 430 430;" xml:space="preserve">
<style type="text/css">
	.st0{fill:#008490;}
	.st1{fill:#FFFFFF;}
</style>
<path class="st0" d="M383.3,430.3h-336c-26,0-47-21-47-47v-336c0-26,21-47,47-47h336c26,0,47,21,47,47v336
	C430.3,409.2,409.2,430.3,383.3,430.3z"/>
<g>
	<g>
		<g>
			<path class="st1" d="M312.9,168.8h-24.5v-55.9c0-39.7-32.9-71.9-73.4-71.9s-73.4,32.3-73.4,71.9v55.9h-24.5
				c-22.5,0-40.8,18.3-40.8,40.8v138.7c0,22.5,18.3,40.8,40.8,40.8h195.8c22.5,0,40.8-18.3,40.8-40.8V209.6
				C353.7,187.1,335.4,168.8,312.9,168.8z M168.7,112.9c0-24.7,20.7-44.7,46.2-44.7c25.5,0,46.2,20.1,46.2,44.7v55.9h-92.5V112.9
				L168.7,112.9z M326.5,348.3c0,7.5-6.1,13.6-13.6,13.6H117.1c-7.5,0-13.6-6.1-13.6-13.6V209.6c0-7.5,6.1-13.6,13.6-13.6h195.8
				c7.5,0,13.6,6.1,13.6,13.6V348.3z"/>
		</g>
	</g>
	<g>
		<g>
			<path class="st1" d="M215,235.4c-13.9,0-25.2,11.3-25.2,25.2c0,8.9,4.6,16.7,11.5,21.1v29.9c0,7.5,6.1,13.6,13.6,13.6
				c7.5,0,13.6-6.1,13.6-13.6v-29.8c7-4.5,11.6-12.3,11.6-21.2C240.2,246.7,228.9,235.4,215,235.4z"/>
		</g>
	</g>
</g>
</svg>
