<?xml version="1.0" encoding="utf-8"?>
<!-- Generator: Adobe Illustrator 24.1.1, SVG Export Plug-In . SVG Version: 6.00 Build 0)  -->
<svg version="1.1" id="Ebene_1" xmlns="http://www.w3.org/2000/svg" xmlns:xlink="http://www.w3.org/1999/xlink" x="0px" y="0px"
	 viewBox="0 0 430 430" style="enable-background:new 0 0 430 430;" xml:space="preserve">
<style type="text/css">
	.st0{fill:#008490;}
	.st1{fill:#FFFFFF;}
</style>
<path class="st0" d="M383.3,430.3h-336c-26,0-47-21-47-47v-336c0-26,21-47,47-47h336c26,0,47,21,47,47v336
	C430.3,409.2,409.2,430.3,383.3,430.3z"/>
<g>
	<path id="path-1_17_" class="st1" d="M156,142.4h125.6v20.9H156V142.4z"/>
	<path id="path-1_16_" class="st1" d="M156,207.4h125.6v20.9H156V207.4z"/>
	<path class="st1" d="M152.2,264.2H215v20.9h-62.8V264.2z"/>
	<path class="st1" d="M309.2,54.8h-44.9c-6.9-12.4-25.7-20.9-49.3-20.9s-42.4,8.5-49.3,20.9h-44.9c-17.3,0-31.4,14.1-31.4,31.4
		v251.2c0,17.3,14.1,31.4,31.4,31.4h188.4c17.3,0,31.4-14.1,31.4-31.4V86.2C340.6,68.9,326.5,54.8,309.2,54.8L309.2,54.8z M215,54.8
		c5.8,0,10.5,4.7,10.5,10.5c0,5.8-4.7,10.5-10.5,10.5c-5.8,0-10.5-4.7-10.5-10.5C204.5,59.5,209.2,54.8,215,54.8z M319.7,337.4
		c0,5.8-4.7,10.5-10.5,10.5H120.8c-5.8,0-10.5-4.7-10.5-10.5V86.2c0-5.8,4.7-10.5,10.5-10.5h41.9v10.5c0,5.8,4.7,10.5,10.5,10.5
		h83.7c5.8,0,10.5-4.7,10.5-10.5V75.8h41.9c5.8,0,10.5,4.7,10.5,10.5L319.7,337.4L319.7,337.4z"/>
</g>
</svg>
