<?xml version="1.0" encoding="utf-8"?>
<!-- Generator: Adobe Illustrator 24.1.1, SVG Export Plug-In . SVG Version: 6.00 Build 0)  -->
<svg version="1.1" id="Ebene_1" xmlns="http://www.w3.org/2000/svg" xmlns:xlink="http://www.w3.org/1999/xlink" x="0px" y="0px"
	 viewBox="0 0 430 430" style="enable-background:new 0 0 430 430;" xml:space="preserve">
<style type="text/css">
	.st0{fill:#008490;}
	.st1{fill:#FFFFFF;}
</style>
<path class="st0" d="M383.3,430.3h-336c-26,0-47-21-47-47v-336c0-26,21-47,47-47h336c26,0,47,21,47,47v336
	C430.3,409.2,409.2,430.3,383.3,430.3z"/>
<g>
	<g>
		<g>
			<path class="st1" d="M357.7,134.4h-35.8V69.2c0-6.2-5-11.3-11.3-11.3H119.4c-6.2,0-11.3,5-11.3,11.3v65.2H72.3
				c-14.5,0-26.3,11.8-26.3,26.3V274c0,14.5,11.8,26.3,26.3,26.3h35.8v60.5c0,6.2,5,11.3,11.3,11.3h191.1c6.2,0,11.3-5,11.3-11.3
				v-60.5h35.8c14.5,0,26.3-11.8,26.3-26.3V160.7C384,146.2,372.2,134.4,357.7,134.4z M130.7,80.5h168.6v53.9H130.7V80.5z
				 M299.3,349.5H130.7c0-2.2,0-89.4,0-92.2h168.6C299.3,260.1,299.3,347.4,299.3,349.5z M361.4,274c0,2.1-1.7,3.8-3.8,3.8h-35.8
				v-31.7c0-6.2-5-11.3-11.3-11.3H119.4c-6.2,0-11.3,5-11.3,11.3v31.7H72.3c-2.1,0-3.8-1.7-3.8-3.8V160.7c0-2.1,1.7-3.8,3.8-3.8
				c8.6,0,276.9,0,285.4,0c2.1,0,3.8,1.7,3.8,3.8L361.4,274L361.4,274z"/>
		</g>
	</g>
	<g>
		<g>
			<path class="st1" d="M310.6,178h-28.7c-6.2,0-11.3,5-11.3,11.3s5,11.3,11.3,11.3h28.7c6.2,0,11.3-5,11.3-11.3
				S316.8,178,310.6,178z"/>
		</g>
	</g>
	<g>
		<g>
			<path class="st1" d="M263.8,309.9h-97.6c-6.2,0-11.3,5-11.3,11.3c0,6.2,5,11.3,11.3,11.3h97.6c6.2,0,11.3-5,11.3-11.3
				C275.1,315,270,309.9,263.8,309.9z"/>
		</g>
	</g>
	<g>
		<g>
			<path class="st1" d="M263.8,274.4h-97.6c-6.2,0-11.3,5-11.3,11.3s5,11.3,11.3,11.3h97.6c6.2,0,11.3-5,11.3-11.3
				S270,274.4,263.8,274.4z"/>
		</g>
	</g>
</g>
</svg>
