<?xml version="1.0" encoding="utf-8"?>
<!-- Generator: Adobe Illustrator 24.1.1, SVG Export Plug-In . SVG Version: 6.00 Build 0)  -->
<svg version="1.1" id="Ebene_1" xmlns="http://www.w3.org/2000/svg" xmlns:xlink="http://www.w3.org/1999/xlink" x="0px" y="0px"
	 viewBox="0 0 430 430" style="enable-background:new 0 0 430 430;" xml:space="preserve">
<style type="text/css">
	.st0{fill:#008490;}
	.st1{fill:none;stroke:#FFFFFF;stroke-width:13;stroke-miterlimit:10;}
</style>
<path class="st0" d="M383.3,430.3h-336c-26,0-47-21-47-47v-336c0-26,21-47,47-47h336c26,0,47,21,47,47v336
	C430.3,409.2,409.2,430.3,383.3,430.3z"/>
<g>
	<g>
		<path class="st1" d="M75.7,245.4c5.4,72.8,66.9,130.2,141.3,129.1c74-1.1,136.4-63.5,137.4-137.5c1.1-77.9-61.9-141.6-139.5-141.6
			V65.5c0-4-2.4-7.7-6.2-9.2c-3.7-1.5-8-0.7-10.9,2.2L138,118.2c-3.9,3.9-3.9,10.2,0,14.1l59.8,59.8c2.9,2.9,7.1,3.7,10.9,2.2
			c3.7-1.5,6.2-5.2,6.2-9.2v-29.9c50.1,0,89.6,46.5,77.6,98.6c-6.6,28.8-30,52.1-58.8,58.7c-48.8,11.2-92.7-22.8-98-68.3
			c-0.6-5.2-4.6-9.3-9.8-9.3H85.7C80,234.9,75.2,239.7,75.7,245.4z"/>
	</g>
</g>
</svg>
