<?xml version="1.0" encoding="utf-8"?>
<!-- Generator: Adobe Illustrator 24.1.1, SVG Export Plug-In . SVG Version: 6.00 Build 0)  -->
<svg version="1.1" id="Ebene_1" xmlns="http://www.w3.org/2000/svg" xmlns:xlink="http://www.w3.org/1999/xlink" x="0px" y="0px"
	 viewBox="0 0 430 430" style="enable-background:new 0 0 430 430;" xml:space="preserve">
<style type="text/css">
	.st0{fill:#008490;}
	.st1{fill:#FFFFFF;}
</style>
<path class="st0" d="M383.3,430.3h-336c-26,0-47-21-47-47v-336c0-26,21-47,47-47h336c26,0,47,21,47,47v336
	C430.3,409.2,409.2,430.3,383.3,430.3z"/>
<g>
	<path class="st1" d="M215,134.7c-44.3,0-80.3,36-80.3,80.3s36,80.3,80.3,80.3s80.3-36,80.3-80.3S259.3,134.7,215,134.7z M215,275.2
		c-33.2,0-60.2-27-60.2-60.2s27-60.2,60.2-60.2s60.2,27,60.2,60.2S248.2,275.2,215,275.2z"/>
	<path class="st1" d="M375.1,176.7l-25.8-5.6c-2.2-6.9-5-13.6-8.3-20l14.3-22.2c2.6-4,2-9.2-1.3-12.5l-40.2-40.2
		c-3.3-3.3-8.6-3.9-12.5-1.3L278.9,89c-6.5-3.3-13.2-6.1-20-8.3l-5.6-25.8c-1-4.6-5.1-7.9-9.8-7.9h-56.9c-4.7,0-8.8,3.3-9.8,7.9
		l-5.6,25.8c-6.9,2.2-13.6,5-20,8.3l-22.2-14.3c-4-2.6-9.2-2-12.5,1.3l-40.2,40.2c-3.3,3.3-3.9,8.6-1.3,12.5L89,151.1
		c-3.3,6.5-6.1,13.2-8.3,20l-25.8,5.6c-4.6,1-7.9,5.1-7.9,9.8v56.9c0,4.7,3.3,8.8,7.9,9.8l25.8,5.6c2.2,6.9,5,13.6,8.3,20
		l-14.3,22.2c-2.6,4-2,9.2,1.3,12.5l40.2,40.2c3.3,3.3,8.6,3.9,12.5,1.3l22.2-14.3c6.5,3.3,13.2,6.1,20,8.3l5.6,25.8
		c1,4.6,5.1,7.9,9.8,7.9h56.9c4.7,0,8.8-3.3,9.8-7.9l5.6-25.8c6.9-2.2,13.6-5,20-8.3l22.2,14.3c4,2.6,9.2,2,12.5-1.3l40.2-40.2
		c3.3-3.3,3.9-8.6,1.3-12.5L341,278.9c3.3-6.5,6.1-13.2,8.3-20l25.8-5.6c4.6-1,7.9-5.1,7.9-9.8v-56.9
		C383,181.8,379.7,177.7,375.1,176.7z M362.9,235.4l-23.7,5.1c-3.6,0.8-6.5,3.5-7.5,7.1c-2.6,9.3-6.3,18.4-11.1,26.8
		c-1.8,3.2-1.7,7.2,0.3,10.4l13.1,20.4L305.2,334l-20.4-13.1c-3.1-2-7.1-2.1-10.4-0.3c-8.5,4.8-17.5,8.5-26.8,11.1
		c-3.6,1-6.3,3.9-7.1,7.5l-5.1,23.7h-40.7l-5.1-23.7c-0.8-3.6-3.5-6.5-7.1-7.5c-9.3-2.6-18.4-6.3-26.8-11.1
		c-3.2-1.8-7.2-1.7-10.4,0.3L124.8,334L96,305.2l13.1-20.4c2-3.1,2.1-7.1,0.3-10.4c-4.8-8.5-8.5-17.5-11.1-26.8
		c-1-3.6-3.9-6.3-7.5-7.1l-23.7-5.1v-40.7l23.7-5.1c3.6-0.8,6.5-3.5,7.5-7.1c2.6-9.3,6.3-18.4,11.1-26.8c1.8-3.2,1.7-7.2-0.3-10.4
		L96,124.8L124.8,96l20.4,13.1c3.1,2,7.1,2.1,10.4,0.3c8.5-4.8,17.5-8.5,26.8-11.1c3.6-1,6.3-3.9,7.1-7.5l5.1-23.7h40.7l5.1,23.7
		c0.8,3.6,3.5,6.5,7.1,7.5c9.3,2.6,18.4,6.3,26.8,11.1c3.2,1.8,7.2,1.7,10.4-0.3L305.2,96l28.8,28.8l-13.1,20.4
		c-2,3.1-2.1,7.1-0.3,10.4c4.8,8.5,8.5,17.5,11.1,26.8c1,3.6,3.9,6.3,7.5,7.1l23.7,5.1V235.4z"/>
</g>
</svg>
