<?xml version="1.0" encoding="utf-8"?>
<!-- Generator: Adobe Illustrator 24.1.1, SVG Export Plug-In . SVG Version: 6.00 Build 0)  -->
<svg version="1.1" id="Ebene_1" xmlns="http://www.w3.org/2000/svg" xmlns:xlink="http://www.w3.org/1999/xlink" x="0px" y="0px"
	 viewBox="0 0 430 430" style="enable-background:new 0 0 430 430;" xml:space="preserve">
<style type="text/css">
	.st0{fill:#008490;}
	.st1{fill:#FFFFFF;}
</style>
<path class="st0" d="M383.3,430.3h-336c-26,0-47-21-47-47v-336c0-26,21-47,47-47h336c26,0,47,21,47,47v336
	C430.3,409.2,409.2,430.3,383.3,430.3z"/>
<g>
	<path class="st1" d="M320.2,149.7c-30,0-54.4-24.4-54.4-54.4s24.4-54.4,54.4-54.4c30,0,54.4,24.4,54.4,54.4
		S350.1,149.7,320.2,149.7z M320.2,62.7c-18,0-32.6,14.6-32.6,32.6s14.7,32.6,32.6,32.6s32.6-14.6,32.6-32.6S338.1,62.7,320.2,62.7z
		"/>
	<path class="st1" d="M320.2,389.1c-30,0-54.4-24.4-54.4-54.4s24.4-54.4,54.4-54.4c30,0,54.4,24.4,54.4,54.4
		S350.1,389.1,320.2,389.1z M320.2,302c-18,0-32.6,14.6-32.6,32.6s14.7,32.6,32.6,32.6s32.6-14.6,32.6-32.6S338.1,302,320.2,302z"/>
	<path class="st1" d="M109.8,269.4c-30,0-54.4-24.4-54.4-54.4s24.4-54.4,54.4-54.4s54.4,24.4,54.4,54.4S139.8,269.4,109.8,269.4z
		 M109.8,182.4c-18,0-32.6,14.6-32.6,32.6s14.7,32.6,32.6,32.6s32.6-14.6,32.6-32.6S127.8,182.4,109.8,182.4z"/>
	<path class="st1" d="M147.7,204.4c-3.8,0-7.5-2-9.5-5.5c-3-5.2-1.2-11.9,4.1-14.8l134.6-76.7c5.2-3,11.9-1.2,14.8,4.1
		c3,5.2,1.2,11.9-4.1,14.8L153.1,203C151.4,203.9,149.5,204.4,147.7,204.4z"/>
	<path class="st1" d="M282.3,324.1c-1.8,0-3.7-0.5-5.4-1.4l-134.6-76.7c-5.2-3-7-9.6-4.1-14.8c3-5.2,9.6-7,14.8-4.1l134.6,76.7
		c5.2,3,7,9.6,4.1,14.8C289.7,322.1,286.1,324.1,282.3,324.1z"/>
</g>
</svg>
