<?xml version="1.0" encoding="utf-8"?>
<!-- Generator: Adobe Illustrator 24.1.1, SVG Export Plug-In . SVG Version: 6.00 Build 0)  -->
<svg version="1.1" id="Ebene_1" xmlns="http://www.w3.org/2000/svg" xmlns:xlink="http://www.w3.org/1999/xlink" x="0px" y="0px"
	 viewBox="0 0 430 430" style="enable-background:new 0 0 430 430;" xml:space="preserve">
<style type="text/css">
	.st0{fill:#008490;}
	.st1{fill:#FFFFFF;}
</style>
<path class="st0" d="M383.3,430.3h-336c-26,0-47-21-47-47v-336c0-26,21-47,47-47h336c26,0,47,21,47,47v336
	C430.3,409.2,409.2,430.3,383.3,430.3z"/>
<g>
	<path class="st1" d="M257.8,179.6c-4,0-7.3,3.2-7.3,7.3V324c0,4,3.2,7.3,7.3,7.3c4,0,7.3-3.3,7.3-7.3V186.8
		C265.1,182.8,261.8,179.6,257.8,179.6z"/>
	<path class="st1" d="M172.2,179.6c-4,0-7.3,3.2-7.3,7.3V324c0,4,3.2,7.3,7.3,7.3s7.3-3.3,7.3-7.3V186.8
		C179.4,182.8,176.2,179.6,172.2,179.6z"/>
	<path class="st1" d="M109.7,155.2v170.5c0,10.1,3.9,19.5,10.6,26.3c6.7,6.8,16.1,10.7,25.9,10.7h137.4c9.8,0,19.2-3.9,25.9-10.7
		c6.8-6.8,10.6-16.3,10.6-26.3V155.2c13.5-3.4,22.2-15.8,20.4-29c-1.8-13.2-13.6-23-27.5-23H276v-8.6c0-7.3-3-14.3-8.4-19.4
		c-5.4-5.1-12.7-8-20.4-7.9h-64.5c-7.6-0.1-15,2.8-20.4,7.9c-5.4,5.1-8.4,12.1-8.4,19.4v8.6h-37.2c-13.9,0-25.7,9.8-27.5,23
		C87.6,139.4,96.3,151.8,109.7,155.2z M283.7,348.9H146.3c-12.4,0-22.1-10.2-22.1-23.2V155.8h181.5v169.9
		C305.7,338.7,296.1,348.9,283.7,348.9z M168.5,94.6c0-3.6,1.4-7.1,4.1-9.6c2.7-2.5,6.3-3.9,10.1-3.9h64.5c3.8-0.1,7.4,1.3,10.1,3.9
		c2.7,2.5,4.2,6,4.1,9.6v8.6h-92.9V94.6z M116.9,117.1h196.3c7.2,0,13.1,5.6,13.1,12.5s-5.9,12.5-13.1,12.5H116.9
		c-7.2,0-13.1-5.6-13.1-12.5S109.6,117.1,116.9,117.1z"/>
	<path class="st1" d="M215,179.6c-4,0-7.3,3.2-7.3,7.3V324c0,4,3.2,7.3,7.3,7.3s7.3-3.3,7.3-7.3V186.8
		C222.3,182.8,219,179.6,215,179.6z"/>
</g>
</svg>
