<svg xmlns="http://www.w3.org/2000/svg" width="20" height="20" viewBox="0 0 20 20" fill="none">
    <g clip-path="url(#clip0)">
        <path d="M10.3229 15.3149V5.68257C10.3229 5.50437 10.1785 5.35999 10.0003 5.35999C9.82212 5.35999 9.67773 5.50437 9.67773 5.68257V15.3149C9.67773 15.4931 9.82212 15.6374 10.0003 15.6374C10.1785 15.6374 10.3229 15.4931 10.3229 15.3149Z" fill="black"/>
        <path d="M19.6774 3.25946C18.9954 3.25946 18.1456 2.96518 17.2459 2.65365C16.1065 2.25907 14.8149 1.81189 13.4754 1.81189C11.9255 1.81189 10.98 2.49107 10.4597 3.06084C10.2652 3.274 10.1144 3.48759 10 3.67705C9.88572 3.48759 9.73493 3.274 9.54034 3.06084C9.02004 2.49107 8.07454 1.81189 6.52464 1.81189C5.18516 1.81189 3.89363 2.25907 2.75419 2.65365C1.85437 2.96518 1.00456 3.25946 0.322581 3.25946C0.144387 3.25946 0 3.40385 0 3.58204V16.5752C0 16.7534 0.144387 16.8978 0.322581 16.8978C1.11312 16.8978 2.01277 16.5863 2.9652 16.2565C4.0566 15.8786 5.29363 15.4503 6.52456 15.4503C7.58004 15.4503 8.43437 15.7998 9.06383 16.4891C9.18391 16.6206 9.388 16.6298 9.51957 16.5097C9.65114 16.3896 9.66034 16.1855 9.54021 16.054C9.01991 15.4842 8.07441 14.8051 6.52456 14.8051C5.18508 14.8051 3.89355 15.2522 2.75411 15.6468C1.99131 15.911 1.26434 16.1627 0.645161 16.2332V3.88862C1.35445 3.82105 2.14 3.54901 2.9652 3.26329C4.0566 2.8854 5.29363 2.45705 6.52456 2.45705C9.01406 2.45705 9.66542 4.43391 9.69161 4.51701C9.73325 4.65241 9.85832 4.74488 10 4.74488C10.1417 4.74488 10.2668 4.65245 10.3084 4.51701C10.3147 4.49641 10.97 2.45705 13.4754 2.45705C14.7064 2.45705 15.9434 2.8854 17.0348 3.26329C17.86 3.54905 18.6455 3.82105 19.3548 3.88862V16.2332C18.7357 16.1627 18.0087 15.911 17.2459 15.6469C16.1065 15.2523 14.8149 14.8051 13.4754 14.8051C11.9255 14.8051 10.98 15.4843 10.4597 16.054C10.3396 16.1857 10.3489 16.3897 10.4804 16.5098C10.612 16.6299 10.816 16.6207 10.9361 16.4891C11.5656 15.7998 12.4199 15.4503 13.4754 15.4503C14.7064 15.4503 15.9434 15.8786 17.0348 16.2565C17.9873 16.5863 18.8869 16.8979 19.6774 16.8979C19.8556 16.8979 20 16.7535 20 16.5753V3.58204C20 3.40389 19.8556 3.25946 19.6774 3.25946Z" fill="black"/>
        <path d="M19.6774 17.5429C18.9954 17.5429 18.1456 17.2486 17.2459 16.9371C16.1065 16.5425 14.8149 16.0953 13.4754 16.0953C12.0198 16.0953 11.0973 16.6944 10.5595 17.2393L9.44047 17.2392C8.90262 16.6943 7.98009 16.0953 6.52456 16.0953C5.18508 16.0953 3.89355 16.5425 2.75411 16.9371C1.85437 17.2486 1.00456 17.5429 0.322581 17.5429C0.144387 17.5429 0 17.6873 0 17.8655C0 18.0437 0.144387 18.1881 0.322581 18.1881C1.11312 18.1881 2.01277 17.8765 2.9652 17.5467C4.0566 17.1688 5.29363 16.7405 6.52456 16.7405C7.58004 16.7405 8.43437 17.09 9.06383 17.7793C9.12495 17.8462 9.2114 17.8843 9.30202 17.8843L10.6979 17.8844C10.7885 17.8844 10.875 17.8462 10.9361 17.7793C11.5655 17.09 12.4199 16.7405 13.4754 16.7405C14.7063 16.7405 15.9434 17.1688 17.0348 17.5467C17.9872 17.8765 18.8869 18.1881 19.6774 18.1881C19.8556 18.1881 20 18.0437 20 17.8655C20 17.6873 19.8556 17.5429 19.6774 17.5429Z" fill="black"/>
    </g>
    <defs>
        <clipPath id="clip0">
            <rect width="20" height="20" fill="white"/>
        </clipPath>
    </defs>
</svg>
