<?xml version="1.0" encoding="UTF-8"?>
<svg width="219px" height="219px" viewBox="0 0 219 219" version="1.1" xmlns="http://www.w3.org/2000/svg" xmlns:xlink="http://www.w3.org/1999/xlink">
    <title>cta-dry-aged-beef</title>
    <g id="XL-&gt;-1340" stroke="none" stroke-width="1" fill="none" fill-rule="evenodd">
        <g id="Start" transform="translate(-609.000000, -3548.000000)" fill="#1D1D1B">
            <g id="cta-dry-aged-beef" transform="translate(609.000000, 3548.000000)">
                <path d="M109.501071,-0.000130952381 L0,109.499631 L109.501071,219.000702 L219.002143,109.499631 L109.501071,-0.000130952381 Z M3.70333333,109.499631 L109.501071,3.70320238 L215.2975,109.499631 L109.501071,215.297369 L3.70333333,109.499631 Z" id="Fill-1"></path>
                <g id="Group-54" transform="translate(18.333333, 18.334167)">
                    <path d="M6.63457143,89.1371429 C5.511,88.262381 4.10588095,88.4705952 2.96790476,89.609881 C1.78671429,90.7897619 1.73171429,92.0953571 2.59207143,92.9557143 C3.39742857,93.7610714 4.42540476,93.5672619 5.63278571,92.8588095 L7.5512381,91.7483333 C9.67659524,90.4846429 11.4405238,90.8316667 12.6767143,92.0678571 C14.4118333,93.8029762 14.203619,96.3447619 12.0782619,98.470119 C9.93980952,100.609881 7.37052381,100.761786 5.59219048,99.289881 L6.76028571,97.6778571 C7.80266667,98.6364286 9.41207143,98.5264286 10.7870714,97.150119 C12.0376667,95.9021429 12.163381,94.5258333 11.2454048,93.6091667 C10.4544524,92.8182143 9.49588095,92.942619 8.426,93.5685714 L6.57957143,94.6371429 C4.246,96.0265476 2.49516667,95.830119 1.19088095,94.5258333 C-0.518047619,92.8182143 -0.351738095,90.3458333 1.71730952,88.2767857 C3.60695238,86.3871429 5.87111905,86.0964286 7.64814286,87.4007143 L6.63457143,89.1371429 Z" id="Fill-2"></path>
                    <path d="M16.0097143,84.5961071 C17.3297143,83.2761071 17.2170952,81.7203929 16.1354286,80.6387262 C15.0223333,79.525631 13.5360238,79.5413452 12.2317381,80.845631 L9.8837619,83.1936071 L13.6486429,86.9571786 L16.0097143,84.5961071 Z M7.20316667,83.2617024 L11.0780476,79.3868214 C13.0920952,77.3727738 15.7176905,77.3596786 17.5785238,79.2205119 C19.4131667,81.0538452 19.4393571,83.6925357 17.4122143,85.7196786 L14.9123333,88.220869 L18.4270952,91.7343214 L17.0507857,93.1093214 L7.20316667,83.2617024 Z" id="Fill-4"></path>
                    <polygon id="Fill-6" points="16.037869 74.4280476 21.6897738 68.7761429 23.0097738 70.0948333 18.732869 74.3730476 21.6334643 77.2749524 25.4965595 73.4144762 26.7471548 74.6650714 22.885369 78.5255476 25.9535833 81.5950714 30.2331071 77.3155476 31.5387024 78.6224524 25.8854881 84.2756667"></polygon>
                    <path d="M27.6215238,72.6505 C24.5808095,69.6097857 24.4550952,65.5122857 27.302,62.6640714 C29.4548571,60.5112143 32.4274762,59.9834762 34.7597381,61.317881 L33.8849762,63.1905 C32.1079524,62.1363333 30.1214048,62.5671667 28.6783095,64.0102619 C26.6773571,66.0112143 26.8986667,68.9275238 29.1078333,71.1366905 C31.3300952,73.3589524 34.2464048,73.5815714 36.2329524,71.5937143 C37.6773571,70.150619 38.051881,68.0802619 37.067119,66.3713333 L38.9266429,65.4834762 C40.2597381,67.7882381 39.7752143,70.8040714 37.5804524,72.9988333 C34.7335476,75.8444286 30.6504524,75.6794286 27.6215238,72.6505" id="Fill-8"></path>
                    <polygon id="Fill-10" points="43.5110238 66.6502619 33.6620952 56.8026429 35.0109048 55.4551429 44.8572143 65.3027619"></polygon>
                    <path d="M49.0802976,54.4411786 L44.9958929,52.5803452 C43.6627976,51.9687976 42.9831548,51.5942738 42.553631,51.32975 C42.7317262,51.6217738 43.1075595,52.3577262 43.7727976,53.8034405 L45.6349405,57.8852262 L49.0802976,54.4411786 Z M50.8167262,55.232131 L46.4285119,59.6216548 L47.7197024,62.4410595 L46.1495833,64.0111786 L40.0668452,50.3986786 L41.6225595,48.8442738 L55.23375,54.9283214 L53.636131,56.524631 L50.8167262,55.232131 Z" id="Fill-12"></path>
                    <polygon id="Fill-14" points="60.7329643 46.8155595 62.039869 48.1224643 56.5254643 53.6355595 46.6791548 43.786631 48.06725 42.3985357 56.6079643 50.9405595"></polygon>
                    <path d="M61.7612024,38.5108214 C58.7204881,35.4687976 58.5947738,31.3699881 61.4416786,28.5230833 C63.5945357,26.3702262 66.5671548,25.8424881 68.9007262,27.1768929 L68.0246548,29.0495119 C66.247631,27.9966548 64.2623929,28.4261786 62.8179881,29.8705833 C60.8170357,31.8715357 61.0396548,34.7865357 63.2475119,36.9970119 C65.4697738,39.2179643 68.3873929,39.4405833 70.372631,37.4540357 C71.8183452,36.009631 72.192869,33.9405833 71.2067976,32.2316548 L73.067631,31.3424881 C74.4007262,33.6485595 73.9148929,36.6630833 71.720131,38.8578452 C68.8745357,41.70475 64.790131,41.5384405 61.7612024,38.5108214" id="Fill-16"></path>
                    <path d="M67.6924286,22.7734881 L69.0949286,21.3709881 L75.165881,27.440631 C76.8735,29.14825 78.7775476,29.1626548 80.1787381,27.7601548 C81.6244524,26.31575 81.5262381,24.4130119 79.8592143,22.7459881 L73.7895714,16.6763452 L75.1789762,15.2869405 L81.3612381,21.4665833 C83.7065952,23.8145595 83.831,26.7452738 81.4987381,29.0788452 C79.1782619,31.3980119 76.2200476,31.3011071 73.873381,28.9544405 L67.6924286,22.7734881 Z" id="Fill-18"></path>
                    <polygon id="Fill-20" points="85.1228452 7.89808333 82.1502262 10.8707024 90.7210595 19.4402262 89.3460595 20.8139167 80.7778452 12.2457024 77.8039167 15.2183214 76.527131 13.9389167 83.84475 6.6199881"></polygon>
                    <path d="M92.9570714,2.81346429 C91.8321905,1.93870238 90.4296905,2.14822619 89.2904048,3.28620238 C88.1105238,4.46739286 88.0542143,5.7729881 88.915881,6.63334524 C89.7212381,7.43870238 90.7492143,7.24358333 91.9565952,6.53644048 L93.8737381,5.42465476 C95.9990952,4.16096429 97.7630238,4.50929762 98.9992143,5.74417857 C100.734333,7.48060714 100.527429,10.0237024 98.4020714,12.14775 C96.263619,14.2875119 93.6930238,14.4394167 91.916,12.9675119 L93.0827857,11.3554881 C94.1251667,12.3140595 95.7345714,12.20275 97.110881,10.82775 C98.3601667,9.57846429 98.4845714,8.20215476 97.5679048,7.28679762 C96.7769524,6.49584524 95.8196905,6.61894048 94.7498095,7.24620238 L92.903381,8.31477381 C90.5685,9.70417857 88.8189762,9.50905952 87.5120714,8.20215476 C85.8044524,6.49584524 85.9720714,4.02346429 88.041119,1.95441667 C89.9281429,0.0634642857 92.193619,-0.22725 93.9719524,1.07703571 L92.9570714,2.81346429 Z" id="Fill-22"></path>
                    <path d="M125.391357,44.7208452 L127.25219,40.6364405 C127.863738,39.3033452 128.238262,38.6237024 128.501476,38.192869 C128.210762,38.3722738 127.47481,38.7481071 126.030405,39.4133452 L121.94731,41.2754881 L125.391357,44.7208452 Z M124.600405,46.4572738 L120.210881,42.0690595 L117.391476,43.36025 L115.821357,41.790131 L129.432548,35.7060833 L130.988262,37.2617976 L124.904214,50.8729881 L123.307905,49.2766786 L124.600405,46.4572738 Z" id="Fill-24"></path>
                    <polygon id="Fill-26" points="136.044071 42.3165595 137.405976 43.6784643 134.738476 55.90025 142.183119 48.4556071 143.572524 49.8463214 133.724905 59.6939405 132.349905 58.317631 135.0305 46.0814405 127.571452 53.5391786 126.196452 52.1654881"></polygon>
                    <path d="M140.14275,63.4991548 C142.268107,65.6232024 145.058702,65.3874881 147.18406,63.2634405 C149.323821,61.1236786 149.433821,58.3186786 147.377869,56.2640357 L145.822155,54.7070119 L138.587036,61.9434405 L140.14275,63.4991548 Z M145.739655,52.0133214 L148.752869,55.0252262 C151.767393,58.0410595 151.517274,61.8740357 148.655964,64.7340357 C145.64275,67.7485595 141.835964,67.804869 138.90525,64.8741548 L135.892036,61.859631 L145.739655,52.0133214 Z" id="Fill-28"></path>
                    <path d="M153.239821,76.5957024 C155.365179,78.7210595 158.157083,78.4853452 160.281131,76.3612976 C162.420893,74.2215357 162.530893,71.4152262 160.47494,69.3605833 L158.920536,67.804869 L151.685417,75.0412976 L153.239821,76.5957024 Z M158.836726,65.109869 L161.85125,68.1230833 C164.864464,71.1389167 164.615655,74.9718929 161.753036,77.8318929 C158.739821,80.8464167 154.934345,80.9027262 152.003631,77.9720119 L148.989107,74.9574881 L158.836726,65.109869 Z" id="Fill-30"></path>
                    <path d="M164.739798,81.0421905 L167.268488,83.5695714 C168.587179,84.8895714 170.142893,84.7494524 171.170869,83.7227857 C172.282655,82.6096905 172.226345,81.1115952 170.94956,79.8335 L168.448369,77.333619 L164.739798,81.0421905 Z M168.046345,86.1807619 L165.725869,91.6951667 L164.18456,90.1525476 L166.379321,85.1527857 L166.129202,84.9026667 L163.503607,82.2770714 L159.906345,85.8743333 L158.531345,84.5006429 L168.378964,74.6530238 L172.37956,78.653619 C174.421107,80.6938571 174.421107,83.3063571 172.602179,85.1239762 C171.324083,86.403381 169.62825,86.7923095 168.046345,86.1807619 L168.046345,86.1807619 Z" id="Fill-32"></path>
                    <polygon id="Fill-34" points="178.046655 84.2647976 176.060107 91.5837262 183.39344 89.6115833 184.976655 91.1947976 175.379155 93.6252738 171.518679 97.4870595 170.156774 96.1251548 174.01856 92.263369 176.46344 82.6815833"></polygon>
                    <path d="M148.500524,114.608952 L152.58231,116.471095 C153.916714,117.081333 154.596357,117.455857 155.02719,117.719071 C154.846476,117.427048 154.471952,116.692405 153.805405,115.248 L151.944571,111.163595 L148.500524,114.608952 Z M146.764095,113.81669 L151.15231,109.427167 L149.861119,106.609071 L151.428619,105.037643 L157.513976,118.650143 L155.958262,120.204548 L142.347071,114.123119 L143.94469,112.52419 L146.764095,113.81669 Z" id="Fill-36"></path>
                    <path d="M136.650905,128.622429 C133.957214,125.928738 133.873405,122.176952 136.678405,119.373262 C139.651024,116.399333 143.693524,116.581357 146.719833,119.608976 C149.790667,122.6785 149.916381,126.776 146.998762,129.69231 C144.902214,131.788857 141.984595,132.316595 139.804238,131.080405 L140.582095,129.220881 C142.19281,130.108738 144.180667,129.789214 145.693167,128.275405 C147.736024,126.233857 147.457095,123.317548 145.234833,121.095286 C142.999476,118.858619 140.111976,118.60981 138.01281,120.706357 C136.192571,122.525286 136.055071,125.025167 137.748286,126.886 L141.153048,123.483857 L142.347333,124.678143 L137.59769,129.427786 C137.333167,129.248381 136.999238,128.970762 136.650905,128.622429" id="Fill-38"></path>
                    <polygon id="Fill-40" points="140.346643 135.817083 134.693429 141.470298 133.373429 140.151607 137.650333 135.873393 134.749738 132.970179 130.887952 136.831964 129.637357 135.581369 133.499143 131.719583 130.430929 128.65006 126.151405 132.929583 124.8445 131.622679 130.497714 125.969464"></polygon>
                    <path d="M121.582345,137.498774 C119.458298,139.622821 119.694012,142.416036 121.81806,144.540083 C123.956512,146.679845 126.762821,146.789845 128.817464,144.733893 L130.374488,143.178179 L123.13806,135.94306 L121.582345,137.498774 Z M133.068179,143.095679 L130.054964,146.108893 C127.04044,149.123417 123.206155,148.874607 120.346155,146.011988 C117.331631,142.998774 117.276631,139.193298 120.206036,136.262583 L123.22056,133.24806 L133.068179,143.095679 Z" id="Fill-42"></path>
                    <path d="M114.303226,153.276964 L112.082274,155.497917 C111.039893,156.540298 111.081798,157.748988 111.98406,158.65125 C112.845726,159.512917 114.081917,159.469702 115.108583,158.443036 L117.28894,156.262679 L114.303226,153.276964 Z M107.470131,154.611369 C108.441798,155.583036 109.692393,155.497917 110.705964,154.485655 L113.10894,152.082679 L110.066917,149.040655 L107.69275,151.416131 C106.624179,152.486012 106.608464,153.748393 107.470131,154.611369 L107.470131,154.611369 Z M105.886917,155.943155 C104.261798,154.319345 104.373107,152.097083 106.28894,150.178631 L110.123226,146.345655 L119.969536,156.194583 L116.289774,159.874345 C114.385726,161.777083 112.137274,161.749583 110.60906,160.222679 C109.608583,159.222202 109.31656,158.013512 109.622988,156.846726 C108.219179,157.36006 106.913583,156.943631 105.886917,155.943155 L105.886917,155.943155 Z" id="Fill-44"></path>
                    <polygon id="Fill-46" points="111.345274 164.818452 105.69206 170.471667 104.37206 169.152976 108.648964 164.874762 105.748369 161.971548 101.886583 165.833333 100.635988 164.582738 104.497774 160.720952 101.42956 157.651429 97.1500357 161.930952 95.843131 160.624048 101.496345 154.970833"></polygon>
                    <polygon id="Fill-48" points="104.066286 172.097571 98.414381 177.749476 97.094381 176.430786 101.372595 172.151262 98.4706905 169.249357 94.6075952 173.109833 93.357 171.859238 97.2187857 167.998762 94.1505714 164.930548 89.8723571 169.208762 88.5667619 167.903167 94.2186667 162.248643"></polygon>
                    <polygon id="Fill-50" points="96.7896548 179.374071 91.1220357 185.04169 89.81775 183.734786 94.1090595 179.443476 91.025131 176.360857 87.400369 179.985619 86.1772738 178.762524 89.8020357 175.139071 85.5670357 170.901452 86.9407262 169.526452"></polygon>
                    <path d="M66.2799762,141.502774 C65.6553333,142.128726 64.7386667,142.154917 64.0590238,141.475274 C63.4055714,140.821821 63.4330714,139.906464 64.0577143,139.281821 C64.7111667,138.628369 65.6278333,138.59956 66.2799762,139.253012 C66.9609286,139.933964 66.9334286,140.850631 66.2799762,141.502774 L66.2799762,141.502774 Z M63.2117619,143.405512 L56.641881,150.365631 L55.1974762,148.919917 L62.1562857,142.350036 L63.2117619,143.405512 Z" id="Fill-52"></path>
                </g>
            </g>
        </g>
    </g>
</svg>