<svg width="30" height="30" viewBox="0 0 30 30" fill="none" xmlns="http://www.w3.org/2000/svg">
    <path d="M29.9823 14.9912C29.9823 6.71177 23.2705 0 14.9912 0C6.71177 0 0 6.71177 0 14.9912C0 23.2705 6.71177 29.9823 14.9912 29.9823C23.2705 29.9823 29.9823 23.2705 29.9823 14.9912Z" fill="#1BD741"/>
    <path d="M4.50586 25.4873L5.97448 20.2713C5.03007 18.6669 4.53283 16.8414 4.53283 14.9661C4.53283 9.19213 9.23033 4.49463 15.0043 4.49463C20.7784 4.49463 25.4758 9.19213 25.4758 14.9661C25.4758 20.7402 20.7784 25.4377 15.0043 25.4377C13.2052 25.4377 11.4435 24.9771 9.885 24.1027L4.50586 25.4873ZM10.16 22.1976L10.4805 22.3933C11.8393 23.2229 13.4037 23.6613 15.0043 23.6613C19.7989 23.6613 23.6995 19.7607 23.6995 14.9661C23.6995 10.1716 19.7989 6.27094 15.0043 6.27094C10.2098 6.27094 6.30915 10.1716 6.30915 14.9661C6.30915 16.6367 6.78395 18.259 7.68211 19.6577L7.89796 19.9938L7.05224 22.9976L10.16 22.1976Z" fill="white"/>
    <path d="M12.0636 10.0925L11.3842 10.0554C11.1707 10.0438 10.9614 10.1151 10.8001 10.2552C10.4707 10.5413 9.94397 11.0943 9.78219 11.815C9.54094 12.8895 9.91377 14.2053 10.8787 15.5211C11.8436 16.8369 13.6419 18.9421 16.8217 19.8413C17.8463 20.131 18.6524 19.9357 19.2743 19.5379C19.7669 19.2228 20.1064 18.7171 20.2288 18.1454L20.3373 17.6387C20.3717 17.4776 20.29 17.3142 20.1403 17.2452L17.844 16.1867C17.6949 16.1181 17.5181 16.1615 17.4178 16.2914L16.5163 17.4601C16.4482 17.5484 16.3317 17.5834 16.2264 17.5464C15.609 17.3294 13.541 16.4633 12.4063 14.2775C12.3571 14.1827 12.3693 14.0677 12.4391 13.9868L13.3007 12.9901C13.3887 12.8883 13.4109 12.7452 13.358 12.6215L12.3682 10.3057C12.3155 10.1824 12.1974 10.0998 12.0636 10.0925Z" fill="white"/>
</svg>
