<svg width="20" height="20" viewBox="0 0 20 20" fill="none" xmlns="http://www.w3.org/2000/svg">
    <path d="M14.3416 11.6591H5.65822C2.74311 11.6591 0.37146 14.0308 0.37146 16.9459V20H19.6284V16.9459C19.6284 14.0308 17.2567 11.6591 14.3416 11.6591ZM18.481 18.8527H1.51873V16.946C1.51873 14.6635 3.37568 12.8066 5.65814 12.8066H14.3415C16.624 12.8066 18.4809 14.6635 18.4809 16.946L18.481 18.8527Z" fill="black"/>
    <path d="M9.99989 11.116C13.0645 11.116 15.5579 8.62264 15.5579 5.558C15.5579 2.49335 13.0646 0 9.99989 0C6.93516 0 4.44189 2.49327 4.44189 5.558C4.44189 8.62272 6.93524 11.116 9.99989 11.116ZM9.99989 1.14735C12.432 1.14735 14.4105 3.12592 14.4105 5.558C14.4105 7.99007 12.432 9.96864 9.99989 9.96864C7.56781 9.96864 5.58924 7.99 5.58924 5.558C5.58924 3.12599 7.56781 1.14735 9.99989 1.14735Z" fill="black"/>
</svg>
