<svg width="24" height="20" viewBox="0 0 24 20" fill="none" xmlns="http://www.w3.org/2000/svg">
    <path d="M7.63648 13.3335H7.63757C7.63847 13.3335 7.63938 13.3333 7.64028 13.3333H20.2299C20.5398 13.3333 20.8124 13.1359 20.8975 12.8498L23.6751 3.51649C23.7349 3.31528 23.693 3.09896 23.5619 2.93194C23.4306 2.76493 23.2254 2.66667 23.0075 2.66667H6.03505L5.53867 0.522048C5.46796 0.217014 5.18623 0 4.86073 0H0.69439C0.310848 0 0 0.298437 0 0.666666C0 1.0349 0.310848 1.33333 0.69439 1.33333H4.30377C4.39166 1.71337 6.67917 11.5963 6.81081 12.1649C6.07284 12.4729 5.55512 13.1793 5.55512 14C5.55512 15.1028 6.48966 16 7.63829 16H20.2299C20.6134 16 20.9243 15.7016 20.9243 15.3333C20.9243 14.9651 20.6134 14.6667 20.2299 14.6667H7.63829C7.25547 14.6667 6.9439 14.3675 6.9439 14C6.9439 13.633 7.25439 13.3344 7.63648 13.3335ZM22.0869 4L19.706 12H8.19525L6.34354 4H22.0869Z" fill="black"/>
    <path d="M6.94385 18C6.94385 19.1028 7.87838 20 9.02702 20C10.1757 20 11.1102 19.1028 11.1102 18C11.1102 16.8972 10.1757 16 9.02702 16C7.87838 16 6.94385 16.8972 6.94385 18ZM9.02702 17.3333C9.40984 17.3333 9.72141 17.6325 9.72141 18C9.72141 18.3675 9.40984 18.6667 9.02702 18.6667C8.6442 18.6667 8.33263 18.3675 8.33263 18C8.33263 17.6325 8.6442 17.3333 9.02702 17.3333Z" fill="black"/>
    <path d="M16.7579 18C16.7579 19.1028 17.6925 20 18.8411 20C19.9897 20 20.9243 19.1028 20.9243 18C20.9243 16.8972 19.9897 16 18.8411 16C17.6925 16 16.7579 16.8972 16.7579 18ZM18.8411 17.3333C19.2239 17.3333 19.5355 17.6325 19.5355 18C19.5355 18.3675 19.2239 18.6667 18.8411 18.6667C18.4583 18.6667 18.1467 18.3675 18.1467 18C18.1467 17.6325 18.4583 17.3333 18.8411 17.3333Z" fill="black"/>
</svg>
