<svg width="41" height="40" viewBox="0 0 41 40" fill="none" xmlns="http://www.w3.org/2000/svg">
<path d="M20.4603 0.126953C9.66668 0.126953 0.936523 8.85711 0.936523 19.6508C0.936523 30.4444 9.66668 39.1746 20.4603 39.1746C31.254 39.1746 40.0635 30.4444 40.0635 19.6508C40.0635 8.85711 31.254 0.126953 20.4603 0.126953ZM25.6984 19.5714H22.2857C22.2857 24.9682 22.2857 31.6349 22.2857 31.6349H17.2857C17.2857 31.6349 17.2857 25.0476 17.2857 19.5714H14.9048V15.2857H17.2857V12.5079C17.2857 10.5238 18.2381 7.42854 22.3651 7.42854H26.0953V11.5555C26.0953 11.5555 23.873 11.5555 23.3968 11.5555C22.9207 11.5555 22.3651 11.7936 22.3651 12.746V15.2857H26.1746L25.6984 19.5714Z" fill="#434B1C"/>
</svg>
