<svg width="40" height="40" viewBox="0 0 40 40" fill="none" xmlns="http://www.w3.org/2000/svg">
<path d="M20.3016 23.3015C22.2302 23.3015 23.7937 21.7381 23.7937 19.8094C23.7937 17.8808 22.2302 16.3174 20.3016 16.3174C18.373 16.3174 16.8096 17.8808 16.8096 19.8094C16.8096 21.7381 18.373 23.3015 20.3016 23.3015Z" fill="#434B1C"/>
<path d="M24.6667 11.2383H15.9365C14.6667 11.2383 13.5556 11.6351 12.8413 12.3494C12.127 13.0637 11.7302 14.1748 11.7302 15.4446V24.1748C11.7302 25.4446 12.127 26.5557 12.9206 27.3494C13.7143 28.0637 14.746 28.4605 16.0159 28.4605H24.6667C25.9365 28.4605 27.0476 28.0637 27.7619 27.3494C28.5556 26.6351 28.9524 25.524 28.9524 24.2542V15.524C28.9524 14.2542 28.5556 13.2224 27.8413 12.4288C27.0476 11.6351 26.0159 11.2383 24.6667 11.2383ZM20.3016 25.2065C17.2857 25.2065 14.9048 22.7462 14.9048 19.8097C14.9048 16.7938 17.3651 14.4129 20.3016 14.4129C23.2381 14.4129 25.7778 16.7938 25.7778 19.8097C25.7778 22.8256 23.3175 25.2065 20.3016 25.2065ZM25.9365 15.4446C25.2222 15.4446 24.6667 14.8891 24.6667 14.1748C24.6667 13.4605 25.2222 12.9049 25.9365 12.9049C26.6508 12.9049 27.2064 13.4605 27.2064 14.1748C27.2064 14.8891 26.6508 15.4446 25.9365 15.4446Z" fill="#434B1C"/>
<path d="M20.4603 0.126953C9.66668 0.126953 0.936523 8.85711 0.936523 19.6508C0.936523 30.4444 9.66668 39.1746 20.4603 39.1746C31.254 39.1746 39.9841 30.4444 39.9841 19.6508C40.0635 8.85711 31.254 0.126953 20.4603 0.126953ZM30.8572 24.2539C30.8572 26.0793 30.2222 27.6666 29.1111 28.7777C28 29.8889 26.4127 30.4444 24.6667 30.4444H16.0159C14.2699 30.4444 12.6826 29.8889 11.5714 28.7777C10.381 27.6666 9.82541 26.0793 9.82541 24.2539V15.5238C9.82541 11.873 12.2857 9.3333 16.0159 9.3333H24.746C26.5714 9.3333 28.0794 9.96822 29.1905 11.0793C30.3016 12.1904 30.8572 13.6984 30.8572 15.5238V24.2539Z" fill="#434B1C"/>
</svg>
