<svg width="50" height="50" viewBox="0 0 50 50" fill="none" xmlns="http://www.w3.org/2000/svg">
<path d="M25.1 29.4001C27.5301 29.4001 29.5 27.4302 29.5 25.0001C29.5 22.57 27.5301 20.6001 25.1 20.6001C22.67 20.6001 20.7 22.57 20.7 25.0001C20.7 27.4302 22.67 29.4001 25.1 29.4001Z" fill="#E2E2E2"/>
<path d="M30.6 14.2002H19.6C18 14.2002 16.6 14.7002 15.7 15.6002C14.8 16.5002 14.3 17.9002 14.3 19.5002V30.5002C14.3 32.1002 14.8 33.5002 15.8 34.5002C16.8 35.4002 18.1 35.9002 19.7 35.9002H30.6C32.2 35.9002 33.6 35.4002 34.5 34.5002C35.5 33.6002 36 32.2002 36 30.6002V19.6002C36 18.0002 35.5 16.7002 34.6 15.7002C33.6 14.7002 32.3 14.2002 30.6 14.2002ZM25.1 31.8002C21.3 31.8002 18.3 28.7002 18.3 25.0002C18.3 21.2002 21.4 18.2002 25.1 18.2002C28.8 18.2002 32 21.2002 32 25.0002C32 28.8002 28.9 31.8002 25.1 31.8002ZM32.2 19.5002C31.3 19.5002 30.6 18.8002 30.6 17.9002C30.6 17.0002 31.3 16.3002 32.2 16.3002C33.1 16.3002 33.8 17.0002 33.8 17.9002C33.8 18.8002 33.1 19.5002 32.2 19.5002Z" fill="#E2E2E2"/>
<path d="M25.3 0.200195C11.7 0.200195 0.700012 11.2002 0.700012 24.8002C0.700012 38.4002 11.7 49.4002 25.3 49.4002C38.9 49.4002 49.9 38.4002 49.9 24.8002C50 11.2002 38.9 0.200195 25.3 0.200195ZM38.4 30.6002C38.4 32.9002 37.6 34.9002 36.2 36.3002C34.8 37.7002 32.8 38.4002 30.6 38.4002H19.7C17.5 38.4002 15.5 37.7002 14.1 36.3002C12.6 34.9002 11.9 32.9002 11.9 30.6002V19.6002C11.9 15.0002 15 11.8002 19.7 11.8002H30.7C33 11.8002 34.9 12.6002 36.3 14.0002C37.7 15.4002 38.4 17.3002 38.4 19.6002V30.6002Z" fill="#E2E2E2"/>
</svg>
