<svg width="60" height="15" viewBox="0 0 60 15" fill="none" xmlns="http://www.w3.org/2000/svg">
<path fill-rule="evenodd" clip-rule="evenodd" d="M3.30038 14.0409H0.333374V0.75H3.30038V14.0409ZM10.7077 0.75H7.80508C7.80508 3.19586 6.71125 5.44077 4.80416 6.90947L3.65417 7.79487L8.11001 14.0414H11.7735L7.6736 8.29363C9.61704 6.30407 10.7077 3.62738 10.7077 0.75ZM15.4402 14.0372H12.6382V0.752441H15.4402V14.0372ZM23.9059 4.84775V5.43561C23.1499 4.90536 22.2373 4.59375 21.2531 4.59375C18.6482 4.59375 16.5365 6.76471 16.5365 9.44274C16.5365 12.1208 18.6482 14.2917 21.2531 14.2917C22.2373 14.2917 23.1499 13.9801 23.9059 13.45V14.0373H26.5823V4.84775H23.9059ZM23.8977 9.44324C23.8977 10.749 22.812 11.8077 21.4727 11.8077C20.1335 11.8077 19.0477 10.749 19.0477 9.44324C19.0477 8.13745 20.1335 7.0791 21.4727 7.0791C22.812 7.0791 23.8977 8.13745 23.8977 9.44324ZM52.1398 5.43561V4.84775H54.816V14.0373H52.1398V13.45C51.3838 13.9801 50.4712 14.2917 49.4868 14.2917C46.8819 14.2917 44.7703 12.1208 44.7703 9.44274C44.7703 6.76471 46.8819 4.59375 49.4868 4.59375C50.4712 4.59375 51.3838 4.90536 52.1398 5.43561ZM49.7066 11.8077C51.0459 11.8077 52.1315 10.749 52.1315 9.44324C52.1315 8.13745 51.0459 7.0791 49.7066 7.0791C48.3672 7.0791 47.2816 8.13745 47.2816 9.44324C47.2816 10.749 48.3672 11.8077 49.7066 11.8077ZM55.9774 12.5045C55.9774 11.5508 56.7293 10.7778 57.6568 10.7778C58.5843 10.7778 59.3363 11.5508 59.3363 12.5045C59.3363 13.4579 58.5843 14.231 57.6568 14.231C56.7293 14.231 55.9774 13.4579 55.9774 12.5045ZM40.0146 4.60059C38.9455 4.60059 37.9338 4.9418 37.2574 5.8832V4.84829H34.5927V14.0373H37.2901V9.20816C37.2901 7.81074 38.2016 7.12643 39.2991 7.12643C40.4752 7.12643 41.1514 7.84878 41.1514 9.18914V14.0373H43.8245V8.19348C43.8245 6.05495 42.1706 4.60059 40.0146 4.60059ZM30.7222 4.84814V6.04502C31.2587 5.32708 32.2583 4.84868 33.3451 4.84868V7.52269C33.3343 7.52256 33.3241 7.52149 33.3133 7.52149C32.2544 7.52149 30.7283 8.29958 30.7283 9.74711V14.0376H27.9822V4.84814H30.7222Z" fill="#17120F"/>
</svg>
