<svg width="30" height="20" viewBox="0 0 30 20" fill="none" xmlns="http://www.w3.org/2000/svg">
<path d="M25.8112 0H3.488C1.56197 0.000654015 0.000872001 1.56197 0 3.488V16.512C0.000872001 18.438 1.56197 19.9996 3.488 20H25.8112C27.7373 19.9996 29.2984 18.438 29.2992 16.512V3.488C29.2984 1.56197 27.7373 0.000654015 25.8112 0ZM3.488 1.3952H25.8112C26.816 1.39782 27.6782 2.1109 27.8692 3.09713L14.6496 10.464L1.43008 3.09713C1.62105 2.1109 2.48324 1.39782 3.488 1.3952ZM25.8112 18.598H3.488C2.33369 18.5946 1.39847 17.6595 1.3952 16.5052V4.67393L14.3078 11.8729C14.4124 11.9305 14.5299 11.9619 14.6496 11.9639C14.7697 11.9652 14.8877 11.9338 14.9914 11.8729L27.904 4.67393V16.5052C27.9032 17.6606 26.9666 18.597 25.8112 18.598Z" fill="#333333"/>
</svg>
