<svg width="48" height="30" viewBox="0 0 48 30" fill="none" xmlns="http://www.w3.org/2000/svg">
<path fill-rule="evenodd" clip-rule="evenodd" d="M23.8421 26.2102C21.3626 28.3525 18.1462 29.6457 14.6316 29.6457C6.78936 29.6457 0.432007 23.207 0.432007 15.2645C0.432007 7.32199 6.78936 0.883301 14.6316 0.883301C18.1462 0.883301 21.3626 2.17655 23.8421 4.31883C26.3217 2.17655 29.5381 0.883301 33.0527 0.883301C40.8949 0.883301 47.2523 7.32199 47.2523 15.2645C47.2523 23.207 40.8949 29.6457 33.0527 29.6457C29.5381 29.6457 26.3217 28.3525 23.8421 26.2102Z" fill="#ED0006"/>
<path fill-rule="evenodd" clip-rule="evenodd" d="M23.8421 26.2102C26.8952 23.5724 28.8311 19.6474 28.8311 15.2645C28.8311 10.8816 26.8952 6.95661 23.8421 4.31883C26.3217 2.17655 29.5381 0.883301 33.0527 0.883301C40.8949 0.883301 47.2523 7.32199 47.2523 15.2645C47.2523 23.207 40.8949 29.6457 33.0527 29.6457C29.5381 29.6457 26.3217 28.3525 23.8421 26.2102Z" fill="#F9A000"/>
<path fill-rule="evenodd" clip-rule="evenodd" d="M23.8422 26.2101C26.8952 23.5724 28.8311 19.6474 28.8311 15.2645C28.8311 10.8816 26.8952 6.95663 23.8422 4.31885C20.7892 6.95663 18.8533 10.8816 18.8533 15.2645C18.8533 19.6474 20.7892 23.5724 23.8422 26.2101Z" fill="#FF5E00"/>
</svg>
