<svg xmlns="http://www.w3.org/2000/svg" width="22" height="21" viewBox="0 0 22 21" fill="none">
    <path d="M20.9645 20.1744L20.9645 20.1744C21.1785 19.9689 21.1785 19.6338 20.9645 19.4284L14.9675 13.6709C16.2021 12.3135 16.9583 10.5428 16.9583 8.60054C16.9583 4.33586 13.3461 0.875 8.91667 0.875C4.48726 0.875 0.875 4.33585 0.875 8.60058C0.875 12.8653 4.48726 16.3262 8.91667 16.3262C10.9391 16.3262 12.7839 15.5991 14.1984 14.4103L20.2022 20.1744C20.3082 20.2762 20.4465 20.3264 20.5833 20.3264C20.7202 20.3264 20.8584 20.2762 20.9645 20.1744ZM8.91667 15.2761C5.07543 15.2761 1.95836 12.2767 1.95836 8.60058C1.95836 4.9245 5.07543 1.92505 8.91667 1.92505C12.7579 1.92505 15.875 4.92447 15.875 8.60058C15.875 12.2767 12.7579 15.2761 8.91667 15.2761Z" fill="#999999" stroke="#999999" stroke-width="0.25"/>
</svg>
