<svg width="52" height="17" viewBox="0 0 52 17" fill="none" xmlns="http://www.w3.org/2000/svg">
<path fill-rule="evenodd" clip-rule="evenodd" d="M13.136 16.8709H8.71862L5.40615 4.23368C5.24893 3.65237 4.9151 3.13845 4.42405 2.89624C3.19856 2.28755 1.84816 1.80312 0.375 1.5588V1.07227H7.49098C8.47309 1.07227 9.20967 1.80312 9.33244 2.65192L11.0511 11.7676L15.4663 1.07227H19.7609L13.136 16.8709ZM22.2161 16.8709H18.0443L21.4795 1.07227H25.6514L22.2161 16.8709ZM31.0487 5.44908C31.1714 4.59817 31.908 4.11164 32.7674 4.11164C34.1178 3.98948 35.5888 4.2338 36.8164 4.84038L37.553 1.43886C36.3254 0.952328 34.975 0.708008 33.7495 0.708008C29.7004 0.708008 26.7541 2.89636 26.7541 5.9335C26.7541 8.24401 28.8411 9.45719 30.3142 10.188C31.908 10.9168 32.5218 11.4033 32.3991 12.1321C32.3991 13.2252 31.1714 13.7117 29.946 13.7117C28.4728 13.7117 26.9996 13.3473 25.6514 12.7387L24.9148 16.1423C26.388 16.7489 27.9817 16.9932 29.4549 16.9932C33.995 17.1132 36.8164 14.927 36.8164 11.6455C36.8164 7.51316 31.0487 7.27095 31.0487 5.44908ZM51.4166 16.8709L48.1041 1.07227H44.5462C43.8096 1.07227 43.073 1.5588 42.8275 2.28755L36.6936 16.8709H40.9882L41.8454 14.5625H47.122L47.6131 16.8709H51.4166ZM45.1601 5.32715L46.3855 11.2814H42.9503L45.1601 5.32715Z" fill="#172B85"/>
</svg>
