<svg width="38" height="35" viewBox="0 0 38 35" fill="none" xmlns="http://www.w3.org/2000/svg">
<path d="M34.1765 3.29465C30.0588 -0.822993 23.4706 -1.23476 18.9412 2.05936C14 -1.23476 7.41177 -0.822993 3.29412 3.29465C1.23529 5.76524 0 8.6476 0 11.9417C0 15.2358 1.23529 18.1182 3.29412 20.177L18.5294 35.0005L33.7647 20.177C38.7059 15.6476 38.7059 8.23583 34.1765 3.29465ZM31.2941 17.2947L18.9412 29.2358L6.58824 17.2947C3.70588 14.4123 3.70588 9.47112 6.58824 6.17701C7.82353 4.94171 9.88235 4.11818 11.9412 4.11818C14 4.11818 16.0588 4.94171 17.2941 6.17701L18.5294 7.4123L19.7647 6.17701C22.6471 3.29465 27.5882 3.29465 30.8824 6.17701C34.1765 9.47112 34.1765 14.4123 31.2941 17.2947Z" fill="#B4BD00"/>
</svg>
